<?xml version="1.0" encoding="utf-8" standalone="no"?>
<!DOCTYPE svg PUBLIC "-//W3C//DTD SVG 1.1//EN"
  "http://www.w3.org/Graphics/SVG/1.1/DTD/svg11.dtd">
<svg xmlns:xlink="http://www.w3.org/1999/xlink" width="432pt" height="288pt" viewBox="0 0 432 288" xmlns="http://www.w3.org/2000/svg" version="1.1">
 <metadata>
  <rdf:RDF xmlns:dc="http://purl.org/dc/elements/1.1/" xmlns:cc="http://creativecommons.org/ns#" xmlns:rdf="http://www.w3.org/1999/02/22-rdf-syntax-ns#">
   <cc:Work>
    <dc:type rdf:resource="http://purl.org/dc/dcmitype/StillImage"/>
    <dc:date>2026-03-09T22:00:17.155909</dc:date>
    <dc:format>image/svg+xml</dc:format>
    <dc:creator>
     <cc:Agent>
      <dc:title>Matplotlib v3.10.6, https://matplotlib.org/</dc:title>
     </cc:Agent>
    </dc:creator>
   </cc:Work>
  </rdf:RDF>
 </metadata>
 <defs>
  <style type="text/css">*{stroke-linejoin: round; stroke-linecap: butt}</style>
 </defs>
 <g id="figure_1">
  <g id="patch_1">
   <path d="M 0 288 
L 432 288 
L 432 0 
L 0 0 
z
" style="fill: #ffffff"/>
  </g>
  <g id="axes_1">
   <g id="patch_2">
    <path d="M 54 256.32 
L 388.8 256.32 
L 388.8 34.56 
L 54 34.56 
z
" style="fill: #ffffff"/>
   </g>
   <g id="matplotlib.axis_1">
    <g id="xtick_1">
     <g id="line2d_1">
      <defs>
       <path id="me0cfbecc03" d="M 0 0 
L 0 3.5 
" style="stroke: #000000; stroke-width: 0.8"/>
      </defs>
      <g>
       <use xlink:href="#me0cfbecc03" x="69.218182" y="256.32" style="stroke: #000000; stroke-width: 0.8"/>
      </g>
     </g>
     <g id="text_1">
      <!-- 0 -->
      <g transform="translate(66.036932 270.918437) scale(0.1 -0.1)">
       <defs>
        <path id="DejaVuSans-30" d="M 2034 4250 
Q 1547 4250 1301 3770 
Q 1056 3291 1056 2328 
Q 1056 1369 1301 889 
Q 1547 409 2034 409 
Q 2525 409 2770 889 
Q 3016 1369 3016 2328 
Q 3016 3291 2770 3770 
Q 2525 4250 2034 4250 
z
M 2034 4750 
Q 2819 4750 3233 4129 
Q 3647 3509 3647 2328 
Q 3647 1150 3233 529 
Q 2819 -91 2034 -91 
Q 1250 -91 836 529 
Q 422 1150 422 2328 
Q 422 3509 836 4129 
Q 1250 4750 2034 4750 
z
" transform="scale(0.015625)"/>
       </defs>
       <use xlink:href="#DejaVuSans-30"/>
      </g>
     </g>
    </g>
    <g id="xtick_2">
     <g id="line2d_2">
      <g>
       <use xlink:href="#me0cfbecc03" x="107.263636" y="256.32" style="stroke: #000000; stroke-width: 0.8"/>
      </g>
     </g>
     <g id="text_2">
      <!-- 25 -->
      <g transform="translate(100.901136 270.918437) scale(0.1 -0.1)">
       <defs>
        <path id="DejaVuSans-32" d="M 1228 531 
L 3431 531 
L 3431 0 
L 469 0 
L 469 531 
Q 828 903 1448 1529 
Q 2069 2156 2228 2338 
Q 2531 2678 2651 2914 
Q 2772 3150 2772 3378 
Q 2772 3750 2511 3984 
Q 2250 4219 1831 4219 
Q 1534 4219 1204 4116 
Q 875 4013 500 3803 
L 500 4441 
Q 881 4594 1212 4672 
Q 1544 4750 1819 4750 
Q 2544 4750 2975 4387 
Q 3406 4025 3406 3419 
Q 3406 3131 3298 2873 
Q 3191 2616 2906 2266 
Q 2828 2175 2409 1742 
Q 1991 1309 1228 531 
z
" transform="scale(0.015625)"/>
        <path id="DejaVuSans-35" d="M 691 4666 
L 3169 4666 
L 3169 4134 
L 1269 4134 
L 1269 2991 
Q 1406 3038 1543 3061 
Q 1681 3084 1819 3084 
Q 2600 3084 3056 2656 
Q 3513 2228 3513 1497 
Q 3513 744 3044 326 
Q 2575 -91 1722 -91 
Q 1428 -91 1123 -41 
Q 819 9 494 109 
L 494 744 
Q 775 591 1075 516 
Q 1375 441 1709 441 
Q 2250 441 2565 725 
Q 2881 1009 2881 1497 
Q 2881 1984 2565 2268 
Q 2250 2553 1709 2553 
Q 1456 2553 1204 2497 
Q 953 2441 691 2322 
L 691 4666 
z
" transform="scale(0.015625)"/>
       </defs>
       <use xlink:href="#DejaVuSans-32"/>
       <use xlink:href="#DejaVuSans-35" transform="translate(63.623047 0)"/>
      </g>
     </g>
    </g>
    <g id="xtick_3">
     <g id="line2d_3">
      <g>
       <use xlink:href="#me0cfbecc03" x="145.309091" y="256.32" style="stroke: #000000; stroke-width: 0.8"/>
      </g>
     </g>
     <g id="text_3">
      <!-- 50 -->
      <g transform="translate(138.946591 270.918437) scale(0.1 -0.1)">
       <use xlink:href="#DejaVuSans-35"/>
       <use xlink:href="#DejaVuSans-30" transform="translate(63.623047 0)"/>
      </g>
     </g>
    </g>
    <g id="xtick_4">
     <g id="line2d_4">
      <g>
       <use xlink:href="#me0cfbecc03" x="183.354545" y="256.32" style="stroke: #000000; stroke-width: 0.8"/>
      </g>
     </g>
     <g id="text_4">
      <!-- 75 -->
      <g transform="translate(176.992045 270.918437) scale(0.1 -0.1)">
       <defs>
        <path id="DejaVuSans-37" d="M 525 4666 
L 3525 4666 
L 3525 4397 
L 1831 0 
L 1172 0 
L 2766 4134 
L 525 4134 
L 525 4666 
z
" transform="scale(0.015625)"/>
       </defs>
       <use xlink:href="#DejaVuSans-37"/>
       <use xlink:href="#DejaVuSans-35" transform="translate(63.623047 0)"/>
      </g>
     </g>
    </g>
    <g id="xtick_5">
     <g id="line2d_5">
      <g>
       <use xlink:href="#me0cfbecc03" x="221.4" y="256.32" style="stroke: #000000; stroke-width: 0.8"/>
      </g>
     </g>
     <g id="text_5">
      <!-- 100 -->
      <g transform="translate(211.85625 270.918437) scale(0.1 -0.1)">
       <defs>
        <path id="DejaVuSans-31" d="M 794 531 
L 1825 531 
L 1825 4091 
L 703 3866 
L 703 4441 
L 1819 4666 
L 2450 4666 
L 2450 531 
L 3481 531 
L 3481 0 
L 794 0 
L 794 531 
z
" transform="scale(0.015625)"/>
       </defs>
       <use xlink:href="#DejaVuSans-31"/>
       <use xlink:href="#DejaVuSans-30" transform="translate(63.623047 0)"/>
       <use xlink:href="#DejaVuSans-30" transform="translate(127.246094 0)"/>
      </g>
     </g>
    </g>
    <g id="xtick_6">
     <g id="line2d_6">
      <g>
       <use xlink:href="#me0cfbecc03" x="259.445455" y="256.32" style="stroke: #000000; stroke-width: 0.8"/>
      </g>
     </g>
     <g id="text_6">
      <!-- 125 -->
      <g transform="translate(249.901705 270.918437) scale(0.1 -0.1)">
       <use xlink:href="#DejaVuSans-31"/>
       <use xlink:href="#DejaVuSans-32" transform="translate(63.623047 0)"/>
       <use xlink:href="#DejaVuSans-35" transform="translate(127.246094 0)"/>
      </g>
     </g>
    </g>
    <g id="xtick_7">
     <g id="line2d_7">
      <g>
       <use xlink:href="#me0cfbecc03" x="297.490909" y="256.32" style="stroke: #000000; stroke-width: 0.8"/>
      </g>
     </g>
     <g id="text_7">
      <!-- 150 -->
      <g transform="translate(287.947159 270.918437) scale(0.1 -0.1)">
       <use xlink:href="#DejaVuSans-31"/>
       <use xlink:href="#DejaVuSans-35" transform="translate(63.623047 0)"/>
       <use xlink:href="#DejaVuSans-30" transform="translate(127.246094 0)"/>
      </g>
     </g>
    </g>
    <g id="xtick_8">
     <g id="line2d_8">
      <g>
       <use xlink:href="#me0cfbecc03" x="335.536364" y="256.32" style="stroke: #000000; stroke-width: 0.8"/>
      </g>
     </g>
     <g id="text_8">
      <!-- 175 -->
      <g transform="translate(325.992614 270.918437) scale(0.1 -0.1)">
       <use xlink:href="#DejaVuSans-31"/>
       <use xlink:href="#DejaVuSans-37" transform="translate(63.623047 0)"/>
       <use xlink:href="#DejaVuSans-35" transform="translate(127.246094 0)"/>
      </g>
     </g>
    </g>
    <g id="xtick_9">
     <g id="line2d_9">
      <g>
       <use xlink:href="#me0cfbecc03" x="373.581818" y="256.32" style="stroke: #000000; stroke-width: 0.8"/>
      </g>
     </g>
     <g id="text_9">
      <!-- 200 -->
      <g transform="translate(364.038068 270.918437) scale(0.1 -0.1)">
       <use xlink:href="#DejaVuSans-32"/>
       <use xlink:href="#DejaVuSans-30" transform="translate(63.623047 0)"/>
       <use xlink:href="#DejaVuSans-30" transform="translate(127.246094 0)"/>
      </g>
     </g>
    </g>
    <g id="text_10">
     <!-- Number of epochs -->
     <g transform="translate(175.483594 284.596563) scale(0.1 -0.1)">
      <defs>
       <path id="DejaVuSans-4e" d="M 628 4666 
L 1478 4666 
L 3547 763 
L 3547 4666 
L 4159 4666 
L 4159 0 
L 3309 0 
L 1241 3903 
L 1241 0 
L 628 0 
L 628 4666 
z
" transform="scale(0.015625)"/>
       <path id="DejaVuSans-75" d="M 544 1381 
L 544 3500 
L 1119 3500 
L 1119 1403 
Q 1119 906 1312 657 
Q 1506 409 1894 409 
Q 2359 409 2629 706 
Q 2900 1003 2900 1516 
L 2900 3500 
L 3475 3500 
L 3475 0 
L 2900 0 
L 2900 538 
Q 2691 219 2414 64 
Q 2138 -91 1772 -91 
Q 1169 -91 856 284 
Q 544 659 544 1381 
z
M 1991 3584 
L 1991 3584 
z
" transform="scale(0.015625)"/>
       <path id="DejaVuSans-6d" d="M 3328 2828 
Q 3544 3216 3844 3400 
Q 4144 3584 4550 3584 
Q 5097 3584 5394 3201 
Q 5691 2819 5691 2113 
L 5691 0 
L 5113 0 
L 5113 2094 
Q 5113 2597 4934 2840 
Q 4756 3084 4391 3084 
Q 3944 3084 3684 2787 
Q 3425 2491 3425 1978 
L 3425 0 
L 2847 0 
L 2847 2094 
Q 2847 2600 2669 2842 
Q 2491 3084 2119 3084 
Q 1678 3084 1418 2786 
Q 1159 2488 1159 1978 
L 1159 0 
L 581 0 
L 581 3500 
L 1159 3500 
L 1159 2956 
Q 1356 3278 1631 3431 
Q 1906 3584 2284 3584 
Q 2666 3584 2933 3390 
Q 3200 3197 3328 2828 
z
" transform="scale(0.015625)"/>
       <path id="DejaVuSans-62" d="M 3116 1747 
Q 3116 2381 2855 2742 
Q 2594 3103 2138 3103 
Q 1681 3103 1420 2742 
Q 1159 2381 1159 1747 
Q 1159 1113 1420 752 
Q 1681 391 2138 391 
Q 2594 391 2855 752 
Q 3116 1113 3116 1747 
z
M 1159 2969 
Q 1341 3281 1617 3432 
Q 1894 3584 2278 3584 
Q 2916 3584 3314 3078 
Q 3713 2572 3713 1747 
Q 3713 922 3314 415 
Q 2916 -91 2278 -91 
Q 1894 -91 1617 61 
Q 1341 213 1159 525 
L 1159 0 
L 581 0 
L 581 4863 
L 1159 4863 
L 1159 2969 
z
" transform="scale(0.015625)"/>
       <path id="DejaVuSans-65" d="M 3597 1894 
L 3597 1613 
L 953 1613 
Q 991 1019 1311 708 
Q 1631 397 2203 397 
Q 2534 397 2845 478 
Q 3156 559 3463 722 
L 3463 178 
Q 3153 47 2828 -22 
Q 2503 -91 2169 -91 
Q 1331 -91 842 396 
Q 353 884 353 1716 
Q 353 2575 817 3079 
Q 1281 3584 2069 3584 
Q 2775 3584 3186 3129 
Q 3597 2675 3597 1894 
z
M 3022 2063 
Q 3016 2534 2758 2815 
Q 2500 3097 2075 3097 
Q 1594 3097 1305 2825 
Q 1016 2553 972 2059 
L 3022 2063 
z
" transform="scale(0.015625)"/>
       <path id="DejaVuSans-72" d="M 2631 2963 
Q 2534 3019 2420 3045 
Q 2306 3072 2169 3072 
Q 1681 3072 1420 2755 
Q 1159 2438 1159 1844 
L 1159 0 
L 581 0 
L 581 3500 
L 1159 3500 
L 1159 2956 
Q 1341 3275 1631 3429 
Q 1922 3584 2338 3584 
Q 2397 3584 2469 3576 
Q 2541 3569 2628 3553 
L 2631 2963 
z
" transform="scale(0.015625)"/>
       <path id="DejaVuSans-20" transform="scale(0.015625)"/>
       <path id="DejaVuSans-6f" d="M 1959 3097 
Q 1497 3097 1228 2736 
Q 959 2375 959 1747 
Q 959 1119 1226 758 
Q 1494 397 1959 397 
Q 2419 397 2687 759 
Q 2956 1122 2956 1747 
Q 2956 2369 2687 2733 
Q 2419 3097 1959 3097 
z
M 1959 3584 
Q 2709 3584 3137 3096 
Q 3566 2609 3566 1747 
Q 3566 888 3137 398 
Q 2709 -91 1959 -91 
Q 1206 -91 779 398 
Q 353 888 353 1747 
Q 353 2609 779 3096 
Q 1206 3584 1959 3584 
z
" transform="scale(0.015625)"/>
       <path id="DejaVuSans-66" d="M 2375 4863 
L 2375 4384 
L 1825 4384 
Q 1516 4384 1395 4259 
Q 1275 4134 1275 3809 
L 1275 3500 
L 2222 3500 
L 2222 3053 
L 1275 3053 
L 1275 0 
L 697 0 
L 697 3053 
L 147 3053 
L 147 3500 
L 697 3500 
L 697 3744 
Q 697 4328 969 4595 
Q 1241 4863 1831 4863 
L 2375 4863 
z
" transform="scale(0.015625)"/>
       <path id="DejaVuSans-70" d="M 1159 525 
L 1159 -1331 
L 581 -1331 
L 581 3500 
L 1159 3500 
L 1159 2969 
Q 1341 3281 1617 3432 
Q 1894 3584 2278 3584 
Q 2916 3584 3314 3078 
Q 3713 2572 3713 1747 
Q 3713 922 3314 415 
Q 2916 -91 2278 -91 
Q 1894 -91 1617 61 
Q 1341 213 1159 525 
z
M 3116 1747 
Q 3116 2381 2855 2742 
Q 2594 3103 2138 3103 
Q 1681 3103 1420 2742 
Q 1159 2381 1159 1747 
Q 1159 1113 1420 752 
Q 1681 391 2138 391 
Q 2594 391 2855 752 
Q 3116 1113 3116 1747 
z
" transform="scale(0.015625)"/>
       <path id="DejaVuSans-63" d="M 3122 3366 
L 3122 2828 
Q 2878 2963 2633 3030 
Q 2388 3097 2138 3097 
Q 1578 3097 1268 2742 
Q 959 2388 959 1747 
Q 959 1106 1268 751 
Q 1578 397 2138 397 
Q 2388 397 2633 464 
Q 2878 531 3122 666 
L 3122 134 
Q 2881 22 2623 -34 
Q 2366 -91 2075 -91 
Q 1284 -91 818 406 
Q 353 903 353 1747 
Q 353 2603 823 3093 
Q 1294 3584 2113 3584 
Q 2378 3584 2631 3529 
Q 2884 3475 3122 3366 
z
" transform="scale(0.015625)"/>
       <path id="DejaVuSans-68" d="M 3513 2113 
L 3513 0 
L 2938 0 
L 2938 2094 
Q 2938 2591 2744 2837 
Q 2550 3084 2163 3084 
Q 1697 3084 1428 2787 
Q 1159 2491 1159 1978 
L 1159 0 
L 581 0 
L 581 4863 
L 1159 4863 
L 1159 2956 
Q 1366 3272 1645 3428 
Q 1925 3584 2291 3584 
Q 2894 3584 3203 3211 
Q 3513 2838 3513 2113 
z
" transform="scale(0.015625)"/>
       <path id="DejaVuSans-73" d="M 2834 3397 
L 2834 2853 
Q 2591 2978 2328 3040 
Q 2066 3103 1784 3103 
Q 1356 3103 1142 2972 
Q 928 2841 928 2578 
Q 928 2378 1081 2264 
Q 1234 2150 1697 2047 
L 1894 2003 
Q 2506 1872 2764 1633 
Q 3022 1394 3022 966 
Q 3022 478 2636 193 
Q 2250 -91 1575 -91 
Q 1294 -91 989 -36 
Q 684 19 347 128 
L 347 722 
Q 666 556 975 473 
Q 1284 391 1588 391 
Q 1994 391 2212 530 
Q 2431 669 2431 922 
Q 2431 1156 2273 1281 
Q 2116 1406 1581 1522 
L 1381 1569 
Q 847 1681 609 1914 
Q 372 2147 372 2553 
Q 372 3047 722 3315 
Q 1072 3584 1716 3584 
Q 2034 3584 2315 3537 
Q 2597 3491 2834 3397 
z
" transform="scale(0.015625)"/>
      </defs>
      <use xlink:href="#DejaVuSans-4e"/>
      <use xlink:href="#DejaVuSans-75" transform="translate(74.804688 0)"/>
      <use xlink:href="#DejaVuSans-6d" transform="translate(138.183594 0)"/>
      <use xlink:href="#DejaVuSans-62" transform="translate(235.595703 0)"/>
      <use xlink:href="#DejaVuSans-65" transform="translate(299.072266 0)"/>
      <use xlink:href="#DejaVuSans-72" transform="translate(360.595703 0)"/>
      <use xlink:href="#DejaVuSans-20" transform="translate(401.708984 0)"/>
      <use xlink:href="#DejaVuSans-6f" transform="translate(433.496094 0)"/>
      <use xlink:href="#DejaVuSans-66" transform="translate(494.677734 0)"/>
      <use xlink:href="#DejaVuSans-20" transform="translate(529.882812 0)"/>
      <use xlink:href="#DejaVuSans-65" transform="translate(561.669922 0)"/>
      <use xlink:href="#DejaVuSans-70" transform="translate(623.193359 0)"/>
      <use xlink:href="#DejaVuSans-6f" transform="translate(686.669922 0)"/>
      <use xlink:href="#DejaVuSans-63" transform="translate(747.851562 0)"/>
      <use xlink:href="#DejaVuSans-68" transform="translate(802.832031 0)"/>
      <use xlink:href="#DejaVuSans-73" transform="translate(866.210938 0)"/>
     </g>
    </g>
   </g>
   <g id="matplotlib.axis_2">
    <g id="ytick_1">
     <g id="line2d_10">
      <defs>
       <path id="m5fd0036180" d="M 0 0 
L -3.5 0 
" style="stroke: #000000; stroke-width: 0.8"/>
      </defs>
      <g>
       <use xlink:href="#m5fd0036180" x="54" y="244.570394" style="stroke: #000000; stroke-width: 0.8"/>
      </g>
     </g>
     <g id="text_11">
      <!-- 12 -->
      <g transform="translate(34.275 248.369613) scale(0.1 -0.1)">
       <use xlink:href="#DejaVuSans-31"/>
       <use xlink:href="#DejaVuSans-32" transform="translate(63.623047 0)"/>
      </g>
     </g>
    </g>
    <g id="ytick_2">
     <g id="line2d_11">
      <g>
       <use xlink:href="#m5fd0036180" x="54" y="203.064074" style="stroke: #000000; stroke-width: 0.8"/>
      </g>
     </g>
     <g id="text_12">
      <!-- 14 -->
      <g transform="translate(34.275 206.863292) scale(0.1 -0.1)">
       <defs>
        <path id="DejaVuSans-34" d="M 2419 4116 
L 825 1625 
L 2419 1625 
L 2419 4116 
z
M 2253 4666 
L 3047 4666 
L 3047 1625 
L 3713 1625 
L 3713 1100 
L 3047 1100 
L 3047 0 
L 2419 0 
L 2419 1100 
L 313 1100 
L 313 1709 
L 2253 4666 
z
" transform="scale(0.015625)"/>
       </defs>
       <use xlink:href="#DejaVuSans-31"/>
       <use xlink:href="#DejaVuSans-34" transform="translate(63.623047 0)"/>
      </g>
     </g>
    </g>
    <g id="ytick_3">
     <g id="line2d_12">
      <g>
       <use xlink:href="#m5fd0036180" x="54" y="161.557753" style="stroke: #000000; stroke-width: 0.8"/>
      </g>
     </g>
     <g id="text_13">
      <!-- 16 -->
      <g transform="translate(34.275 165.356972) scale(0.1 -0.1)">
       <defs>
        <path id="DejaVuSans-36" d="M 2113 2584 
Q 1688 2584 1439 2293 
Q 1191 2003 1191 1497 
Q 1191 994 1439 701 
Q 1688 409 2113 409 
Q 2538 409 2786 701 
Q 3034 994 3034 1497 
Q 3034 2003 2786 2293 
Q 2538 2584 2113 2584 
z
M 3366 4563 
L 3366 3988 
Q 3128 4100 2886 4159 
Q 2644 4219 2406 4219 
Q 1781 4219 1451 3797 
Q 1122 3375 1075 2522 
Q 1259 2794 1537 2939 
Q 1816 3084 2150 3084 
Q 2853 3084 3261 2657 
Q 3669 2231 3669 1497 
Q 3669 778 3244 343 
Q 2819 -91 2113 -91 
Q 1303 -91 875 529 
Q 447 1150 447 2328 
Q 447 3434 972 4092 
Q 1497 4750 2381 4750 
Q 2619 4750 2861 4703 
Q 3103 4656 3366 4563 
z
" transform="scale(0.015625)"/>
       </defs>
       <use xlink:href="#DejaVuSans-31"/>
       <use xlink:href="#DejaVuSans-36" transform="translate(63.623047 0)"/>
      </g>
     </g>
    </g>
    <g id="ytick_4">
     <g id="line2d_13">
      <g>
       <use xlink:href="#m5fd0036180" x="54" y="120.051432" style="stroke: #000000; stroke-width: 0.8"/>
      </g>
     </g>
     <g id="text_14">
      <!-- 18 -->
      <g transform="translate(34.275 123.850651) scale(0.1 -0.1)">
       <defs>
        <path id="DejaVuSans-38" d="M 2034 2216 
Q 1584 2216 1326 1975 
Q 1069 1734 1069 1313 
Q 1069 891 1326 650 
Q 1584 409 2034 409 
Q 2484 409 2743 651 
Q 3003 894 3003 1313 
Q 3003 1734 2745 1975 
Q 2488 2216 2034 2216 
z
M 1403 2484 
Q 997 2584 770 2862 
Q 544 3141 544 3541 
Q 544 4100 942 4425 
Q 1341 4750 2034 4750 
Q 2731 4750 3128 4425 
Q 3525 4100 3525 3541 
Q 3525 3141 3298 2862 
Q 3072 2584 2669 2484 
Q 3125 2378 3379 2068 
Q 3634 1759 3634 1313 
Q 3634 634 3220 271 
Q 2806 -91 2034 -91 
Q 1263 -91 848 271 
Q 434 634 434 1313 
Q 434 1759 690 2068 
Q 947 2378 1403 2484 
z
M 1172 3481 
Q 1172 3119 1398 2916 
Q 1625 2713 2034 2713 
Q 2441 2713 2670 2916 
Q 2900 3119 2900 3481 
Q 2900 3844 2670 4047 
Q 2441 4250 2034 4250 
Q 1625 4250 1398 4047 
Q 1172 3844 1172 3481 
z
" transform="scale(0.015625)"/>
       </defs>
       <use xlink:href="#DejaVuSans-31"/>
       <use xlink:href="#DejaVuSans-38" transform="translate(63.623047 0)"/>
      </g>
     </g>
    </g>
    <g id="ytick_5">
     <g id="line2d_14">
      <g>
       <use xlink:href="#m5fd0036180" x="54" y="78.545111" style="stroke: #000000; stroke-width: 0.8"/>
      </g>
     </g>
     <g id="text_15">
      <!-- 20 -->
      <g transform="translate(34.275 82.34433) scale(0.1 -0.1)">
       <use xlink:href="#DejaVuSans-32"/>
       <use xlink:href="#DejaVuSans-30" transform="translate(63.623047 0)"/>
      </g>
     </g>
    </g>
    <g id="ytick_6">
     <g id="line2d_15">
      <g>
       <use xlink:href="#m5fd0036180" x="54" y="37.03879" style="stroke: #000000; stroke-width: 0.8"/>
      </g>
     </g>
     <g id="text_16">
      <!-- 22 -->
      <g transform="translate(34.275 40.838009) scale(0.1 -0.1)">
       <use xlink:href="#DejaVuSans-32"/>
       <use xlink:href="#DejaVuSans-32" transform="translate(63.623047 0)"/>
      </g>
     </g>
    </g>
    <g id="text_17">
     <!-- Test PSNR (dB) -->
     <g transform="translate(28.195312 182.373594) rotate(-90) scale(0.1 -0.1)">
      <defs>
       <path id="DejaVuSans-54" d="M -19 4666 
L 3928 4666 
L 3928 4134 
L 2272 4134 
L 2272 0 
L 1638 0 
L 1638 4134 
L -19 4134 
L -19 4666 
z
" transform="scale(0.015625)"/>
       <path id="DejaVuSans-74" d="M 1172 4494 
L 1172 3500 
L 2356 3500 
L 2356 3053 
L 1172 3053 
L 1172 1153 
Q 1172 725 1289 603 
Q 1406 481 1766 481 
L 2356 481 
L 2356 0 
L 1766 0 
Q 1100 0 847 248 
Q 594 497 594 1153 
L 594 3053 
L 172 3053 
L 172 3500 
L 594 3500 
L 594 4494 
L 1172 4494 
z
" transform="scale(0.015625)"/>
       <path id="DejaVuSans-50" d="M 1259 4147 
L 1259 2394 
L 2053 2394 
Q 2494 2394 2734 2622 
Q 2975 2850 2975 3272 
Q 2975 3691 2734 3919 
Q 2494 4147 2053 4147 
L 1259 4147 
z
M 628 4666 
L 2053 4666 
Q 2838 4666 3239 4311 
Q 3641 3956 3641 3272 
Q 3641 2581 3239 2228 
Q 2838 1875 2053 1875 
L 1259 1875 
L 1259 0 
L 628 0 
L 628 4666 
z
" transform="scale(0.015625)"/>
       <path id="DejaVuSans-53" d="M 3425 4513 
L 3425 3897 
Q 3066 4069 2747 4153 
Q 2428 4238 2131 4238 
Q 1616 4238 1336 4038 
Q 1056 3838 1056 3469 
Q 1056 3159 1242 3001 
Q 1428 2844 1947 2747 
L 2328 2669 
Q 3034 2534 3370 2195 
Q 3706 1856 3706 1288 
Q 3706 609 3251 259 
Q 2797 -91 1919 -91 
Q 1588 -91 1214 -16 
Q 841 59 441 206 
L 441 856 
Q 825 641 1194 531 
Q 1563 422 1919 422 
Q 2459 422 2753 634 
Q 3047 847 3047 1241 
Q 3047 1584 2836 1778 
Q 2625 1972 2144 2069 
L 1759 2144 
Q 1053 2284 737 2584 
Q 422 2884 422 3419 
Q 422 4038 858 4394 
Q 1294 4750 2059 4750 
Q 2388 4750 2728 4690 
Q 3069 4631 3425 4513 
z
" transform="scale(0.015625)"/>
       <path id="DejaVuSans-52" d="M 2841 2188 
Q 3044 2119 3236 1894 
Q 3428 1669 3622 1275 
L 4263 0 
L 3584 0 
L 2988 1197 
Q 2756 1666 2539 1819 
Q 2322 1972 1947 1972 
L 1259 1972 
L 1259 0 
L 628 0 
L 628 4666 
L 2053 4666 
Q 2853 4666 3247 4331 
Q 3641 3997 3641 3322 
Q 3641 2881 3436 2590 
Q 3231 2300 2841 2188 
z
M 1259 4147 
L 1259 2491 
L 2053 2491 
Q 2509 2491 2742 2702 
Q 2975 2913 2975 3322 
Q 2975 3731 2742 3939 
Q 2509 4147 2053 4147 
L 1259 4147 
z
" transform="scale(0.015625)"/>
       <path id="DejaVuSans-28" d="M 1984 4856 
Q 1566 4138 1362 3434 
Q 1159 2731 1159 2009 
Q 1159 1288 1364 580 
Q 1569 -128 1984 -844 
L 1484 -844 
Q 1016 -109 783 600 
Q 550 1309 550 2009 
Q 550 2706 781 3412 
Q 1013 4119 1484 4856 
L 1984 4856 
z
" transform="scale(0.015625)"/>
       <path id="DejaVuSans-64" d="M 2906 2969 
L 2906 4863 
L 3481 4863 
L 3481 0 
L 2906 0 
L 2906 525 
Q 2725 213 2448 61 
Q 2172 -91 1784 -91 
Q 1150 -91 751 415 
Q 353 922 353 1747 
Q 353 2572 751 3078 
Q 1150 3584 1784 3584 
Q 2172 3584 2448 3432 
Q 2725 3281 2906 2969 
z
M 947 1747 
Q 947 1113 1208 752 
Q 1469 391 1925 391 
Q 2381 391 2643 752 
Q 2906 1113 2906 1747 
Q 2906 2381 2643 2742 
Q 2381 3103 1925 3103 
Q 1469 3103 1208 2742 
Q 947 2381 947 1747 
z
" transform="scale(0.015625)"/>
       <path id="DejaVuSans-42" d="M 1259 2228 
L 1259 519 
L 2272 519 
Q 2781 519 3026 730 
Q 3272 941 3272 1375 
Q 3272 1813 3026 2020 
Q 2781 2228 2272 2228 
L 1259 2228 
z
M 1259 4147 
L 1259 2741 
L 2194 2741 
Q 2656 2741 2882 2914 
Q 3109 3088 3109 3444 
Q 3109 3797 2882 3972 
Q 2656 4147 2194 4147 
L 1259 4147 
z
M 628 4666 
L 2241 4666 
Q 2963 4666 3353 4366 
Q 3744 4066 3744 3513 
Q 3744 3084 3544 2831 
Q 3344 2578 2956 2516 
Q 3422 2416 3680 2098 
Q 3938 1781 3938 1306 
Q 3938 681 3513 340 
Q 3088 0 2303 0 
L 628 0 
L 628 4666 
z
" transform="scale(0.015625)"/>
       <path id="DejaVuSans-29" d="M 513 4856 
L 1013 4856 
Q 1481 4119 1714 3412 
Q 1947 2706 1947 2009 
Q 1947 1309 1714 600 
Q 1481 -109 1013 -844 
L 513 -844 
Q 928 -128 1133 580 
Q 1338 1288 1338 2009 
Q 1338 2731 1133 3434 
Q 928 4138 513 4856 
z
" transform="scale(0.015625)"/>
      </defs>
      <use xlink:href="#DejaVuSans-54"/>
      <use xlink:href="#DejaVuSans-65" transform="translate(44.083984 0)"/>
      <use xlink:href="#DejaVuSans-73" transform="translate(105.607422 0)"/>
      <use xlink:href="#DejaVuSans-74" transform="translate(157.707031 0)"/>
      <use xlink:href="#DejaVuSans-20" transform="translate(196.916016 0)"/>
      <use xlink:href="#DejaVuSans-50" transform="translate(228.703125 0)"/>
      <use xlink:href="#DejaVuSans-53" transform="translate(289.005859 0)"/>
      <use xlink:href="#DejaVuSans-4e" transform="translate(352.482422 0)"/>
      <use xlink:href="#DejaVuSans-52" transform="translate(427.287109 0)"/>
      <use xlink:href="#DejaVuSans-20" transform="translate(496.769531 0)"/>
      <use xlink:href="#DejaVuSans-28" transform="translate(528.556641 0)"/>
      <use xlink:href="#DejaVuSans-64" transform="translate(567.570312 0)"/>
      <use xlink:href="#DejaVuSans-42" transform="translate(631.046875 0)"/>
      <use xlink:href="#DejaVuSans-29" transform="translate(699.650391 0)"/>
     </g>
    </g>
   </g>
   <g id="line2d_16">
    <path d="M 69.218182 160.265869 
L 70.74 150.558031 
L 72.261818 148.02217 
L 73.783636 141.874309 
L 75.305455 141.710183 
L 76.827273 138.31777 
L 78.349091 212.145327 
L 79.870909 145.954932 
L 81.392727 130.335116 
L 84.436364 114.020393 
L 85.958182 110.626161 
L 87.48 107.866434 
L 90.523636 103.544953 
L 92.045455 246.24 
L 93.567273 157.238098 
L 95.089091 156.230459 
L 96.610909 128.804583 
L 99.654545 116.685528 
L 101.176364 115.151879 
L 102.698182 110.999422 
L 104.22 108.399614 
L 105.741818 106.342673 
L 107.263636 104.572969 
L 108.785455 103.566878 
L 113.350909 99.062424 
L 114.872727 99.422277 
L 116.394545 98.254452 
L 117.916364 98.467721 
L 119.438182 96.001162 
L 120.96 96.67816 
L 122.481818 95.8259 
L 124.003636 93.575225 
L 125.525455 93.164377 
L 127.047273 91.763942 
L 128.569091 90.906573 
L 130.090909 90.673745 
L 131.612727 89.317509 
L 133.134545 89.216346 
L 134.656364 88.178003 
L 136.178182 90.922617 
L 137.7 88.216463 
L 139.221818 87.054846 
L 140.743636 86.396334 
L 142.265455 87.144183 
L 143.787273 85.439611 
L 145.309091 85.46391 
L 146.830909 84.411335 
L 148.352727 84.568323 
L 149.874545 83.625364 
L 151.396364 84.039442 
L 154.44 82.917901 
L 155.961818 82.780813 
L 157.483636 81.290344 
L 159.005455 81.187411 
L 160.527273 80.590339 
L 162.049091 80.481894 
L 163.570909 80.035324 
L 165.092727 79.175011 
L 166.614545 79.493337 
L 168.136364 78.674811 
L 169.658182 78.27066 
L 172.701818 77.171092 
L 174.223636 78.147342 
L 175.745455 77.163113 
L 177.267273 76.367438 
L 178.789091 76.637214 
L 180.310909 76.086023 
L 181.832727 75.969583 
L 183.354545 74.725732 
L 184.876364 75.159868 
L 186.398182 74.076922 
L 187.92 73.884479 
L 189.441818 73.250872 
L 190.963636 73.123437 
L 192.485455 72.73624 
L 194.007273 73.076276 
L 195.529091 72.429913 
L 197.050909 71.367116 
L 198.572727 70.813595 
L 201.616364 70.417046 
L 203.138182 70.359635 
L 206.181818 69.335597 
L 207.703636 69.053123 
L 209.225455 68.633159 
L 210.747273 68.920134 
L 212.269091 68.877018 
L 213.790909 67.648699 
L 215.312727 67.159936 
L 218.356364 66.596044 
L 219.878182 67.308146 
L 221.4 66.734172 
L 222.921818 66.594985 
L 224.443636 65.713499 
L 225.965455 66.031511 
L 227.487273 65.496904 
L 229.009091 64.542718 
L 230.530909 64.938948 
L 232.052727 64.673493 
L 233.574545 64.540096 
L 235.096364 63.40992 
L 236.618182 63.540717 
L 238.14 63.365243 
L 239.661818 62.941721 
L 241.183636 62.655655 
L 242.705455 62.641817 
L 244.227273 62.444606 
L 245.749091 62.485326 
L 247.270909 62.650882 
L 248.792727 61.754582 
L 250.314545 61.302601 
L 251.836364 61.92345 
L 253.358182 61.51813 
L 256.401818 61.30536 
L 257.923636 60.680491 
L 259.445455 60.478473 
L 262.489091 59.69781 
L 264.010909 60.021594 
L 265.532727 59.629131 
L 267.054545 59.365164 
L 268.576364 58.781834 
L 270.098182 59.045315 
L 271.62 58.49491 
L 273.141818 58.569991 
L 274.663636 57.864619 
L 276.185455 58.086855 
L 277.707273 58.003175 
L 279.229091 57.295741 
L 280.750909 57.166565 
L 282.272727 56.860726 
L 283.794545 56.251824 
L 285.316364 56.349063 
L 286.838182 56.585432 
L 288.36 56.404516 
L 289.881818 55.72581 
L 291.403636 55.489692 
L 292.925455 55.475952 
L 294.447273 56.135006 
L 295.969091 54.983046 
L 297.490909 55.014942 
L 299.012727 54.693534 
L 300.534545 55.482215 
L 302.056364 54.36777 
L 303.578182 54.247361 
L 305.1 53.641434 
L 306.621818 54.208054 
L 308.143636 53.302363 
L 309.665455 53.187441 
L 311.187273 52.775903 
L 314.230909 52.233439 
L 317.274545 51.228168 
L 318.796364 51.480608 
L 320.318182 51.446733 
L 321.84 51.219845 
L 323.361818 50.779501 
L 324.883636 50.57702 
L 326.405455 50.032141 
L 327.927273 50.100443 
L 329.449091 49.540548 
L 330.970909 49.489467 
L 332.492727 49.276509 
L 334.014545 49.523862 
L 335.536364 48.91368 
L 337.058182 49.104803 
L 340.101818 48.235327 
L 341.623636 48.259798 
L 344.667273 47.583134 
L 346.189091 47.843092 
L 349.232727 47.233396 
L 350.754545 47.140027 
L 352.276364 46.934737 
L 353.798182 47.128305 
L 356.841818 47.206841 
L 358.363636 46.745177 
L 359.885455 46.151126 
L 361.407273 46.143154 
L 362.929091 45.83471 
L 364.450909 45.658343 
L 365.972727 45.779855 
L 369.016364 44.830115 
L 370.538182 45.141641 
L 372.06 44.64 
L 373.581818 45.221399 
L 373.581818 45.221399 
" clip-path="url(#p9bba9e2e58)" style="fill: none; stroke: #1f77b4; stroke-width: 1.5; stroke-linecap: square"/>
   </g>
   <g id="line2d_17">
    <path d="M 69.218182 176.710486 
L 70.74 167.976484 
L 72.261818 150.256462 
L 73.783636 137.754818 
L 75.305455 131.042819 
L 76.827273 135.768158 
L 78.349091 121.690276 
L 79.870909 135.214111 
L 81.392727 113.94782 
L 82.914545 116.916078 
L 84.436364 104.961979 
L 85.958182 107.507114 
L 87.48 121.65687 
L 89.001818 105.055048 
L 90.523636 107.9391 
L 92.045455 96.28987 
L 93.567273 85.642642 
L 95.089091 96.887497 
L 96.610909 89.176739 
L 98.132727 108.176455 
L 99.654545 85.987684 
L 101.176364 89.331414 
L 102.698182 84.466044 
L 104.22 74.216541 
L 105.741818 83.614438 
L 107.263636 79.843813 
L 108.785455 70.764402 
L 110.307273 84.052651 
L 111.829091 91.805932 
L 113.350909 75.370765 
L 114.872727 71.245968 
L 116.394545 72.359446 
L 117.916364 68.728447 
L 119.438182 66.589039 
L 120.96 67.928215 
L 122.481818 70.267271 
L 124.003636 88.412672 
L 125.525455 73.347157 
L 127.047273 73.158621 
L 128.569091 62.433421 
L 130.090909 61.611217 
L 131.612727 64.631216 
L 133.134545 78.792648 
L 134.656364 74.655997 
L 136.178182 79.296535 
L 137.7 70.542447 
L 139.221818 70.559761 
L 140.743636 80.139474 
L 142.265455 63.909567 
L 143.787273 69.614903 
L 145.309091 62.224656 
L 146.830909 88.392317 
L 148.352727 68.530743 
L 149.874545 63.020704 
L 151.396364 70.441124 
L 152.918182 64.731643 
L 154.44 59.53233 
L 155.961818 69.942145 
L 157.483636 75.350527 
L 159.005455 81.427683 
L 160.527273 80.079682 
L 162.049091 62.337351 
L 163.570909 63.17725 
L 165.092727 64.381237 
L 166.614545 78.228456 
L 168.136364 73.678557 
L 169.658182 67.480026 
L 171.18 69.625266 
L 172.701818 76.51823 
L 174.223636 56.180889 
L 175.745455 70.971562 
L 177.267273 57.771511 
L 178.789091 68.787289 
L 180.310909 73.524365 
L 181.832727 67.183693 
L 183.354545 59.289436 
L 184.876364 83.785466 
L 186.398182 67.136178 
L 187.92 63.839071 
L 189.441818 82.460424 
L 190.963636 90.663461 
L 192.485455 80.29405 
L 194.007273 67.876142 
L 195.529091 68.58657 
L 197.050909 60.37389 
L 198.572727 76.457619 
L 200.094545 58.702085 
L 201.616364 77.07958 
L 203.138182 98.628542 
L 204.66 64.826407 
L 206.181818 86.087641 
L 207.703636 62.02563 
L 209.225455 61.714166 
L 210.747273 59.287356 
L 212.269091 61.517498 
L 213.790909 59.172471 
L 215.312727 75.829932 
L 216.834545 58.751001 
L 218.356364 72.132189 
L 219.878182 62.593445 
L 221.4 58.636966 
L 222.921818 62.623238 
L 224.443636 61.873722 
L 225.965455 59.045805 
L 227.487273 62.292616 
L 229.009091 70.7704 
L 230.530909 57.42205 
L 232.052727 60.688764 
L 233.574545 79.381879 
L 235.096364 56.400509 
L 236.618182 50.676075 
L 238.14 54.605449 
L 239.661818 56.756658 
L 241.183636 92.667175 
L 242.705455 76.527666 
L 245.749091 61.981859 
L 247.270909 54.343357 
L 248.792727 59.465284 
L 250.314545 65.760182 
L 251.836364 99.500695 
L 253.358182 70.881137 
L 254.88 58.449619 
L 256.401818 83.922852 
L 257.923636 72.14713 
L 259.445455 70.635186 
L 260.967273 64.241044 
L 262.489091 75.326341 
L 264.010909 70.63519 
L 265.532727 56.232413 
L 267.054545 58.118781 
L 268.576364 52.513118 
L 270.098182 79.631398 
L 271.62 64.847635 
L 273.141818 75.84315 
L 274.663636 62.894204 
L 276.185455 55.591588 
L 277.707273 59.632649 
L 279.229091 54.998991 
L 280.750909 51.9911 
L 282.272727 64.510867 
L 283.794545 74.434484 
L 285.316364 59.261806 
L 286.838182 54.008183 
L 288.36 62.555652 
L 289.881818 53.808189 
L 291.403636 61.863657 
L 292.925455 64.901113 
L 294.447273 74.562563 
L 295.969091 61.683189 
L 297.490909 53.247708 
L 299.012727 81.356206 
L 300.534545 60.841357 
L 302.056364 51.131439 
L 303.578182 60.541684 
L 305.1 91.883592 
L 306.621818 68.722542 
L 308.143636 73.674952 
L 309.665455 73.714215 
L 311.187273 54.872767 
L 312.709091 82.131757 
L 314.230909 54.801929 
L 315.752727 64.369064 
L 317.274545 62.902276 
L 318.796364 64.420307 
L 320.318182 63.439079 
L 321.84 67.812145 
L 323.361818 63.544911 
L 324.883636 109.508199 
L 326.405455 73.137114 
L 327.927273 91.870034 
L 329.449091 75.558092 
L 330.970909 61.114033 
L 332.492727 80.27857 
L 334.014545 59.185442 
L 335.536364 54.559032 
L 337.058182 60.789816 
L 338.58 65.352562 
L 340.101818 61.73818 
L 341.623636 60.611926 
L 343.145455 45.877471 
L 344.667273 54.571192 
L 347.710909 61.782395 
L 349.232727 51.055675 
L 350.754545 101.077761 
L 352.276364 75.350611 
L 353.798182 66.30129 
L 355.32 65.398451 
L 356.841818 51.921407 
L 358.363636 54.091733 
L 359.885455 53.93391 
L 361.407273 54.405192 
L 362.929091 69.66329 
L 364.450909 62.341226 
L 365.972727 56.869523 
L 367.494545 63.78362 
L 369.016364 55.748349 
L 370.538182 74.555112 
L 372.06 68.020658 
L 373.581818 72.953566 
L 373.581818 72.953566 
" clip-path="url(#p9bba9e2e58)" style="fill: none; stroke: #ff7f0e; stroke-width: 1.5; stroke-linecap: square"/>
   </g>
   <g id="line2d_18">
    <path d="M 69.218182 175.785544 
L 70.74 162.322836 
L 72.261818 151.422802 
L 73.783636 144.542422 
L 75.305455 143.701918 
L 76.827273 140.401331 
L 78.349091 137.624061 
L 79.870909 233.359471 
L 81.392727 137.806987 
L 82.914545 128.323547 
L 84.436364 120.127281 
L 87.48 111.874713 
L 89.001818 110.38418 
L 90.523636 107.788031 
L 92.045455 106.786772 
L 93.567273 104.408372 
L 99.654545 99.023898 
L 101.176364 98.653975 
L 102.698182 97.578456 
L 104.22 95.859778 
L 105.741818 94.57336 
L 108.785455 92.761156 
L 113.350909 89.142122 
L 114.872727 88.838117 
L 116.394545 87.561165 
L 117.916364 87.124485 
L 119.438182 85.572172 
L 120.96 85.022371 
L 122.481818 84.304187 
L 124.003636 83.317554 
L 125.525455 82.773076 
L 127.047273 81.689063 
L 128.569091 81.962453 
L 131.612727 80.153588 
L 133.134545 79.670287 
L 134.656364 79.348891 
L 136.178182 78.58611 
L 137.7 78.42119 
L 139.221818 77.782529 
L 140.743636 77.006564 
L 145.309091 75.503203 
L 146.830909 75.026814 
L 148.352727 74.765364 
L 149.874545 74.237907 
L 151.396364 73.476955 
L 152.918182 73.485014 
L 154.44 73.037933 
L 155.961818 72.878698 
L 157.483636 72.251602 
L 159.005455 72.449959 
L 160.527273 71.849918 
L 162.049091 71.79613 
L 163.570909 71.193625 
L 165.092727 70.868404 
L 166.614545 71.107978 
L 168.136364 70.580946 
L 172.701818 70.297504 
L 174.223636 69.900074 
L 177.267273 69.345492 
L 178.789091 69.394269 
L 180.310909 68.929942 
L 181.832727 69.165975 
L 183.354545 68.710301 
L 184.876364 68.999633 
L 186.398182 68.427358 
L 187.92 68.223424 
L 190.963636 68.012185 
L 194.007273 67.307905 
L 195.529091 67.248777 
L 197.050909 67.408322 
L 203.138182 66.709353 
L 204.66 67.007291 
L 206.181818 66.72103 
L 210.747273 66.756163 
L 212.269091 66.540598 
L 213.790909 67.034686 
L 215.312727 66.785301 
L 218.356364 66.839963 
L 219.878182 66.671828 
L 221.4 66.63875 
L 222.921818 66.470423 
L 224.443636 66.55942 
L 227.487273 66.562386 
L 229.009091 66.29557 
L 230.530909 66.45247 
L 232.052727 66.288291 
L 233.574545 66.483908 
L 235.096364 66.315269 
L 236.618182 66.670367 
L 238.14 66.481649 
L 239.661818 66.692413 
L 244.227273 66.755687 
L 247.270909 66.963755 
L 248.792727 66.507753 
L 250.314545 66.871809 
L 251.836364 66.532098 
L 254.88 66.964604 
L 256.401818 66.679987 
L 257.923636 67.06008 
L 260.967273 67.161697 
L 262.489091 66.884812 
L 265.532727 67.4552 
L 267.054545 66.623665 
L 268.576364 67.674682 
L 270.098182 67.426895 
L 273.141818 67.569084 
L 274.663636 67.900416 
L 276.185455 67.737117 
L 279.229091 67.979717 
L 280.750909 68.252549 
L 282.272727 67.932743 
L 285.316364 68.280615 
L 286.838182 68.307988 
L 288.36 68.494576 
L 289.881818 68.51428 
L 291.403636 68.223583 
L 292.925455 68.654952 
L 297.490909 68.93021 
L 299.012727 69.01157 
L 302.056364 69.419907 
L 303.578182 69.113486 
L 306.621818 69.877498 
L 308.143636 69.686988 
L 309.665455 70.078943 
L 311.187273 70.047021 
L 312.709091 70.224605 
L 315.752727 70.156714 
L 317.274545 70.24113 
L 318.796364 70.461782 
L 320.318182 70.562233 
L 321.84 70.49183 
L 323.361818 70.849417 
L 324.883636 70.750928 
L 326.405455 70.951581 
L 329.449091 70.986076 
L 332.492727 71.352965 
L 334.014545 71.182024 
L 335.536364 71.573012 
L 337.058182 71.821857 
L 338.58 71.647379 
L 340.101818 72.072068 
L 341.623636 72.237473 
L 343.145455 71.824147 
L 344.667273 72.201185 
L 347.710909 72.422288 
L 349.232727 72.545177 
L 352.276364 72.438229 
L 353.798182 72.875914 
L 355.32 72.966011 
L 356.841818 73.184319 
L 358.363636 72.966102 
L 362.929091 73.767406 
L 364.450909 73.543618 
L 365.972727 73.575083 
L 369.016364 73.953378 
L 373.581818 74.0185 
L 373.581818 74.0185 
" clip-path="url(#p9bba9e2e58)" style="fill: none; stroke: #2ca02c; stroke-width: 1.5; stroke-linecap: square"/>
   </g>
   <g id="line2d_19">
    <path d="M 69.218182 220.156254 
L 70.74 178.479934 
L 72.261818 166.528732 
L 73.783636 162.432166 
L 75.305455 169.043418 
L 76.827273 150.311906 
L 78.349091 146.84584 
L 79.870909 163.824121 
L 81.392727 141.925696 
L 82.914545 151.242203 
L 84.436364 136.608957 
L 85.958182 137.289724 
L 87.48 134.075797 
L 89.001818 136.771045 
L 90.523636 136.526769 
L 92.045455 133.028535 
L 93.567273 129.217505 
L 95.089091 129.958621 
L 96.610909 125.540274 
L 98.132727 127.914964 
L 99.654545 147.851839 
L 101.176364 126.27071 
L 102.698182 120.657558 
L 104.22 120.344415 
L 105.741818 120.250602 
L 107.263636 120.274032 
L 108.785455 126.494734 
L 110.307273 118.688258 
L 111.829091 132.382612 
L 113.350909 117.543974 
L 114.872727 117.568312 
L 116.394545 115.951911 
L 117.916364 120.623703 
L 119.438182 118.959747 
L 120.96 114.276071 
L 122.481818 119.274189 
L 124.003636 116.39424 
L 125.525455 110.723402 
L 127.047273 111.008756 
L 128.569091 112.862692 
L 130.090909 110.815668 
L 131.612727 113.961696 
L 133.134545 113.157601 
L 134.656364 109.207802 
L 136.178182 109.900941 
L 137.7 115.913585 
L 139.221818 110.417451 
L 140.743636 116.818267 
L 142.265455 120.614167 
L 143.787273 109.950952 
L 145.309091 106.858068 
L 146.830909 110.705751 
L 148.352727 105.248877 
L 149.874545 104.191325 
L 151.396364 114.430495 
L 152.918182 106.739912 
L 154.44 107.9851 
L 155.961818 114.38554 
L 157.483636 110.947052 
L 159.005455 109.896495 
L 160.527273 108.202631 
L 162.049091 115.470626 
L 163.570909 102.551689 
L 165.092727 107.633855 
L 166.614545 104.730274 
L 168.136364 103.959779 
L 169.658182 144.168241 
L 171.18 109.678852 
L 172.701818 114.720698 
L 174.223636 106.001458 
L 175.745455 107.767608 
L 177.267273 103.145538 
L 178.789091 104.279625 
L 180.310909 106.282314 
L 181.832727 102.603428 
L 183.354545 103.763178 
L 184.876364 101.570878 
L 186.398182 103.390942 
L 187.92 106.808213 
L 189.441818 104.72534 
L 190.963636 102.080471 
L 192.485455 103.592926 
L 194.007273 99.979526 
L 195.529091 101.287519 
L 197.050909 101.688714 
L 198.572727 105.504123 
L 200.094545 101.526664 
L 201.616364 115.967603 
L 203.138182 104.100767 
L 204.66 101.577473 
L 206.181818 104.358815 
L 207.703636 100.263423 
L 209.225455 100.891171 
L 210.747273 102.748824 
L 212.269091 107.288663 
L 213.790909 99.808851 
L 215.312727 103.250092 
L 216.834545 100.036484 
L 218.356364 100.44637 
L 219.878182 105.291568 
L 221.4 103.446502 
L 222.921818 102.821239 
L 224.443636 111.136125 
L 225.965455 100.902295 
L 227.487273 98.811752 
L 229.009091 101.481951 
L 230.530909 100.28002 
L 232.052727 98.400049 
L 233.574545 101.288838 
L 235.096364 99.502573 
L 236.618182 105.715257 
L 238.14 109.754876 
L 239.661818 99.840902 
L 241.183636 112.401339 
L 242.705455 100.856455 
L 244.227273 102.799444 
L 245.749091 108.113946 
L 247.270909 98.895129 
L 248.792727 105.410993 
L 250.314545 105.514534 
L 251.836364 108.606864 
L 253.358182 99.799234 
L 254.88 98.969331 
L 256.401818 103.476125 
L 257.923636 97.889143 
L 259.445455 99.004806 
L 260.967273 118.090101 
L 262.489091 99.037795 
L 264.010909 109.897225 
L 265.532727 101.137277 
L 267.054545 98.658299 
L 268.576364 99.115041 
L 270.098182 111.133697 
L 271.62 102.528815 
L 273.141818 97.608959 
L 274.663636 104.787899 
L 276.185455 110.160525 
L 277.707273 104.516385 
L 279.229091 117.314919 
L 280.750909 98.069417 
L 282.272727 100.199011 
L 283.794545 111.643966 
L 285.316364 99.524598 
L 286.838182 96.840039 
L 288.36 98.784964 
L 289.881818 112.654729 
L 291.403636 98.166812 
L 292.925455 101.025363 
L 294.447273 103.028023 
L 295.969091 97.021059 
L 297.490909 99.664324 
L 299.012727 115.961847 
L 300.534545 97.961478 
L 302.056364 100.728736 
L 303.578182 108.747516 
L 305.1 101.516658 
L 306.621818 100.753008 
L 308.143636 97.942836 
L 309.665455 104.120256 
L 311.187273 97.681898 
L 312.709091 99.44033 
L 314.230909 100.81185 
L 315.752727 98.435714 
L 317.274545 97.352379 
L 318.796364 97.684418 
L 320.318182 101.315551 
L 321.84 96.975357 
L 323.361818 97.173224 
L 324.883636 98.635587 
L 326.405455 96.93079 
L 327.927273 106.784773 
L 329.449091 111.405839 
L 330.970909 97.787517 
L 332.492727 99.996732 
L 334.014545 98.529942 
L 335.536364 99.302024 
L 337.058182 149.745669 
L 338.58 110.476025 
L 340.101818 99.389679 
L 341.623636 104.152862 
L 343.145455 98.661221 
L 344.667273 97.470417 
L 346.189091 96.760034 
L 347.710909 100.458238 
L 349.232727 101.25831 
L 350.754545 107.366509 
L 352.276364 95.769633 
L 353.798182 99.448172 
L 355.32 105.114129 
L 356.841818 102.192179 
L 358.363636 96.445091 
L 359.885455 98.088371 
L 361.407273 112.702238 
L 362.929091 110.647357 
L 364.450909 98.560483 
L 365.972727 98.526201 
L 367.494545 98.729078 
L 369.016364 103.958343 
L 370.538182 97.952122 
L 372.06 100.779413 
L 373.581818 101.416889 
L 373.581818 101.416889 
" clip-path="url(#p9bba9e2e58)" style="fill: none; stroke: #d62728; stroke-width: 1.5; stroke-linecap: square"/>
   </g>
   <g id="patch_3">
    <path d="M 54 256.32 
L 54 34.56 
" style="fill: none; stroke: #000000; stroke-width: 0.8; stroke-linejoin: miter; stroke-linecap: square"/>
   </g>
   <g id="patch_4">
    <path d="M 388.8 256.32 
L 388.8 34.56 
" style="fill: none; stroke: #000000; stroke-width: 0.8; stroke-linejoin: miter; stroke-linecap: square"/>
   </g>
   <g id="patch_5">
    <path d="M 54 256.32 
L 388.8 256.32 
" style="fill: none; stroke: #000000; stroke-width: 0.8; stroke-linejoin: miter; stroke-linecap: square"/>
   </g>
   <g id="patch_6">
    <path d="M 54 34.56 
L 388.8 34.56 
" style="fill: none; stroke: #000000; stroke-width: 0.8; stroke-linejoin: miter; stroke-linecap: square"/>
   </g>
   <g id="text_18">
    <!-- CIFAR10 reconstruction with binary codes -->
    <g transform="translate(96.3675 28.56) scale(0.12 -0.12)">
     <defs>
      <path id="DejaVuSans-43" d="M 4122 4306 
L 4122 3641 
Q 3803 3938 3442 4084 
Q 3081 4231 2675 4231 
Q 1875 4231 1450 3742 
Q 1025 3253 1025 2328 
Q 1025 1406 1450 917 
Q 1875 428 2675 428 
Q 3081 428 3442 575 
Q 3803 722 4122 1019 
L 4122 359 
Q 3791 134 3420 21 
Q 3050 -91 2638 -91 
Q 1578 -91 968 557 
Q 359 1206 359 2328 
Q 359 3453 968 4101 
Q 1578 4750 2638 4750 
Q 3056 4750 3426 4639 
Q 3797 4528 4122 4306 
z
" transform="scale(0.015625)"/>
      <path id="DejaVuSans-49" d="M 628 4666 
L 1259 4666 
L 1259 0 
L 628 0 
L 628 4666 
z
" transform="scale(0.015625)"/>
      <path id="DejaVuSans-46" d="M 628 4666 
L 3309 4666 
L 3309 4134 
L 1259 4134 
L 1259 2759 
L 3109 2759 
L 3109 2228 
L 1259 2228 
L 1259 0 
L 628 0 
L 628 4666 
z
" transform="scale(0.015625)"/>
      <path id="DejaVuSans-41" d="M 2188 4044 
L 1331 1722 
L 3047 1722 
L 2188 4044 
z
M 1831 4666 
L 2547 4666 
L 4325 0 
L 3669 0 
L 3244 1197 
L 1141 1197 
L 716 0 
L 50 0 
L 1831 4666 
z
" transform="scale(0.015625)"/>
      <path id="DejaVuSans-6e" d="M 3513 2113 
L 3513 0 
L 2938 0 
L 2938 2094 
Q 2938 2591 2744 2837 
Q 2550 3084 2163 3084 
Q 1697 3084 1428 2787 
Q 1159 2491 1159 1978 
L 1159 0 
L 581 0 
L 581 3500 
L 1159 3500 
L 1159 2956 
Q 1366 3272 1645 3428 
Q 1925 3584 2291 3584 
Q 2894 3584 3203 3211 
Q 3513 2838 3513 2113 
z
" transform="scale(0.015625)"/>
      <path id="DejaVuSans-69" d="M 603 3500 
L 1178 3500 
L 1178 0 
L 603 0 
L 603 3500 
z
M 603 4863 
L 1178 4863 
L 1178 4134 
L 603 4134 
L 603 4863 
z
" transform="scale(0.015625)"/>
      <path id="DejaVuSans-77" d="M 269 3500 
L 844 3500 
L 1563 769 
L 2278 3500 
L 2956 3500 
L 3675 769 
L 4391 3500 
L 4966 3500 
L 4050 0 
L 3372 0 
L 2619 2869 
L 1863 0 
L 1184 0 
L 269 3500 
z
" transform="scale(0.015625)"/>
      <path id="DejaVuSans-61" d="M 2194 1759 
Q 1497 1759 1228 1600 
Q 959 1441 959 1056 
Q 959 750 1161 570 
Q 1363 391 1709 391 
Q 2188 391 2477 730 
Q 2766 1069 2766 1631 
L 2766 1759 
L 2194 1759 
z
M 3341 1997 
L 3341 0 
L 2766 0 
L 2766 531 
Q 2569 213 2275 61 
Q 1981 -91 1556 -91 
Q 1019 -91 701 211 
Q 384 513 384 1019 
Q 384 1609 779 1909 
Q 1175 2209 1959 2209 
L 2766 2209 
L 2766 2266 
Q 2766 2663 2505 2880 
Q 2244 3097 1772 3097 
Q 1472 3097 1187 3025 
Q 903 2953 641 2809 
L 641 3341 
Q 956 3463 1253 3523 
Q 1550 3584 1831 3584 
Q 2591 3584 2966 3190 
Q 3341 2797 3341 1997 
z
" transform="scale(0.015625)"/>
      <path id="DejaVuSans-79" d="M 2059 -325 
Q 1816 -950 1584 -1140 
Q 1353 -1331 966 -1331 
L 506 -1331 
L 506 -850 
L 844 -850 
Q 1081 -850 1212 -737 
Q 1344 -625 1503 -206 
L 1606 56 
L 191 3500 
L 800 3500 
L 1894 763 
L 2988 3500 
L 3597 3500 
L 2059 -325 
z
" transform="scale(0.015625)"/>
     </defs>
     <use xlink:href="#DejaVuSans-43"/>
     <use xlink:href="#DejaVuSans-49" transform="translate(69.824219 0)"/>
     <use xlink:href="#DejaVuSans-46" transform="translate(99.316406 0)"/>
     <use xlink:href="#DejaVuSans-41" transform="translate(147.710938 0)"/>
     <use xlink:href="#DejaVuSans-52" transform="translate(216.119141 0)"/>
     <use xlink:href="#DejaVuSans-31" transform="translate(285.601562 0)"/>
     <use xlink:href="#DejaVuSans-30" transform="translate(349.224609 0)"/>
     <use xlink:href="#DejaVuSans-20" transform="translate(412.847656 0)"/>
     <use xlink:href="#DejaVuSans-72" transform="translate(444.634766 0)"/>
     <use xlink:href="#DejaVuSans-65" transform="translate(483.498047 0)"/>
     <use xlink:href="#DejaVuSans-63" transform="translate(545.021484 0)"/>
     <use xlink:href="#DejaVuSans-6f" transform="translate(600.001953 0)"/>
     <use xlink:href="#DejaVuSans-6e" transform="translate(661.183594 0)"/>
     <use xlink:href="#DejaVuSans-73" transform="translate(724.5625 0)"/>
     <use xlink:href="#DejaVuSans-74" transform="translate(776.662109 0)"/>
     <use xlink:href="#DejaVuSans-72" transform="translate(815.871094 0)"/>
     <use xlink:href="#DejaVuSans-75" transform="translate(856.984375 0)"/>
     <use xlink:href="#DejaVuSans-63" transform="translate(920.363281 0)"/>
     <use xlink:href="#DejaVuSans-74" transform="translate(975.34375 0)"/>
     <use xlink:href="#DejaVuSans-69" transform="translate(1014.552734 0)"/>
     <use xlink:href="#DejaVuSans-6f" transform="translate(1042.335938 0)"/>
     <use xlink:href="#DejaVuSans-6e" transform="translate(1103.517578 0)"/>
     <use xlink:href="#DejaVuSans-20" transform="translate(1166.896484 0)"/>
     <use xlink:href="#DejaVuSans-77" transform="translate(1198.683594 0)"/>
     <use xlink:href="#DejaVuSans-69" transform="translate(1280.470703 0)"/>
     <use xlink:href="#DejaVuSans-74" transform="translate(1308.253906 0)"/>
     <use xlink:href="#DejaVuSans-68" transform="translate(1347.462891 0)"/>
     <use xlink:href="#DejaVuSans-20" transform="translate(1410.841797 0)"/>
     <use xlink:href="#DejaVuSans-62" transform="translate(1442.628906 0)"/>
     <use xlink:href="#DejaVuSans-69" transform="translate(1506.105469 0)"/>
     <use xlink:href="#DejaVuSans-6e" transform="translate(1533.888672 0)"/>
     <use xlink:href="#DejaVuSans-61" transform="translate(1597.267578 0)"/>
     <use xlink:href="#DejaVuSans-72" transform="translate(1658.546875 0)"/>
     <use xlink:href="#DejaVuSans-79" transform="translate(1699.660156 0)"/>
     <use xlink:href="#DejaVuSans-20" transform="translate(1758.839844 0)"/>
     <use xlink:href="#DejaVuSans-63" transform="translate(1790.626953 0)"/>
     <use xlink:href="#DejaVuSans-6f" transform="translate(1845.607422 0)"/>
     <use xlink:href="#DejaVuSans-64" transform="translate(1906.789062 0)"/>
     <use xlink:href="#DejaVuSans-65" transform="translate(1970.265625 0)"/>
     <use xlink:href="#DejaVuSans-73" transform="translate(2031.789062 0)"/>
    </g>
   </g>
   <g id="legend_1">
    <g id="patch_7">
     <path d="M 245.14375 251.32 
L 381.8 251.32 
Q 383.8 251.32 383.8 249.32 
L 383.8 191.6075 
Q 383.8 189.6075 381.8 189.6075 
L 245.14375 189.6075 
Q 243.14375 189.6075 243.14375 191.6075 
L 243.14375 249.32 
Q 243.14375 251.32 245.14375 251.32 
z
" style="fill: #ffffff; opacity: 0.8; stroke: #cccccc; stroke-linejoin: miter"/>
    </g>
    <g id="line2d_20">
     <path d="M 247.14375 197.705938 
L 257.14375 197.705938 
L 267.14375 197.705938 
" style="fill: none; stroke: #1f77b4; stroke-width: 1.5; stroke-linecap: square"/>
    </g>
    <g id="text_19">
     <!-- Improved STE, PSGD -->
     <g transform="translate(275.14375 201.205938) scale(0.1 -0.1)">
      <defs>
       <path id="DejaVuSans-76" d="M 191 3500 
L 800 3500 
L 1894 563 
L 2988 3500 
L 3597 3500 
L 2284 0 
L 1503 0 
L 191 3500 
z
" transform="scale(0.015625)"/>
       <path id="DejaVuSans-45" d="M 628 4666 
L 3578 4666 
L 3578 4134 
L 1259 4134 
L 1259 2753 
L 3481 2753 
L 3481 2222 
L 1259 2222 
L 1259 531 
L 3634 531 
L 3634 0 
L 628 0 
L 628 4666 
z
" transform="scale(0.015625)"/>
       <path id="DejaVuSans-2c" d="M 750 794 
L 1409 794 
L 1409 256 
L 897 -744 
L 494 -744 
L 750 256 
L 750 794 
z
" transform="scale(0.015625)"/>
       <path id="DejaVuSans-47" d="M 3809 666 
L 3809 1919 
L 2778 1919 
L 2778 2438 
L 4434 2438 
L 4434 434 
Q 4069 175 3628 42 
Q 3188 -91 2688 -91 
Q 1594 -91 976 548 
Q 359 1188 359 2328 
Q 359 3472 976 4111 
Q 1594 4750 2688 4750 
Q 3144 4750 3555 4637 
Q 3966 4525 4313 4306 
L 4313 3634 
Q 3963 3931 3569 4081 
Q 3175 4231 2741 4231 
Q 1884 4231 1454 3753 
Q 1025 3275 1025 2328 
Q 1025 1384 1454 906 
Q 1884 428 2741 428 
Q 3075 428 3337 486 
Q 3600 544 3809 666 
z
" transform="scale(0.015625)"/>
       <path id="DejaVuSans-44" d="M 1259 4147 
L 1259 519 
L 2022 519 
Q 2988 519 3436 956 
Q 3884 1394 3884 2338 
Q 3884 3275 3436 3711 
Q 2988 4147 2022 4147 
L 1259 4147 
z
M 628 4666 
L 1925 4666 
Q 3281 4666 3915 4102 
Q 4550 3538 4550 2338 
Q 4550 1131 3912 565 
Q 3275 0 1925 0 
L 628 0 
L 628 4666 
z
" transform="scale(0.015625)"/>
      </defs>
      <use xlink:href="#DejaVuSans-49"/>
      <use xlink:href="#DejaVuSans-6d" transform="translate(29.492188 0)"/>
      <use xlink:href="#DejaVuSans-70" transform="translate(126.904297 0)"/>
      <use xlink:href="#DejaVuSans-72" transform="translate(190.380859 0)"/>
      <use xlink:href="#DejaVuSans-6f" transform="translate(229.244141 0)"/>
      <use xlink:href="#DejaVuSans-76" transform="translate(290.425781 0)"/>
      <use xlink:href="#DejaVuSans-65" transform="translate(349.605469 0)"/>
      <use xlink:href="#DejaVuSans-64" transform="translate(411.128906 0)"/>
      <use xlink:href="#DejaVuSans-20" transform="translate(474.605469 0)"/>
      <use xlink:href="#DejaVuSans-53" transform="translate(506.392578 0)"/>
      <use xlink:href="#DejaVuSans-54" transform="translate(569.869141 0)"/>
      <use xlink:href="#DejaVuSans-45" transform="translate(630.953125 0)"/>
      <use xlink:href="#DejaVuSans-2c" transform="translate(694.136719 0)"/>
      <use xlink:href="#DejaVuSans-20" transform="translate(725.923828 0)"/>
      <use xlink:href="#DejaVuSans-50" transform="translate(757.710938 0)"/>
      <use xlink:href="#DejaVuSans-53" transform="translate(818.013672 0)"/>
      <use xlink:href="#DejaVuSans-47" transform="translate(881.490234 0)"/>
      <use xlink:href="#DejaVuSans-44" transform="translate(958.980469 0)"/>
     </g>
    </g>
    <g id="line2d_21">
     <path d="M 247.14375 212.384062 
L 257.14375 212.384062 
L 267.14375 212.384062 
" style="fill: none; stroke: #ff7f0e; stroke-width: 1.5; stroke-linecap: square"/>
    </g>
    <g id="text_20">
     <!-- Improved STE, Adam -->
     <g transform="translate(275.14375 215.884062) scale(0.1 -0.1)">
      <use xlink:href="#DejaVuSans-49"/>
      <use xlink:href="#DejaVuSans-6d" transform="translate(29.492188 0)"/>
      <use xlink:href="#DejaVuSans-70" transform="translate(126.904297 0)"/>
      <use xlink:href="#DejaVuSans-72" transform="translate(190.380859 0)"/>
      <use xlink:href="#DejaVuSans-6f" transform="translate(229.244141 0)"/>
      <use xlink:href="#DejaVuSans-76" transform="translate(290.425781 0)"/>
      <use xlink:href="#DejaVuSans-65" transform="translate(349.605469 0)"/>
      <use xlink:href="#DejaVuSans-64" transform="translate(411.128906 0)"/>
      <use xlink:href="#DejaVuSans-20" transform="translate(474.605469 0)"/>
      <use xlink:href="#DejaVuSans-53" transform="translate(506.392578 0)"/>
      <use xlink:href="#DejaVuSans-54" transform="translate(569.869141 0)"/>
      <use xlink:href="#DejaVuSans-45" transform="translate(630.953125 0)"/>
      <use xlink:href="#DejaVuSans-2c" transform="translate(694.136719 0)"/>
      <use xlink:href="#DejaVuSans-20" transform="translate(725.923828 0)"/>
      <use xlink:href="#DejaVuSans-41" transform="translate(757.710938 0)"/>
      <use xlink:href="#DejaVuSans-64" transform="translate(824.369141 0)"/>
      <use xlink:href="#DejaVuSans-61" transform="translate(887.845703 0)"/>
      <use xlink:href="#DejaVuSans-6d" transform="translate(949.125 0)"/>
     </g>
    </g>
    <g id="line2d_22">
     <path d="M 247.14375 227.062187 
L 257.14375 227.062187 
L 267.14375 227.062187 
" style="fill: none; stroke: #2ca02c; stroke-width: 1.5; stroke-linecap: square"/>
    </g>
    <g id="text_21">
     <!-- Original STE, PSGD -->
     <g transform="translate(275.14375 230.562187) scale(0.1 -0.1)">
      <defs>
       <path id="DejaVuSans-4f" d="M 2522 4238 
Q 1834 4238 1429 3725 
Q 1025 3213 1025 2328 
Q 1025 1447 1429 934 
Q 1834 422 2522 422 
Q 3209 422 3611 934 
Q 4013 1447 4013 2328 
Q 4013 3213 3611 3725 
Q 3209 4238 2522 4238 
z
M 2522 4750 
Q 3503 4750 4090 4092 
Q 4678 3434 4678 2328 
Q 4678 1225 4090 567 
Q 3503 -91 2522 -91 
Q 1538 -91 948 565 
Q 359 1222 359 2328 
Q 359 3434 948 4092 
Q 1538 4750 2522 4750 
z
" transform="scale(0.015625)"/>
       <path id="DejaVuSans-67" d="M 2906 1791 
Q 2906 2416 2648 2759 
Q 2391 3103 1925 3103 
Q 1463 3103 1205 2759 
Q 947 2416 947 1791 
Q 947 1169 1205 825 
Q 1463 481 1925 481 
Q 2391 481 2648 825 
Q 2906 1169 2906 1791 
z
M 3481 434 
Q 3481 -459 3084 -895 
Q 2688 -1331 1869 -1331 
Q 1566 -1331 1297 -1286 
Q 1028 -1241 775 -1147 
L 775 -588 
Q 1028 -725 1275 -790 
Q 1522 -856 1778 -856 
Q 2344 -856 2625 -561 
Q 2906 -266 2906 331 
L 2906 616 
Q 2728 306 2450 153 
Q 2172 0 1784 0 
Q 1141 0 747 490 
Q 353 981 353 1791 
Q 353 2603 747 3093 
Q 1141 3584 1784 3584 
Q 2172 3584 2450 3431 
Q 2728 3278 2906 2969 
L 2906 3500 
L 3481 3500 
L 3481 434 
z
" transform="scale(0.015625)"/>
       <path id="DejaVuSans-6c" d="M 603 4863 
L 1178 4863 
L 1178 0 
L 603 0 
L 603 4863 
z
" transform="scale(0.015625)"/>
      </defs>
      <use xlink:href="#DejaVuSans-4f"/>
      <use xlink:href="#DejaVuSans-72" transform="translate(78.710938 0)"/>
      <use xlink:href="#DejaVuSans-69" transform="translate(119.824219 0)"/>
      <use xlink:href="#DejaVuSans-67" transform="translate(147.607422 0)"/>
      <use xlink:href="#DejaVuSans-69" transform="translate(211.083984 0)"/>
      <use xlink:href="#DejaVuSans-6e" transform="translate(238.867188 0)"/>
      <use xlink:href="#DejaVuSans-61" transform="translate(302.246094 0)"/>
      <use xlink:href="#DejaVuSans-6c" transform="translate(363.525391 0)"/>
      <use xlink:href="#DejaVuSans-20" transform="translate(391.308594 0)"/>
      <use xlink:href="#DejaVuSans-53" transform="translate(423.095703 0)"/>
      <use xlink:href="#DejaVuSans-54" transform="translate(486.572266 0)"/>
      <use xlink:href="#DejaVuSans-45" transform="translate(547.65625 0)"/>
      <use xlink:href="#DejaVuSans-2c" transform="translate(610.839844 0)"/>
      <use xlink:href="#DejaVuSans-20" transform="translate(642.626953 0)"/>
      <use xlink:href="#DejaVuSans-50" transform="translate(674.414062 0)"/>
      <use xlink:href="#DejaVuSans-53" transform="translate(734.716797 0)"/>
      <use xlink:href="#DejaVuSans-47" transform="translate(798.193359 0)"/>
      <use xlink:href="#DejaVuSans-44" transform="translate(875.683594 0)"/>
     </g>
    </g>
    <g id="line2d_23">
     <path d="M 247.14375 241.740313 
L 257.14375 241.740313 
L 267.14375 241.740313 
" style="fill: none; stroke: #d62728; stroke-width: 1.5; stroke-linecap: square"/>
    </g>
    <g id="text_22">
     <!-- Original STE, Adam -->
     <g transform="translate(275.14375 245.240313) scale(0.1 -0.1)">
      <use xlink:href="#DejaVuSans-4f"/>
      <use xlink:href="#DejaVuSans-72" transform="translate(78.710938 0)"/>
      <use xlink:href="#DejaVuSans-69" transform="translate(119.824219 0)"/>
      <use xlink:href="#DejaVuSans-67" transform="translate(147.607422 0)"/>
      <use xlink:href="#DejaVuSans-69" transform="translate(211.083984 0)"/>
      <use xlink:href="#DejaVuSans-6e" transform="translate(238.867188 0)"/>
      <use xlink:href="#DejaVuSans-61" transform="translate(302.246094 0)"/>
      <use xlink:href="#DejaVuSans-6c" transform="translate(363.525391 0)"/>
      <use xlink:href="#DejaVuSans-20" transform="translate(391.308594 0)"/>
      <use xlink:href="#DejaVuSans-53" transform="translate(423.095703 0)"/>
      <use xlink:href="#DejaVuSans-54" transform="translate(486.572266 0)"/>
      <use xlink:href="#DejaVuSans-45" transform="translate(547.65625 0)"/>
      <use xlink:href="#DejaVuSans-2c" transform="translate(610.839844 0)"/>
      <use xlink:href="#DejaVuSans-20" transform="translate(642.626953 0)"/>
      <use xlink:href="#DejaVuSans-41" transform="translate(674.414062 0)"/>
      <use xlink:href="#DejaVuSans-64" transform="translate(741.072266 0)"/>
      <use xlink:href="#DejaVuSans-61" transform="translate(804.548828 0)"/>
      <use xlink:href="#DejaVuSans-6d" transform="translate(865.828125 0)"/>
     </g>
    </g>
   </g>
  </g>
 </g>
 <defs>
  <clipPath id="p9bba9e2e58">
   <rect x="54" y="34.56" width="334.8" height="221.76"/>
  </clipPath>
 </defs>
</svg>
