<?xml version="1.0" encoding="utf-8" standalone="no"?>
<!DOCTYPE svg PUBLIC "-//W3C//DTD SVG 1.1//EN"
  "http://www.w3.org/Graphics/SVG/1.1/DTD/svg11.dtd">
<svg xmlns:xlink="http://www.w3.org/1999/xlink" width="432pt" height="288pt" viewBox="0 0 432 288" xmlns="http://www.w3.org/2000/svg" version="1.1">
 <metadata>
  <rdf:RDF xmlns:dc="http://purl.org/dc/elements/1.1/" xmlns:cc="http://creativecommons.org/ns#" xmlns:rdf="http://www.w3.org/1999/02/22-rdf-syntax-ns#">
   <cc:Work>
    <dc:type rdf:resource="http://purl.org/dc/dcmitype/StillImage"/>
    <dc:date>2026-03-10T19:31:08.397653</dc:date>
    <dc:format>image/svg+xml</dc:format>
    <dc:creator>
     <cc:Agent>
      <dc:title>Matplotlib v3.10.6, https://matplotlib.org/</dc:title>
     </cc:Agent>
    </dc:creator>
   </cc:Work>
  </rdf:RDF>
 </metadata>
 <defs>
  <style type="text/css">*{stroke-linejoin: round; stroke-linecap: butt}</style>
 </defs>
 <g id="figure_1">
  <g id="patch_1">
   <path d="M 0 288 
L 432 288 
L 432 0 
L 0 0 
z
" style="fill: #ffffff"/>
  </g>
  <g id="axes_1">
   <g id="patch_2">
    <path d="M 54 256.32 
L 388.8 256.32 
L 388.8 34.56 
L 54 34.56 
z
" style="fill: #ffffff"/>
   </g>
   <g id="matplotlib.axis_1">
    <g id="xtick_1">
     <g id="line2d_1">
      <path d="M 69.218182 256.32 
L 69.218182 34.56 
" clip-path="url(#p7b8957f4ca)" style="fill: none; stroke: #b0b0b0; stroke-width: 0.8; stroke-linecap: square"/>
     </g>
     <g id="line2d_2">
      <defs>
       <path id="m8b1e298de9" d="M 0 0 
L 0 3.5 
" style="stroke: #000000; stroke-width: 0.8"/>
      </defs>
      <g>
       <use xlink:href="#m8b1e298de9" x="69.218182" y="256.32" style="stroke: #000000; stroke-width: 0.8"/>
      </g>
     </g>
     <g id="text_1">
      <!-- −6 -->
      <g transform="translate(61.847088 270.918437) scale(0.1 -0.1)">
       <defs>
        <path id="DejaVuSans-2212" d="M 678 2272 
L 4684 2272 
L 4684 1741 
L 678 1741 
L 678 2272 
z
" transform="scale(0.015625)"/>
        <path id="DejaVuSans-36" d="M 2113 2584 
Q 1688 2584 1439 2293 
Q 1191 2003 1191 1497 
Q 1191 994 1439 701 
Q 1688 409 2113 409 
Q 2538 409 2786 701 
Q 3034 994 3034 1497 
Q 3034 2003 2786 2293 
Q 2538 2584 2113 2584 
z
M 3366 4563 
L 3366 3988 
Q 3128 4100 2886 4159 
Q 2644 4219 2406 4219 
Q 1781 4219 1451 3797 
Q 1122 3375 1075 2522 
Q 1259 2794 1537 2939 
Q 1816 3084 2150 3084 
Q 2853 3084 3261 2657 
Q 3669 2231 3669 1497 
Q 3669 778 3244 343 
Q 2819 -91 2113 -91 
Q 1303 -91 875 529 
Q 447 1150 447 2328 
Q 447 3434 972 4092 
Q 1497 4750 2381 4750 
Q 2619 4750 2861 4703 
Q 3103 4656 3366 4563 
z
" transform="scale(0.015625)"/>
       </defs>
       <use xlink:href="#DejaVuSans-2212"/>
       <use xlink:href="#DejaVuSans-36" transform="translate(83.789062 0)"/>
      </g>
     </g>
    </g>
    <g id="xtick_2">
     <g id="line2d_3">
      <path d="M 119.949682 256.32 
L 119.949682 34.56 
" clip-path="url(#p7b8957f4ca)" style="fill: none; stroke: #b0b0b0; stroke-width: 0.8; stroke-linecap: square"/>
     </g>
     <g id="line2d_4">
      <g>
       <use xlink:href="#m8b1e298de9" x="119.949682" y="256.32" style="stroke: #000000; stroke-width: 0.8"/>
      </g>
     </g>
     <g id="text_2">
      <!-- −4 -->
      <g transform="translate(112.578588 270.918437) scale(0.1 -0.1)">
       <defs>
        <path id="DejaVuSans-34" d="M 2419 4116 
L 825 1625 
L 2419 1625 
L 2419 4116 
z
M 2253 4666 
L 3047 4666 
L 3047 1625 
L 3713 1625 
L 3713 1100 
L 3047 1100 
L 3047 0 
L 2419 0 
L 2419 1100 
L 313 1100 
L 313 1709 
L 2253 4666 
z
" transform="scale(0.015625)"/>
       </defs>
       <use xlink:href="#DejaVuSans-2212"/>
       <use xlink:href="#DejaVuSans-34" transform="translate(83.789062 0)"/>
      </g>
     </g>
    </g>
    <g id="xtick_3">
     <g id="line2d_5">
      <path d="M 170.681182 256.32 
L 170.681182 34.56 
" clip-path="url(#p7b8957f4ca)" style="fill: none; stroke: #b0b0b0; stroke-width: 0.8; stroke-linecap: square"/>
     </g>
     <g id="line2d_6">
      <g>
       <use xlink:href="#m8b1e298de9" x="170.681182" y="256.32" style="stroke: #000000; stroke-width: 0.8"/>
      </g>
     </g>
     <g id="text_3">
      <!-- −2 -->
      <g transform="translate(163.310088 270.918437) scale(0.1 -0.1)">
       <defs>
        <path id="DejaVuSans-32" d="M 1228 531 
L 3431 531 
L 3431 0 
L 469 0 
L 469 531 
Q 828 903 1448 1529 
Q 2069 2156 2228 2338 
Q 2531 2678 2651 2914 
Q 2772 3150 2772 3378 
Q 2772 3750 2511 3984 
Q 2250 4219 1831 4219 
Q 1534 4219 1204 4116 
Q 875 4013 500 3803 
L 500 4441 
Q 881 4594 1212 4672 
Q 1544 4750 1819 4750 
Q 2544 4750 2975 4387 
Q 3406 4025 3406 3419 
Q 3406 3131 3298 2873 
Q 3191 2616 2906 2266 
Q 2828 2175 2409 1742 
Q 1991 1309 1228 531 
z
" transform="scale(0.015625)"/>
       </defs>
       <use xlink:href="#DejaVuSans-2212"/>
       <use xlink:href="#DejaVuSans-32" transform="translate(83.789062 0)"/>
      </g>
     </g>
    </g>
    <g id="xtick_4">
     <g id="line2d_7">
      <path d="M 221.412682 256.32 
L 221.412682 34.56 
" clip-path="url(#p7b8957f4ca)" style="fill: none; stroke: #b0b0b0; stroke-width: 0.8; stroke-linecap: square"/>
     </g>
     <g id="line2d_8">
      <g>
       <use xlink:href="#m8b1e298de9" x="221.412682" y="256.32" style="stroke: #000000; stroke-width: 0.8"/>
      </g>
     </g>
     <g id="text_4">
      <!-- 0 -->
      <g transform="translate(218.231432 270.918437) scale(0.1 -0.1)">
       <defs>
        <path id="DejaVuSans-30" d="M 2034 4250 
Q 1547 4250 1301 3770 
Q 1056 3291 1056 2328 
Q 1056 1369 1301 889 
Q 1547 409 2034 409 
Q 2525 409 2770 889 
Q 3016 1369 3016 2328 
Q 3016 3291 2770 3770 
Q 2525 4250 2034 4250 
z
M 2034 4750 
Q 2819 4750 3233 4129 
Q 3647 3509 3647 2328 
Q 3647 1150 3233 529 
Q 2819 -91 2034 -91 
Q 1250 -91 836 529 
Q 422 1150 422 2328 
Q 422 3509 836 4129 
Q 1250 4750 2034 4750 
z
" transform="scale(0.015625)"/>
       </defs>
       <use xlink:href="#DejaVuSans-30"/>
      </g>
     </g>
    </g>
    <g id="xtick_5">
     <g id="line2d_9">
      <path d="M 272.144182 256.32 
L 272.144182 34.56 
" clip-path="url(#p7b8957f4ca)" style="fill: none; stroke: #b0b0b0; stroke-width: 0.8; stroke-linecap: square"/>
     </g>
     <g id="line2d_10">
      <g>
       <use xlink:href="#m8b1e298de9" x="272.144182" y="256.32" style="stroke: #000000; stroke-width: 0.8"/>
      </g>
     </g>
     <g id="text_5">
      <!-- 2 -->
      <g transform="translate(268.962932 270.918437) scale(0.1 -0.1)">
       <use xlink:href="#DejaVuSans-32"/>
      </g>
     </g>
    </g>
    <g id="xtick_6">
     <g id="line2d_11">
      <path d="M 322.875682 256.32 
L 322.875682 34.56 
" clip-path="url(#p7b8957f4ca)" style="fill: none; stroke: #b0b0b0; stroke-width: 0.8; stroke-linecap: square"/>
     </g>
     <g id="line2d_12">
      <g>
       <use xlink:href="#m8b1e298de9" x="322.875682" y="256.32" style="stroke: #000000; stroke-width: 0.8"/>
      </g>
     </g>
     <g id="text_6">
      <!-- 4 -->
      <g transform="translate(319.694432 270.918437) scale(0.1 -0.1)">
       <use xlink:href="#DejaVuSans-34"/>
      </g>
     </g>
    </g>
    <g id="xtick_7">
     <g id="line2d_13">
      <path d="M 373.607182 256.32 
L 373.607182 34.56 
" clip-path="url(#p7b8957f4ca)" style="fill: none; stroke: #b0b0b0; stroke-width: 0.8; stroke-linecap: square"/>
     </g>
     <g id="line2d_14">
      <g>
       <use xlink:href="#m8b1e298de9" x="373.607182" y="256.32" style="stroke: #000000; stroke-width: 0.8"/>
      </g>
     </g>
     <g id="text_7">
      <!-- 6 -->
      <g transform="translate(370.425932 270.918437) scale(0.1 -0.1)">
       <use xlink:href="#DejaVuSans-36"/>
      </g>
     </g>
    </g>
    <g id="text_8">
     <!-- $x$ -->
     <g transform="translate(218.4 284.596563) scale(0.1 -0.1)">
      <defs>
       <path id="DejaVuSans-Oblique-78" d="M 3841 3500 
L 2234 1784 
L 3219 0 
L 2559 0 
L 1819 1388 
L 531 0 
L -166 0 
L 1556 1844 
L 641 3500 
L 1300 3500 
L 1972 2234 
L 3144 3500 
L 3841 3500 
z
" transform="scale(0.015625)"/>
      </defs>
      <use xlink:href="#DejaVuSans-Oblique-78" transform="translate(0 0.3125)"/>
     </g>
    </g>
   </g>
   <g id="matplotlib.axis_2">
    <g id="ytick_1">
     <g id="line2d_15">
      <path d="M 54 246.24 
L 388.8 246.24 
" clip-path="url(#p7b8957f4ca)" style="fill: none; stroke: #b0b0b0; stroke-width: 0.8; stroke-linecap: square"/>
     </g>
     <g id="line2d_16">
      <defs>
       <path id="m0de89f54a1" d="M 0 0 
L -3.5 0 
" style="stroke: #000000; stroke-width: 0.8"/>
      </defs>
      <g>
       <use xlink:href="#m0de89f54a1" x="54" y="246.24" style="stroke: #000000; stroke-width: 0.8"/>
      </g>
     </g>
     <g id="text_9">
      <!-- −6 -->
      <g transform="translate(32.257812 250.039219) scale(0.1 -0.1)">
       <use xlink:href="#DejaVuSans-2212"/>
       <use xlink:href="#DejaVuSans-36" transform="translate(83.789062 0)"/>
      </g>
     </g>
    </g>
    <g id="ytick_2">
     <g id="line2d_17">
      <path d="M 54 212.64 
L 388.8 212.64 
" clip-path="url(#p7b8957f4ca)" style="fill: none; stroke: #b0b0b0; stroke-width: 0.8; stroke-linecap: square"/>
     </g>
     <g id="line2d_18">
      <g>
       <use xlink:href="#m0de89f54a1" x="54" y="212.64" style="stroke: #000000; stroke-width: 0.8"/>
      </g>
     </g>
     <g id="text_10">
      <!-- −4 -->
      <g transform="translate(32.257812 216.439219) scale(0.1 -0.1)">
       <use xlink:href="#DejaVuSans-2212"/>
       <use xlink:href="#DejaVuSans-34" transform="translate(83.789062 0)"/>
      </g>
     </g>
    </g>
    <g id="ytick_3">
     <g id="line2d_19">
      <path d="M 54 179.04 
L 388.8 179.04 
" clip-path="url(#p7b8957f4ca)" style="fill: none; stroke: #b0b0b0; stroke-width: 0.8; stroke-linecap: square"/>
     </g>
     <g id="line2d_20">
      <g>
       <use xlink:href="#m0de89f54a1" x="54" y="179.04" style="stroke: #000000; stroke-width: 0.8"/>
      </g>
     </g>
     <g id="text_11">
      <!-- −2 -->
      <g transform="translate(32.257812 182.839219) scale(0.1 -0.1)">
       <use xlink:href="#DejaVuSans-2212"/>
       <use xlink:href="#DejaVuSans-32" transform="translate(83.789062 0)"/>
      </g>
     </g>
    </g>
    <g id="ytick_4">
     <g id="line2d_21">
      <path d="M 54 145.44 
L 388.8 145.44 
" clip-path="url(#p7b8957f4ca)" style="fill: none; stroke: #b0b0b0; stroke-width: 0.8; stroke-linecap: square"/>
     </g>
     <g id="line2d_22">
      <g>
       <use xlink:href="#m0de89f54a1" x="54" y="145.44" style="stroke: #000000; stroke-width: 0.8"/>
      </g>
     </g>
     <g id="text_12">
      <!-- 0 -->
      <g transform="translate(40.6375 149.239219) scale(0.1 -0.1)">
       <use xlink:href="#DejaVuSans-30"/>
      </g>
     </g>
    </g>
    <g id="ytick_5">
     <g id="line2d_23">
      <path d="M 54 111.84 
L 388.8 111.84 
" clip-path="url(#p7b8957f4ca)" style="fill: none; stroke: #b0b0b0; stroke-width: 0.8; stroke-linecap: square"/>
     </g>
     <g id="line2d_24">
      <g>
       <use xlink:href="#m0de89f54a1" x="54" y="111.84" style="stroke: #000000; stroke-width: 0.8"/>
      </g>
     </g>
     <g id="text_13">
      <!-- 2 -->
      <g transform="translate(40.6375 115.639219) scale(0.1 -0.1)">
       <use xlink:href="#DejaVuSans-32"/>
      </g>
     </g>
    </g>
    <g id="ytick_6">
     <g id="line2d_25">
      <path d="M 54 78.24 
L 388.8 78.24 
" clip-path="url(#p7b8957f4ca)" style="fill: none; stroke: #b0b0b0; stroke-width: 0.8; stroke-linecap: square"/>
     </g>
     <g id="line2d_26">
      <g>
       <use xlink:href="#m0de89f54a1" x="54" y="78.24" style="stroke: #000000; stroke-width: 0.8"/>
      </g>
     </g>
     <g id="text_14">
      <!-- 4 -->
      <g transform="translate(40.6375 82.039219) scale(0.1 -0.1)">
       <use xlink:href="#DejaVuSans-34"/>
      </g>
     </g>
    </g>
    <g id="ytick_7">
     <g id="line2d_27">
      <path d="M 54 44.64 
L 388.8 44.64 
" clip-path="url(#p7b8957f4ca)" style="fill: none; stroke: #b0b0b0; stroke-width: 0.8; stroke-linecap: square"/>
     </g>
     <g id="line2d_28">
      <g>
       <use xlink:href="#m0de89f54a1" x="54" y="44.64" style="stroke: #000000; stroke-width: 0.8"/>
      </g>
     </g>
     <g id="text_15">
      <!-- 6 -->
      <g transform="translate(40.6375 48.439219) scale(0.1 -0.1)">
       <use xlink:href="#DejaVuSans-36"/>
      </g>
     </g>
    </g>
    <g id="text_16">
     <!-- Sample of ${\rm fp4}(x - v)$ -->
     <g transform="translate(26.157812 196.29) rotate(-90) scale(0.1 -0.1)">
      <defs>
       <path id="DejaVuSans-53" d="M 3425 4513 
L 3425 3897 
Q 3066 4069 2747 4153 
Q 2428 4238 2131 4238 
Q 1616 4238 1336 4038 
Q 1056 3838 1056 3469 
Q 1056 3159 1242 3001 
Q 1428 2844 1947 2747 
L 2328 2669 
Q 3034 2534 3370 2195 
Q 3706 1856 3706 1288 
Q 3706 609 3251 259 
Q 2797 -91 1919 -91 
Q 1588 -91 1214 -16 
Q 841 59 441 206 
L 441 856 
Q 825 641 1194 531 
Q 1563 422 1919 422 
Q 2459 422 2753 634 
Q 3047 847 3047 1241 
Q 3047 1584 2836 1778 
Q 2625 1972 2144 2069 
L 1759 2144 
Q 1053 2284 737 2584 
Q 422 2884 422 3419 
Q 422 4038 858 4394 
Q 1294 4750 2059 4750 
Q 2388 4750 2728 4690 
Q 3069 4631 3425 4513 
z
" transform="scale(0.015625)"/>
       <path id="DejaVuSans-61" d="M 2194 1759 
Q 1497 1759 1228 1600 
Q 959 1441 959 1056 
Q 959 750 1161 570 
Q 1363 391 1709 391 
Q 2188 391 2477 730 
Q 2766 1069 2766 1631 
L 2766 1759 
L 2194 1759 
z
M 3341 1997 
L 3341 0 
L 2766 0 
L 2766 531 
Q 2569 213 2275 61 
Q 1981 -91 1556 -91 
Q 1019 -91 701 211 
Q 384 513 384 1019 
Q 384 1609 779 1909 
Q 1175 2209 1959 2209 
L 2766 2209 
L 2766 2266 
Q 2766 2663 2505 2880 
Q 2244 3097 1772 3097 
Q 1472 3097 1187 3025 
Q 903 2953 641 2809 
L 641 3341 
Q 956 3463 1253 3523 
Q 1550 3584 1831 3584 
Q 2591 3584 2966 3190 
Q 3341 2797 3341 1997 
z
" transform="scale(0.015625)"/>
       <path id="DejaVuSans-6d" d="M 3328 2828 
Q 3544 3216 3844 3400 
Q 4144 3584 4550 3584 
Q 5097 3584 5394 3201 
Q 5691 2819 5691 2113 
L 5691 0 
L 5113 0 
L 5113 2094 
Q 5113 2597 4934 2840 
Q 4756 3084 4391 3084 
Q 3944 3084 3684 2787 
Q 3425 2491 3425 1978 
L 3425 0 
L 2847 0 
L 2847 2094 
Q 2847 2600 2669 2842 
Q 2491 3084 2119 3084 
Q 1678 3084 1418 2786 
Q 1159 2488 1159 1978 
L 1159 0 
L 581 0 
L 581 3500 
L 1159 3500 
L 1159 2956 
Q 1356 3278 1631 3431 
Q 1906 3584 2284 3584 
Q 2666 3584 2933 3390 
Q 3200 3197 3328 2828 
z
" transform="scale(0.015625)"/>
       <path id="DejaVuSans-70" d="M 1159 525 
L 1159 -1331 
L 581 -1331 
L 581 3500 
L 1159 3500 
L 1159 2969 
Q 1341 3281 1617 3432 
Q 1894 3584 2278 3584 
Q 2916 3584 3314 3078 
Q 3713 2572 3713 1747 
Q 3713 922 3314 415 
Q 2916 -91 2278 -91 
Q 1894 -91 1617 61 
Q 1341 213 1159 525 
z
M 3116 1747 
Q 3116 2381 2855 2742 
Q 2594 3103 2138 3103 
Q 1681 3103 1420 2742 
Q 1159 2381 1159 1747 
Q 1159 1113 1420 752 
Q 1681 391 2138 391 
Q 2594 391 2855 752 
Q 3116 1113 3116 1747 
z
" transform="scale(0.015625)"/>
       <path id="DejaVuSans-6c" d="M 603 4863 
L 1178 4863 
L 1178 0 
L 603 0 
L 603 4863 
z
" transform="scale(0.015625)"/>
       <path id="DejaVuSans-65" d="M 3597 1894 
L 3597 1613 
L 953 1613 
Q 991 1019 1311 708 
Q 1631 397 2203 397 
Q 2534 397 2845 478 
Q 3156 559 3463 722 
L 3463 178 
Q 3153 47 2828 -22 
Q 2503 -91 2169 -91 
Q 1331 -91 842 396 
Q 353 884 353 1716 
Q 353 2575 817 3079 
Q 1281 3584 2069 3584 
Q 2775 3584 3186 3129 
Q 3597 2675 3597 1894 
z
M 3022 2063 
Q 3016 2534 2758 2815 
Q 2500 3097 2075 3097 
Q 1594 3097 1305 2825 
Q 1016 2553 972 2059 
L 3022 2063 
z
" transform="scale(0.015625)"/>
       <path id="DejaVuSans-20" transform="scale(0.015625)"/>
       <path id="DejaVuSans-6f" d="M 1959 3097 
Q 1497 3097 1228 2736 
Q 959 2375 959 1747 
Q 959 1119 1226 758 
Q 1494 397 1959 397 
Q 2419 397 2687 759 
Q 2956 1122 2956 1747 
Q 2956 2369 2687 2733 
Q 2419 3097 1959 3097 
z
M 1959 3584 
Q 2709 3584 3137 3096 
Q 3566 2609 3566 1747 
Q 3566 888 3137 398 
Q 2709 -91 1959 -91 
Q 1206 -91 779 398 
Q 353 888 353 1747 
Q 353 2609 779 3096 
Q 1206 3584 1959 3584 
z
" transform="scale(0.015625)"/>
       <path id="DejaVuSans-66" d="M 2375 4863 
L 2375 4384 
L 1825 4384 
Q 1516 4384 1395 4259 
Q 1275 4134 1275 3809 
L 1275 3500 
L 2222 3500 
L 2222 3053 
L 1275 3053 
L 1275 0 
L 697 0 
L 697 3053 
L 147 3053 
L 147 3500 
L 697 3500 
L 697 3744 
Q 697 4328 969 4595 
Q 1241 4863 1831 4863 
L 2375 4863 
z
" transform="scale(0.015625)"/>
       <path id="DejaVuSans-28" d="M 1984 4856 
Q 1566 4138 1362 3434 
Q 1159 2731 1159 2009 
Q 1159 1288 1364 580 
Q 1569 -128 1984 -844 
L 1484 -844 
Q 1016 -109 783 600 
Q 550 1309 550 2009 
Q 550 2706 781 3412 
Q 1013 4119 1484 4856 
L 1984 4856 
z
" transform="scale(0.015625)"/>
       <path id="DejaVuSans-Oblique-76" d="M 459 3500 
L 1069 3500 
L 1581 525 
L 3256 3500 
L 3866 3500 
L 1875 0 
L 1100 0 
L 459 3500 
z
" transform="scale(0.015625)"/>
       <path id="DejaVuSans-29" d="M 513 4856 
L 1013 4856 
Q 1481 4119 1714 3412 
Q 1947 2706 1947 2009 
Q 1947 1309 1714 600 
Q 1481 -109 1013 -844 
L 513 -844 
Q 928 -128 1133 580 
Q 1338 1288 1338 2009 
Q 1338 2731 1133 3434 
Q 928 4138 513 4856 
z
" transform="scale(0.015625)"/>
      </defs>
      <use xlink:href="#DejaVuSans-53" transform="translate(0 0.015625)"/>
      <use xlink:href="#DejaVuSans-61" transform="translate(63.476562 0.015625)"/>
      <use xlink:href="#DejaVuSans-6d" transform="translate(124.755859 0.015625)"/>
      <use xlink:href="#DejaVuSans-70" transform="translate(222.167969 0.015625)"/>
      <use xlink:href="#DejaVuSans-6c" transform="translate(285.644531 0.015625)"/>
      <use xlink:href="#DejaVuSans-65" transform="translate(313.427734 0.015625)"/>
      <use xlink:href="#DejaVuSans-20" transform="translate(374.951172 0.015625)"/>
      <use xlink:href="#DejaVuSans-6f" transform="translate(406.738281 0.015625)"/>
      <use xlink:href="#DejaVuSans-66" transform="translate(467.919922 0.015625)"/>
      <use xlink:href="#DejaVuSans-20" transform="translate(503.125 0.015625)"/>
      <use xlink:href="#DejaVuSans-66" transform="translate(534.912109 0.015625)"/>
      <use xlink:href="#DejaVuSans-70" transform="translate(570.117188 0.015625)"/>
      <use xlink:href="#DejaVuSans-34" transform="translate(633.59375 0.015625)"/>
      <use xlink:href="#DejaVuSans-28" transform="translate(697.216797 0.015625)"/>
      <use xlink:href="#DejaVuSans-Oblique-78" transform="translate(736.230469 0.015625)"/>
      <use xlink:href="#DejaVuSans-2212" transform="translate(814.892578 0.015625)"/>
      <use xlink:href="#DejaVuSans-Oblique-76" transform="translate(918.164062 0.015625)"/>
      <use xlink:href="#DejaVuSans-29" transform="translate(977.34375 0.015625)"/>
     </g>
    </g>
   </g>
   <g id="line2d_29">
    <path d="M 69.218182 246.24 
L 82.535203 246.24 
L 82.560567 212.64 
L 82.636659 246.24 
L 83.524468 246.24 
L 83.549832 212.64 
L 83.625924 246.24 
L 83.803483 246.24 
L 83.879587 212.64 
L 83.904951 246.24 
L 84.336174 246.24 
L 84.361538 212.64 
L 84.437629 246.24 
L 84.513721 246.24 
L 84.539097 212.64 
L 84.615189 246.24 
L 84.640553 246.24 
L 84.691281 212.64 
L 84.742021 246.24 
L 85.046412 246.24 
L 85.173243 212.64 
L 85.300063 246.24 
L 85.350803 246.24 
L 85.376167 212.64 
L 85.452258 246.24 
L 85.629818 246.24 
L 85.731274 212.64 
L 85.858117 246.24 
L 85.908845 212.64 
L 85.959585 246.24 
L 86.035677 246.24 
L 86.162508 212.64 
L 86.187872 212.64 
L 86.314692 246.24 
L 86.568355 246.24 
L 86.619083 212.64 
L 86.669823 246.24 
L 86.745915 246.24 
L 86.872746 212.64 
L 86.999578 246.24 
L 87.050306 246.24 
L 87.151761 212.64 
L 87.278593 246.24 
L 87.405425 246.24 
L 87.50688 212.64 
L 87.633712 246.24 
L 87.760544 246.24 
L 87.78592 212.64 
L 87.862011 246.24 
L 87.988843 246.24 
L 88.014207 212.64 
L 88.090299 246.24 
L 88.166391 246.24 
L 88.242494 212.64 
L 88.267858 246.24 
L 88.39469 246.24 
L 88.496158 212.64 
L 88.597625 246.24 
L 88.724445 212.64 
L 88.851277 246.24 
L 89.003472 246.24 
L 89.028836 212.64 
L 89.104928 246.24 
L 89.130292 246.24 
L 89.257123 212.64 
L 89.307851 212.64 
L 89.434683 246.24 
L 89.485411 246.24 
L 89.612254 212.64 
L 89.71371 246.24 
L 89.764438 212.64 
L 89.815178 246.24 
L 89.89127 246.24 
L 89.916633 212.64 
L 89.992725 246.24 
L 90.144921 246.24 
L 90.271752 212.64 
L 90.297116 212.64 
L 90.398572 246.24 
L 90.50004 212.64 
L 90.626883 246.24 
L 90.652247 246.24 
L 90.779067 212.64 
L 90.905899 246.24 
L 90.98199 246.24 
L 91.058094 212.64 
L 91.083458 246.24 
L 91.108822 246.24 
L 91.15955 212.64 
L 91.210278 246.24 
L 91.337121 246.24 
L 91.413213 212.64 
L 91.438589 246.24 
L 91.514681 246.24 
L 91.540045 212.64 
L 91.616136 246.24 
L 91.69224 246.24 
L 91.793696 212.64 
L 91.8698 246.24 
L 91.895164 212.64 
L 91.920528 212.64 
L 91.945892 246.24 
L 92.021983 212.64 
L 92.072723 212.64 
L 92.199543 246.24 
L 92.326374 212.64 
L 92.35175 212.64 
L 92.478582 246.24 
L 92.554674 212.64 
L 92.580038 246.24 
L 92.605402 246.24 
L 92.732233 212.64 
L 92.859065 246.24 
L 92.985884 212.64 
L 93.036612 212.64 
L 93.13808 246.24 
L 93.264912 212.64 
L 93.290276 212.64 
L 93.391743 246.24 
L 93.493211 212.64 
L 93.620031 246.24 
L 93.645395 246.24 
L 93.772226 212.64 
L 93.822954 212.64 
L 93.924422 246.24 
L 94.051241 212.64 
L 94.076617 212.64 
L 94.178085 246.24 
L 94.279553 212.64 
L 94.406372 246.24 
L 94.50784 246.24 
L 94.609296 212.64 
L 94.6854 246.24 
L 94.710763 212.64 
L 94.761491 212.64 
L 94.862947 246.24 
L 94.964415 212.64 
L 95.06587 246.24 
L 95.141974 212.64 
L 95.167338 246.24 
L 95.243442 246.24 
L 95.370274 212.64 
L 95.497105 246.24 
L 95.623925 212.64 
L 95.674653 212.64 
L 95.801484 246.24 
L 95.826848 212.64 
L 95.902952 246.24 
L 95.928316 246.24 
L 96.055148 212.64 
L 96.080511 212.64 
L 96.207343 246.24 
L 96.232707 246.24 
L 96.334175 212.64 
L 96.410267 246.24 
L 96.43563 212.64 
L 96.511734 212.64 
L 96.537098 246.24 
L 96.61319 212.64 
L 96.663918 212.64 
L 96.765385 246.24 
L 96.841477 212.64 
L 96.866841 246.24 
L 96.892205 246.24 
L 97.019049 212.64 
L 97.14588 246.24 
L 97.2727 212.64 
L 97.32344 212.64 
L 97.424896 246.24 
L 97.551727 212.64 
L 97.577091 246.24 
L 97.653183 212.64 
L 97.678547 212.64 
L 97.805378 246.24 
L 97.93221 212.64 
L 97.982938 212.64 
L 98.084406 246.24 
L 98.211237 212.64 
L 98.236601 212.64 
L 98.338069 246.24 
L 98.464888 212.64 
L 98.617084 212.64 
L 98.71854 246.24 
L 98.845383 212.64 
L 98.946851 246.24 
L 99.073671 212.64 
L 99.175138 246.24 
L 99.301958 212.64 
L 99.352698 212.64 
L 99.378062 246.24 
L 99.454154 212.64 
L 99.580985 212.64 
L 99.657077 246.24 
L 99.682441 212.64 
L 99.707805 212.64 
L 99.733169 246.24 
L 99.809273 212.64 
L 99.834636 212.64 
L 99.936104 246.24 
L 100.062936 212.64 
L 100.0883 212.64 
L 100.189768 246.24 
L 100.316587 212.64 
L 100.392691 212.64 
L 100.494147 246.24 
L 100.620978 212.64 
L 100.722434 212.64 
L 100.823902 246.24 
L 100.950733 212.64 
L 100.976109 246.24 
L 101.052201 212.64 
L 101.204397 212.64 
L 101.22976 246.24 
L 101.305852 212.64 
L 101.53414 212.64 
L 101.559503 246.24 
L 101.635607 212.64 
L 101.813179 212.64 
L 101.939998 246.24 
L 102.06683 212.64 
L 102.092194 246.24 
L 102.168286 212.64 
L 102.219026 212.64 
L 102.320481 246.24 
L 102.447313 212.64 
L 102.574132 212.64 
L 102.599508 246.24 
L 102.6756 212.64 
L 102.751704 212.64 
L 102.777068 246.24 
L 102.853172 212.64 
L 103.208291 212.64 
L 103.284382 246.24 
L 103.309746 212.64 
L 103.436578 212.64 
L 103.56341 246.24 
L 103.690241 212.64 
L 103.969256 212.64 
L 104.04536 246.24 
L 104.070724 212.64 
L 104.22292 212.64 
L 104.299011 246.24 
L 104.324375 212.64 
L 104.654143 212.64 
L 104.70487 246.24 
L 104.755598 212.64 
L 105.212173 212.64 
L 105.288277 246.24 
L 105.313641 212.64 
L 105.415096 212.64 
L 105.440472 246.24 
L 105.516564 212.64 
L 105.947787 212.64 
L 105.973151 246.24 
L 106.049254 212.64 
L 106.099982 212.64 
L 106.125346 246.24 
L 106.201438 212.64 
L 106.632661 212.64 
L 106.658037 246.24 
L 106.734128 212.64 
L 126.77307 212.64 
L 126.849168 195.84 
L 126.874532 212.64 
L 126.925266 212.64 
L 127.052091 195.84 
L 127.178923 212.64 
L 127.381852 212.64 
L 127.407216 195.84 
L 127.483308 212.64 
L 128.117454 212.64 
L 128.142818 195.84 
L 128.218916 212.64 
L 128.320383 212.64 
L 128.345747 195.84 
L 128.421845 212.64 
L 128.574035 212.64 
L 128.700866 195.84 
L 128.827698 212.64 
L 128.853062 212.64 
L 128.878426 195.84 
L 128.954524 212.64 
L 129.055985 212.64 
L 129.081349 195.84 
L 129.157447 212.64 
L 129.487202 212.64 
L 129.512566 195.84 
L 129.588664 212.64 
L 129.614034 212.64 
L 129.639398 195.84 
L 129.715495 212.64 
L 129.766229 212.64 
L 129.791593 195.84 
L 129.867691 212.64 
L 129.893055 212.64 
L 129.994517 195.84 
L 130.095984 212.64 
L 130.197446 195.84 
L 130.324272 212.64 
L 130.349642 212.64 
L 130.375005 195.84 
L 130.451103 212.64 
L 130.501831 212.64 
L 130.628663 195.84 
L 130.730124 212.64 
L 130.856956 195.84 
L 130.88232 195.84 
L 131.009146 212.64 
L 131.034516 212.64 
L 131.110613 195.84 
L 131.135977 212.64 
L 131.237445 212.64 
L 131.364271 195.84 
L 131.389634 195.84 
L 131.491096 212.64 
L 131.5672 195.84 
L 131.592564 212.64 
L 131.617928 212.64 
L 131.694026 195.84 
L 131.71939 212.64 
L 131.744753 212.64 
L 131.846221 195.84 
L 131.947677 212.64 
L 131.998411 195.84 
L 132.049145 212.64 
L 132.074508 212.64 
L 132.175976 195.84 
L 132.20134 212.64 
L 132.277438 195.84 
L 132.302802 195.84 
L 132.429627 212.64 
L 132.531095 195.84 
L 132.632557 212.64 
L 132.759382 195.84 
L 132.886214 212.64 
L 132.962312 212.64 
L 132.987682 195.84 
L 133.06378 212.64 
L 133.089144 212.64 
L 133.190605 195.84 
L 133.266703 212.64 
L 133.292067 195.84 
L 133.393535 195.84 
L 133.444263 212.64 
L 133.494996 195.84 
L 133.52036 195.84 
L 133.621822 212.64 
L 133.748648 195.84 
L 133.850109 212.64 
L 133.926207 195.84 
L 133.951577 212.64 
L 133.976941 212.64 
L 134.078409 195.84 
L 134.205234 212.64 
L 134.230598 212.64 
L 134.35743 195.84 
L 134.458892 212.64 
L 134.585717 195.84 
L 134.611087 195.84 
L 134.737913 212.64 
L 134.763283 212.64 
L 134.890114 195.84 
L 134.966206 195.84 
L 134.99157 212.64 
L 135.067668 195.84 
L 135.118402 195.84 
L 135.219863 212.64 
L 135.346689 195.84 
L 135.473521 212.64 
L 135.600346 195.84 
L 135.625716 212.64 
L 135.701814 195.84 
L 135.904743 195.84 
L 135.980835 212.64 
L 136.006199 195.84 
L 136.082297 195.84 
L 136.209128 212.64 
L 136.33596 195.84 
L 136.386688 195.84 
L 136.412052 212.64 
L 136.48815 195.84 
L 136.564247 195.84 
L 136.589611 212.64 
L 136.665709 195.84 
L 136.691073 195.84 
L 136.792541 212.64 
L 136.919372 195.84 
L 137.020828 195.84 
L 137.046198 212.64 
L 137.122296 195.84 
L 137.14766 195.84 
L 137.173024 212.64 
L 137.249127 195.84 
L 137.528149 195.84 
L 137.553513 212.64 
L 137.62961 195.84 
L 137.65498 195.84 
L 137.680344 212.64 
L 137.756442 195.84 
L 137.984729 195.84 
L 138.010093 212.64 
L 138.086191 195.84 
L 151.961261 195.84 
L 151.986624 179.04 
L 152.062722 195.84 
L 152.646135 195.84 
L 152.772966 179.04 
L 152.899792 195.84 
L 153.254911 195.84 
L 153.280281 179.04 
L 153.356378 195.84 
L 154.041252 195.84 
L 154.091986 179.04 
L 154.142714 195.84 
L 154.345638 195.84 
L 154.371007 179.04 
L 154.447099 195.84 
L 154.497833 195.84 
L 154.523197 179.04 
L 154.599295 195.84 
L 154.624659 195.84 
L 154.675393 179.04 
L 154.726126 195.84 
L 154.75149 195.84 
L 154.878316 179.04 
L 154.979784 195.84 
L 155.081245 179.04 
L 155.208077 195.84 
L 155.334903 195.84 
L 155.461734 179.04 
L 155.588566 195.84 
L 155.664658 195.84 
L 155.766119 179.04 
L 155.842217 195.84 
L 155.867581 179.04 
L 155.892945 179.04 
L 155.994413 195.84 
L 156.070511 179.04 
L 156.095874 195.84 
L 156.171972 195.84 
L 156.298798 179.04 
L 156.349532 179.04 
L 156.476363 195.84 
L 156.501727 179.04 
L 156.577825 195.84 
L 156.653923 195.84 
L 156.730021 179.04 
L 156.755385 195.84 
L 156.780748 195.84 
L 156.90758 179.04 
L 156.93295 179.04 
L 157.059776 195.84 
L 157.110503 195.84 
L 157.237335 179.04 
L 157.338797 195.84 
L 157.465622 179.04 
L 157.490992 195.84 
L 157.56709 179.04 
L 157.592454 179.04 
L 157.643188 195.84 
L 157.693916 179.04 
L 157.71928 179.04 
L 157.795377 195.84 
L 157.820747 179.04 
L 157.947579 179.04 
L 157.972943 195.84 
L 158.049041 179.04 
L 158.125133 179.04 
L 158.251964 195.84 
L 158.353432 179.04 
L 158.480258 195.84 
L 158.505621 195.84 
L 158.607083 179.04 
L 158.657817 195.84 
L 158.708551 179.04 
L 158.759285 179.04 
L 158.784649 195.84 
L 158.860746 179.04 
L 158.88611 179.04 
L 158.987572 195.84 
L 159.038306 179.04 
L 159.089034 195.84 
L 159.215859 195.84 
L 159.342691 179.04 
L 159.368061 179.04 
L 159.444159 195.84 
L 159.469523 179.04 
L 159.52025 179.04 
L 159.647082 195.84 
L 159.69781 195.84 
L 159.824642 179.04 
L 159.900739 179.04 
L 160.027565 195.84 
L 160.052935 195.84 
L 160.154397 179.04 
L 160.179767 195.84 
L 160.255864 179.04 
L 160.331956 179.04 
L 160.35732 195.84 
L 160.433418 179.04 
L 160.484152 179.04 
L 160.585613 195.84 
L 160.712439 179.04 
L 160.813907 195.84 
L 160.940732 179.04 
L 161.067564 195.84 
L 161.194396 179.04 
L 161.270493 179.04 
L 161.295857 195.84 
L 161.371949 179.04 
L 161.397319 179.04 
L 161.422683 195.84 
L 161.498781 179.04 
L 161.574878 179.04 
L 161.600248 195.84 
L 161.676346 179.04 
L 161.752438 179.04 
L 161.777802 195.84 
L 161.8539 179.04 
L 161.929997 179.04 
L 161.980725 195.84 
L 162.031459 179.04 
L 162.234389 179.04 
L 162.285122 195.84 
L 162.33585 179.04 
L 162.437312 179.04 
L 162.51341 195.84 
L 162.538774 179.04 
L 162.665605 179.04 
L 162.741703 195.84 
L 162.767067 179.04 
L 162.944626 179.04 
L 162.99536 195.84 
L 163.046094 179.04 
L 163.122192 179.04 
L 163.147556 195.84 
L 163.223654 179.04 
L 163.350479 179.04 
L 163.375843 195.84 
L 163.451941 179.04 
L 163.883158 179.04 
L 163.908528 195.84 
L 163.984625 179.04 
L 173.953365 179.04 
L 173.978729 170.64 
L 174.054827 179.04 
L 174.409949 179.04 
L 174.486047 170.64 
L 174.511411 179.04 
L 174.612872 179.04 
L 174.638236 170.64 
L 174.714334 179.04 
L 174.790432 179.04 
L 174.841163 170.64 
L 174.891897 179.04 
L 175.247016 179.04 
L 175.297749 170.64 
L 175.34848 179.04 
L 175.373847 179.04 
L 175.475309 170.64 
L 175.576774 179.04 
L 175.627504 170.64 
L 175.678235 179.04 
L 175.805064 179.04 
L 175.830431 170.64 
L 175.906529 179.04 
L 176.007987 179.04 
L 176.134816 170.64 
L 176.261645 179.04 
L 176.287012 179.04 
L 176.363109 170.64 
L 176.388476 179.04 
L 176.439207 179.04 
L 176.566036 170.64 
L 176.692864 179.04 
L 176.718231 179.04 
L 176.743595 170.64 
L 176.819693 179.04 
L 176.84506 179.04 
L 176.946522 170.64 
L 176.997256 179.04 
L 177.047986 170.64 
L 177.07335 170.64 
L 177.200182 179.04 
L 177.225546 179.04 
L 177.327011 170.64 
L 177.453839 179.04 
L 177.580665 170.64 
L 177.606032 170.64 
L 177.73286 179.04 
L 177.834322 170.64 
L 177.935787 179.04 
L 178.062615 170.64 
L 178.164077 179.04 
L 178.290906 170.64 
L 178.316273 170.64 
L 178.443101 179.04 
L 178.56993 170.64 
L 178.595297 179.04 
L 178.671395 170.64 
L 178.82359 170.64 
L 178.848954 179.04 
L 178.925052 170.64 
L 179.001147 170.64 
L 179.026514 179.04 
L 179.102608 170.64 
L 179.483097 170.64 
L 179.609926 179.04 
L 179.736754 170.64 
L 179.863583 179.04 
L 179.990412 170.64 
L 187.21965 170.64 
L 187.245017 162.24 
L 187.321114 170.64 
L 187.803065 170.64 
L 187.828429 162.24 
L 187.904527 170.64 
L 187.929891 170.64 
L 187.955258 162.24 
L 188.031352 170.64 
L 188.10745 170.64 
L 188.132817 162.24 
L 188.208915 170.64 
L 188.285013 170.64 
L 188.386474 162.24 
L 188.462572 170.64 
L 188.487939 162.24 
L 188.53867 162.24 
L 188.665498 170.64 
L 188.792327 162.24 
L 188.893792 170.64 
L 189.02062 162.24 
L 189.096718 162.24 
L 189.223547 170.64 
L 189.248911 170.64 
L 189.375739 162.24 
L 189.477201 170.64 
L 189.60403 162.24 
L 189.629397 170.64 
L 189.705494 162.24 
L 189.730858 162.24 
L 189.857687 170.64 
L 189.959152 162.24 
L 190.08598 170.64 
L 190.111347 170.64 
L 190.136711 162.24 
L 190.212809 170.64 
L 190.26354 170.64 
L 190.314274 162.24 
L 190.365005 170.64 
L 190.390371 170.64 
L 190.5172 162.24 
L 190.542564 170.64 
L 190.618662 162.24 
L 190.770857 162.24 
L 190.796224 170.64 
L 190.872319 162.24 
L 190.973781 162.24 
L 191.100609 170.64 
L 191.125976 170.64 
L 191.227438 162.24 
L 191.328903 170.64 
L 191.455731 162.24 
L 191.531829 162.24 
L 191.658658 170.64 
L 191.684022 170.64 
L 191.810853 162.24 
L 191.886948 170.64 
L 191.912315 162.24 
L 192.444993 162.24 
L 192.47036 170.64 
L 192.546458 162.24 
L 199.293748 162.24 
L 199.319114 153.84 
L 199.395212 162.24 
L 199.750331 162.24 
L 199.775698 153.84 
L 199.851794 162.24 
L 199.953257 162.24 
L 199.978624 153.84 
L 200.05472 162.24 
L 200.232281 162.24 
L 200.257647 153.84 
L 200.333743 162.24 
L 200.511304 162.24 
L 200.587402 153.84 
L 200.612767 162.24 
L 200.764961 162.24 
L 200.891791 153.84 
L 201.018618 162.24 
L 201.043984 162.24 
L 201.120082 153.84 
L 201.145447 162.24 
L 201.24691 162.24 
L 201.373739 153.84 
L 201.500569 162.24 
L 201.525934 162.24 
L 201.5513 153.84 
L 201.627398 162.24 
L 201.754225 162.24 
L 201.77959 153.84 
L 201.855688 162.24 
L 201.90642 162.24 
L 202.033249 153.84 
L 202.058614 153.84 
L 202.185443 162.24 
L 202.21081 162.24 
L 202.337639 153.84 
L 202.388369 153.84 
L 202.5152 162.24 
L 202.591294 153.84 
L 202.616661 162.24 
L 202.74349 162.24 
L 202.844953 153.84 
L 202.895684 162.24 
L 202.946416 153.84 
L 202.971782 153.84 
L 202.997147 162.24 
L 203.073245 153.84 
L 203.09861 153.84 
L 203.123977 162.24 
L 203.200072 153.84 
L 203.250804 153.84 
L 203.377633 162.24 
L 203.453731 153.84 
L 203.479096 162.24 
L 203.529829 162.24 
L 203.656657 153.84 
L 203.682023 153.84 
L 203.808851 162.24 
L 203.834218 162.24 
L 203.961045 153.84 
L 204.011776 153.84 
L 204.138606 162.24 
L 204.265435 153.84 
L 204.366898 153.84 
L 204.392264 162.24 
L 204.468361 153.84 
L 204.519092 153.84 
L 204.59519 162.24 
L 204.620555 153.84 
L 204.747386 153.84 
L 204.772749 162.24 
L 204.848847 153.84 
L 212.281012 153.84 
L 212.40784 145.44 
L 212.53467 153.84 
L 212.839058 153.84 
L 212.864424 145.44 
L 212.940522 153.84 
L 213.118081 153.84 
L 213.194179 145.44 
L 213.219544 153.84 
L 213.270276 153.84 
L 213.397105 145.44 
L 213.422471 145.44 
L 213.523933 153.84 
L 213.650763 145.44 
L 213.777591 153.84 
L 213.879054 153.84 
L 214.005883 145.44 
L 214.031248 145.44 
L 214.107346 153.84 
L 214.132712 145.44 
L 214.158078 145.44 
L 214.259541 153.84 
L 214.386369 145.44 
L 214.487832 153.84 
L 214.614661 145.44 
L 214.640026 145.44 
L 214.766856 153.84 
L 214.817587 153.84 
L 214.944415 145.44 
L 215.121976 145.44 
L 215.223439 153.84 
L 215.248805 145.44 
L 215.324902 153.84 
L 215.400999 153.84 
L 215.527828 145.44 
L 215.57856 145.44 
L 215.705388 153.84 
L 215.832217 145.44 
L 215.908314 145.44 
L 215.959046 153.84 
L 216.009777 145.44 
L 216.060508 145.44 
L 216.085874 153.84 
L 216.161972 145.44 
L 216.187337 145.44 
L 216.2888 153.84 
L 216.415629 145.44 
L 216.466361 145.44 
L 216.59319 153.84 
L 216.720018 145.44 
L 216.745384 145.44 
L 216.872213 153.84 
L 216.973676 145.44 
L 216.999042 153.84 
L 217.075139 145.44 
L 217.201968 145.44 
L 217.30343 153.84 
L 217.430259 145.44 
L 217.506356 145.44 
L 217.531722 153.84 
L 217.60782 145.44 
L 217.633185 145.44 
L 217.658551 153.84 
L 217.734648 145.44 
L 225.24291 145.44 
L 225.293642 137.04 
L 225.344373 145.44 
L 225.521933 145.44 
L 225.59803 137.04 
L 225.623396 145.44 
L 226.07998 145.44 
L 226.156077 137.04 
L 226.181443 145.44 
L 226.384369 145.44 
L 226.460466 137.04 
L 226.485832 145.44 
L 226.536564 145.44 
L 226.663392 137.04 
L 226.714124 137.04 
L 226.815587 145.44 
L 226.91705 137.04 
L 227.043879 145.44 
L 227.221439 145.44 
L 227.297536 137.04 
L 227.322902 145.44 
L 227.398999 145.44 
L 227.44973 137.04 
L 227.500462 145.44 
L 227.678022 145.44 
L 227.804851 137.04 
L 227.93168 145.44 
L 228.033143 137.04 
L 228.159972 145.44 
L 228.2868 137.04 
L 228.41363 137.04 
L 228.515092 145.44 
L 228.616555 137.04 
L 228.743383 145.44 
L 228.768749 145.44 
L 228.895578 137.04 
L 229.022407 137.04 
L 229.149235 145.44 
L 229.250698 137.04 
L 229.276065 145.44 
L 229.352162 137.04 
L 229.529722 137.04 
L 229.555087 145.44 
L 229.631185 137.04 
L 229.65655 137.04 
L 229.681917 145.44 
L 229.758014 137.04 
L 229.859477 137.04 
L 229.935574 145.44 
L 229.960939 137.04 
L 230.037037 137.04 
L 230.062402 145.44 
L 230.1385 137.04 
L 230.239963 137.04 
L 230.265329 145.44 
L 230.341426 137.04 
L 237.596031 137.04 
L 237.621398 128.64 
L 237.697492 137.04 
L 238.07798 137.04 
L 238.103345 128.64 
L 238.179443 137.04 
L 238.255539 137.04 
L 238.280905 128.64 
L 238.357003 137.04 
L 238.458466 137.04 
L 238.559929 128.64 
L 238.636027 137.04 
L 238.661392 128.64 
L 238.73749 128.64 
L 238.864319 137.04 
L 238.915049 137.04 
L 238.965782 128.64 
L 239.016513 137.04 
L 239.04188 137.04 
L 239.143341 128.64 
L 239.27017 137.04 
L 239.422364 137.04 
L 239.549194 128.64 
L 239.62529 128.64 
L 239.726754 137.04 
L 239.802851 128.64 
L 239.828217 137.04 
L 239.904313 137.04 
L 240.031142 128.64 
L 240.056509 128.64 
L 240.183337 137.04 
L 240.310166 137.04 
L 240.436994 128.64 
L 240.538456 137.04 
L 240.589189 128.64 
L 240.639919 137.04 
L 240.665286 137.04 
L 240.792115 128.64 
L 240.842846 128.64 
L 240.969676 137.04 
L 241.096505 128.64 
L 241.172602 128.64 
L 241.299429 137.04 
L 241.324795 137.04 
L 241.451624 128.64 
L 241.553087 128.64 
L 241.629184 137.04 
L 241.65455 128.64 
L 241.730648 128.64 
L 241.832111 137.04 
L 241.95894 128.64 
L 242.035037 128.64 
L 242.08577 137.04 
L 242.136499 128.64 
L 242.237962 128.64 
L 242.288695 137.04 
L 242.339425 128.64 
L 242.491621 128.64 
L 242.516986 137.04 
L 242.593084 128.64 
L 243.480885 128.64 
L 243.506252 137.04 
L 243.582346 128.64 
L 250.456468 128.64 
L 250.507199 120.24 
L 250.55793 128.64 
L 250.583297 128.64 
L 250.608661 120.24 
L 250.684756 128.64 
L 250.735486 128.64 
L 250.760853 120.24 
L 250.836951 128.64 
L 250.96378 128.64 
L 251.065244 120.24 
L 251.141339 128.64 
L 251.166706 120.24 
L 251.192073 120.24 
L 251.318902 128.64 
L 251.369633 128.64 
L 251.496461 120.24 
L 251.597926 128.64 
L 251.62329 120.24 
L 251.699388 128.64 
L 251.750118 128.64 
L 251.775485 120.24 
L 251.851583 128.64 
L 252.029143 128.64 
L 252.155968 120.24 
L 252.2828 128.64 
L 252.308164 128.64 
L 252.384262 120.24 
L 252.409629 128.64 
L 252.460359 128.64 
L 252.561821 120.24 
L 252.663286 128.64 
L 252.790114 120.24 
L 252.866212 128.64 
L 252.891579 120.24 
L 252.916943 120.24 
L 253.043772 128.64 
L 253.1706 120.24 
L 253.195967 120.24 
L 253.272065 128.64 
L 253.297432 120.24 
L 253.322796 120.24 
L 253.449625 128.64 
L 253.576453 120.24 
L 253.60182 120.24 
L 253.703282 128.64 
L 253.804743 120.24 
L 253.855474 128.64 
L 253.906208 120.24 
L 254.159865 120.24 
L 254.286694 128.64 
L 254.388156 120.24 
L 254.514987 128.64 
L 254.591082 120.24 
L 254.616449 128.64 
L 254.641816 128.64 
L 254.768645 120.24 
L 254.794009 128.64 
L 254.870106 120.24 
L 255.022302 120.24 
L 255.073033 128.64 
L 255.123764 120.24 
L 255.199858 120.24 
L 255.225225 128.64 
L 255.301323 120.24 
L 255.783274 120.24 
L 255.859372 128.64 
L 255.884735 120.24 
L 262.758854 120.24 
L 262.784218 111.84 
L 262.860316 120.24 
L 263.443731 120.24 
L 263.494462 111.84 
L 263.545193 120.24 
L 263.672022 120.24 
L 263.697389 111.84 
L 263.773486 120.24 
L 263.900315 120.24 
L 263.925679 111.84 
L 264.001777 120.24 
L 264.356896 120.24 
L 264.432993 111.84 
L 264.45836 120.24 
L 264.534455 120.24 
L 264.585189 111.84 
L 264.63592 120.24 
L 264.762749 120.24 
L 264.889577 111.84 
L 265.016406 120.24 
L 265.041773 120.24 
L 265.06714 111.84 
L 265.143234 120.24 
L 265.168601 120.24 
L 265.270066 111.84 
L 265.371528 120.24 
L 265.447623 111.84 
L 265.472989 120.24 
L 265.549084 120.24 
L 265.625182 111.84 
L 265.650549 120.24 
L 265.675916 120.24 
L 265.802744 111.84 
L 265.853475 111.84 
L 265.929573 120.24 
L 265.954937 111.84 
L 265.980304 111.84 
L 266.056402 120.24 
L 266.081769 111.84 
L 266.107133 111.84 
L 266.208597 120.24 
L 266.310059 111.84 
L 266.411524 120.24 
L 266.487622 111.84 
L 266.512985 120.24 
L 266.538352 120.24 
L 266.665181 111.84 
L 266.715912 111.84 
L 266.741279 120.24 
L 266.817377 111.84 
L 266.918838 111.84 
L 266.969569 120.24 
L 267.020303 111.84 
L 267.071031 111.84 
L 267.172492 120.24 
L 267.299324 111.84 
L 267.324688 111.84 
L 267.375419 120.24 
L 267.426153 111.84 
L 267.705177 111.84 
L 267.781272 120.24 
L 267.806639 111.84 
L 267.984198 111.84 
L 268.034932 120.24 
L 268.085663 111.84 
L 268.187125 111.84 
L 268.212491 120.24 
L 268.288589 111.84 
L 279.043668 111.84 
L 279.119766 95.04 
L 279.14513 111.84 
L 279.449521 111.84 
L 279.474885 95.04 
L 279.550982 111.84 
L 280.058297 111.84 
L 280.134395 95.04 
L 280.159759 111.84 
L 280.210492 111.84 
L 280.235856 95.04 
L 280.311954 111.84 
L 280.590981 111.84 
L 280.717807 95.04 
L 280.844633 111.84 
L 280.971464 95.04 
L 281.09829 111.84 
L 281.199758 111.84 
L 281.326583 95.04 
L 281.453409 111.84 
L 281.529513 111.84 
L 281.554877 95.04 
L 281.630974 111.84 
L 281.681702 111.84 
L 281.808534 95.04 
L 281.935365 111.84 
L 282.011463 111.84 
L 282.112919 95.04 
L 282.239751 111.84 
L 282.341218 95.04 
L 282.468044 111.84 
L 282.569506 95.04 
L 282.696331 111.84 
L 282.924625 111.84 
L 283.026092 95.04 
L 283.152918 111.84 
L 283.178282 95.04 
L 283.25438 111.84 
L 283.305113 111.84 
L 283.406575 95.04 
L 283.431945 111.84 
L 283.508037 95.04 
L 283.533401 95.04 
L 283.660232 111.84 
L 283.685596 95.04 
L 283.7617 111.84 
L 283.812428 111.84 
L 283.91389 95.04 
L 284.040721 111.84 
L 284.116813 95.04 
L 284.142177 111.84 
L 284.192911 111.84 
L 284.218275 95.04 
L 284.294373 111.84 
L 284.345106 111.84 
L 284.471938 95.04 
L 284.54803 111.84 
L 284.5734 95.04 
L 284.598764 95.04 
L 284.700225 111.84 
L 284.827057 95.04 
L 284.928519 111.84 
L 285.05535 95.04 
L 285.106078 95.04 
L 285.207546 111.84 
L 285.334372 95.04 
L 285.385105 95.04 
L 285.511931 111.84 
L 285.638763 95.04 
L 285.664133 95.04 
L 285.790958 111.84 
L 285.841686 111.84 
L 285.968512 95.04 
L 286.044609 95.04 
L 286.171441 111.84 
L 286.298273 95.04 
L 286.399734 111.84 
L 286.52656 95.04 
L 286.577294 111.84 
L 286.628028 95.04 
L 286.678762 95.04 
L 286.754853 111.84 
L 286.780217 95.04 
L 286.856315 95.04 
L 286.881685 111.84 
L 286.957783 95.04 
L 286.983147 95.04 
L 287.033881 111.84 
L 287.084614 95.04 
L 287.262168 95.04 
L 287.388994 111.84 
L 287.490461 95.04 
L 287.566559 111.84 
L 287.591923 95.04 
L 287.668021 95.04 
L 287.693391 111.84 
L 287.769482 95.04 
L 287.997776 95.04 
L 288.073874 111.84 
L 288.099244 95.04 
L 288.251433 95.04 
L 288.276797 111.84 
L 288.352895 95.04 
L 288.403629 95.04 
L 288.428999 111.84 
L 288.505096 95.04 
L 288.606552 95.04 
L 288.631922 111.84 
L 288.70802 95.04 
L 288.885573 95.04 
L 288.987041 111.84 
L 289.088503 95.04 
L 289.1646 111.84 
L 289.189964 95.04 
L 289.291426 95.04 
L 289.418258 111.84 
L 289.519725 95.04 
L 289.545089 111.84 
L 289.621181 95.04 
L 289.646551 95.04 
L 289.671915 111.84 
L 289.748013 95.04 
L 289.798747 95.04 
L 289.900208 111.84 
L 290.027034 95.04 
L 290.153865 95.04 
L 290.179229 111.84 
L 290.255327 95.04 
L 305.62697 95.04 
L 305.652334 78.24 
L 305.728432 95.04 
L 305.905998 95.04 
L 305.931361 78.24 
L 306.007459 95.04 
L 306.032823 95.04 
L 306.058187 78.24 
L 306.134285 95.04 
L 306.337214 95.04 
L 306.362584 78.24 
L 306.438676 95.04 
L 306.46404 95.04 
L 306.48941 78.24 
L 306.565508 95.04 
L 306.869893 95.04 
L 306.895263 78.24 
L 306.97136 95.04 
L 307.225012 95.04 
L 307.250382 78.24 
L 307.326479 95.04 
L 307.504039 95.04 
L 307.580137 78.24 
L 307.605501 95.04 
L 307.630864 95.04 
L 307.681598 78.24 
L 307.732332 95.04 
L 307.783066 95.04 
L 307.909892 78.24 
L 308.036717 95.04 
L 308.062081 95.04 
L 308.087445 78.24 
L 308.163543 95.04 
L 308.366472 95.04 
L 308.417206 78.24 
L 308.467934 95.04 
L 308.493298 95.04 
L 308.594766 78.24 
L 308.670863 95.04 
L 308.696227 78.24 
L 308.721597 78.24 
L 308.823059 95.04 
L 308.924521 78.24 
L 309.025982 95.04 
L 309.152814 78.24 
L 309.27964 95.04 
L 309.305004 95.04 
L 309.406471 78.24 
L 309.533297 95.04 
L 309.558661 78.24 
L 309.634759 95.04 
L 309.660123 95.04 
L 309.786954 78.24 
L 309.863052 78.24 
L 309.964514 95.04 
L 309.989878 78.24 
L 310.065975 95.04 
L 310.091345 95.04 
L 310.218177 78.24 
L 310.268905 95.04 
L 310.319633 78.24 
L 310.345003 78.24 
L 310.446464 95.04 
L 310.522562 78.24 
L 310.547932 95.04 
L 310.573296 95.04 
L 310.700122 78.24 
L 310.725485 78.24 
L 310.852317 95.04 
L 310.979149 78.24 
L 311.105974 95.04 
L 311.207436 78.24 
L 311.308898 95.04 
L 311.359632 78.24 
L 311.410359 95.04 
L 311.486457 95.04 
L 311.587925 78.24 
L 311.613289 95.04 
L 311.689387 78.24 
L 311.765484 78.24 
L 311.89231 95.04 
L 311.968414 78.24 
L 311.993778 95.04 
L 312.019142 95.04 
L 312.145967 78.24 
L 312.272799 95.04 
L 312.399631 78.24 
L 312.526456 95.04 
L 312.653288 78.24 
L 312.754744 95.04 
L 312.856211 78.24 
L 312.983043 95.04 
L 313.008407 95.04 
L 313.135232 78.24 
L 313.262064 78.24 
L 313.287428 95.04 
L 313.363526 78.24 
L 313.439624 78.24 
L 313.515721 95.04 
L 313.541085 78.24 
L 313.617183 78.24 
L 313.718645 95.04 
L 313.845476 78.24 
L 313.870846 95.04 
L 313.946938 78.24 
L 314.07377 78.24 
L 314.200595 95.04 
L 314.251323 78.24 
L 314.302057 95.04 
L 314.327421 95.04 
L 314.454253 78.24 
L 314.581078 78.24 
L 314.657176 95.04 
L 314.682546 78.24 
L 314.910839 78.24 
L 314.961567 95.04 
L 315.012301 78.24 
L 315.316692 78.24 
L 315.342056 95.04 
L 315.418154 78.24 
L 336.446354 78.24 
L 336.471718 44.64 
L 336.54781 78.24 
L 336.852213 78.24 
L 336.928305 44.64 
L 336.953669 78.24 
L 336.979045 78.24 
L 337.004409 44.64 
L 337.080501 78.24 
L 337.334152 78.24 
L 337.359516 44.64 
L 337.43562 78.24 
L 337.816115 78.24 
L 337.866842 44.64 
L 337.91757 78.24 
L 338.09513 78.24 
L 338.120494 44.64 
L 338.196597 78.24 
L 338.450249 78.24 
L 338.475613 44.64 
L 338.551716 78.24 
L 338.881471 78.24 
L 338.906835 44.64 
L 338.982927 78.24 
L 339.23659 78.24 
L 339.261954 44.64 
L 339.338046 78.24 
L 339.41415 78.24 
L 339.439514 44.64 
L 339.515618 78.24 
L 339.693177 78.24 
L 339.743905 44.64 
L 339.794633 78.24 
L 340.07366 78.24 
L 340.099024 44.64 
L 340.175116 78.24 
L 340.200479 78.24 
L 340.327323 44.64 
L 340.454155 78.24 
L 340.504883 78.24 
L 340.580974 44.64 
L 340.606338 78.24 
L 340.73317 78.24 
L 340.834638 44.64 
L 340.961457 78.24 
L 341.215108 78.24 
L 341.341952 44.64 
L 341.468784 78.24 
L 341.697071 78.24 
L 341.722435 44.64 
L 341.798527 78.24 
L 341.874631 78.24 
L 342.00145 44.64 
L 342.128282 78.24 
L 342.255126 78.24 
L 342.331217 44.64 
L 342.356581 78.24 
L 342.660972 78.24 
L 342.7117 44.64 
L 342.762428 78.24 
L 342.787792 78.24 
L 342.88926 44.64 
L 343.016079 78.24 
L 343.142911 44.64 
L 343.269755 78.24 
L 343.396574 44.64 
L 343.421938 44.64 
L 343.54877 78.24 
L 343.675601 78.24 
L 343.802421 44.64 
L 343.929253 78.24 
L 344.030708 44.64 
L 344.15754 78.24 
L 344.20828 78.24 
L 344.309748 44.64 
L 344.436567 78.24 
L 344.563399 44.64 
L 344.588763 44.64 
L 344.715594 78.24 
L 344.740958 78.24 
L 344.791686 44.64 
L 344.842414 78.24 
L 344.867778 78.24 
L 344.969246 44.64 
L 345.096089 78.24 
L 345.172181 78.24 
L 345.273637 44.64 
L 345.400468 78.24 
L 345.47656 78.24 
L 345.603392 44.64 
L 345.679483 78.24 
L 345.704859 44.64 
L 345.730223 44.64 
L 345.857043 78.24 
L 345.958511 44.64 
L 346.059978 78.24 
L 346.136082 44.64 
L 346.161446 78.24 
L 346.212174 78.24 
L 346.339006 44.64 
L 346.415097 44.64 
L 346.541929 78.24 
L 346.668749 44.64 
L 346.694113 44.64 
L 346.820944 78.24 
L 346.947776 78.24 
L 346.97314 44.64 
L 347.049244 78.24 
L 347.099971 78.24 
L 347.226803 44.64 
L 347.353635 78.24 
L 347.378999 78.24 
L 347.404363 44.64 
L 347.480454 78.24 
L 347.63265 78.24 
L 347.734118 44.64 
L 347.860949 78.24 
L 347.886313 78.24 
L 347.987781 44.64 
L 348.1146 78.24 
L 348.16534 78.24 
L 348.29216 44.64 
L 348.317524 78.24 
L 348.393628 44.64 
L 348.520447 44.64 
L 348.545823 78.24 
L 348.621915 44.64 
L 348.723371 44.64 
L 348.850214 78.24 
L 348.875578 78.24 
L 348.977046 44.64 
L 349.078502 78.24 
L 349.205333 44.64 
L 349.281425 78.24 
L 349.306789 44.64 
L 349.357529 44.64 
L 349.484348 78.24 
L 349.560452 78.24 
L 349.66192 44.64 
L 349.687284 78.24 
L 349.763388 44.64 
L 349.788752 44.64 
L 349.890207 78.24 
L 349.991675 44.64 
L 350.118495 78.24 
L 350.143858 78.24 
L 350.245326 44.64 
L 350.321418 78.24 
L 350.346782 44.64 
L 350.372158 44.64 
L 350.473614 78.24 
L 350.600445 44.64 
L 350.727277 78.24 
L 350.854108 44.64 
L 350.98094 78.24 
L 351.10776 44.64 
L 351.209227 78.24 
L 351.259955 44.64 
L 351.310683 78.24 
L 351.336047 78.24 
L 351.462879 44.64 
L 351.53897 44.64 
L 351.640438 78.24 
L 351.716542 44.64 
L 351.741906 78.24 
L 351.792646 78.24 
L 351.894101 44.64 
L 351.919465 78.24 
L 351.995569 44.64 
L 352.147753 44.64 
L 352.173117 78.24 
L 352.24922 44.64 
L 352.37604 44.64 
L 352.42678 78.24 
L 352.477508 44.64 
L 352.528248 44.64 
L 352.553612 78.24 
L 352.629715 44.64 
L 352.959458 44.64 
L 353.08629 78.24 
L 353.111654 78.24 
L 353.213122 44.64 
L 353.238486 78.24 
L 353.314577 44.64 
L 353.365305 44.64 
L 353.492137 78.24 
L 353.61898 44.64 
L 353.771164 44.64 
L 353.897996 78.24 
L 354.024827 44.64 
L 354.050191 78.24 
L 354.126283 44.64 
L 354.151647 44.64 
L 354.278478 78.24 
L 354.303842 78.24 
L 354.430674 44.64 
L 354.532142 78.24 
L 354.658973 44.64 
L 354.709701 44.64 
L 354.735065 78.24 
L 354.811157 44.64 
L 354.937989 44.64 
L 354.988716 78.24 
L 355.039456 44.64 
L 355.06482 44.64 
L 355.140912 78.24 
L 355.166276 44.64 
L 355.217004 44.64 
L 355.318471 78.24 
L 355.445315 44.64 
L 355.521407 78.24 
L 355.546771 44.64 
L 355.673602 44.64 
L 355.775058 78.24 
L 355.90189 44.64 
L 355.977981 44.64 
L 356.003345 78.24 
L 356.079449 44.64 
L 356.180905 44.64 
L 356.206269 78.24 
L 356.282373 44.64 
L 356.688231 44.64 
L 356.764323 78.24 
L 356.789687 44.64 
L 356.992611 44.64 
L 357.017974 78.24 
L 357.094078 44.64 
L 357.753588 44.64 
L 357.804316 78.24 
L 357.855044 44.64 
L 357.956512 44.64 
L 357.981876 78.24 
L 358.057967 44.64 
L 358.565294 44.64 
L 358.590658 78.24 
L 358.66675 44.64 
L 359.097972 44.64 
L 359.123336 78.24 
L 359.19944 44.64 
L 360.112614 44.64 
L 360.137977 78.24 
L 360.214069 44.64 
L 373.581818 44.64 
L 373.581818 44.64 
" clip-path="url(#p7b8957f4ca)" style="fill: none; stroke: #1f77b4; stroke-width: 1.5; stroke-linecap: square"/>
   </g>
   <g id="line2d_30">
    <path d="M 69.218182 246.24 
L 94.330281 246.24 
L 94.583932 212.64 
L 132.632557 212.64 
L 132.886214 195.84 
L 157.74465 195.84 
L 157.998307 179.04 
L 177.022619 179.04 
L 177.276277 170.64 
L 189.451837 170.64 
L 189.705494 162.24 
L 202.388369 162.24 
L 202.642027 153.84 
L 214.817587 153.84 
L 215.071244 145.44 
L 227.754119 145.44 
L 228.007777 137.04 
L 240.183337 137.04 
L 240.436994 128.64 
L 253.119869 128.64 
L 253.373527 120.24 
L 265.549084 120.24 
L 265.802744 111.84 
L 284.827057 111.84 
L 285.080714 95.04 
L 309.93915 95.04 
L 310.192807 78.24 
L 348.241432 78.24 
L 348.495095 44.64 
L 373.353531 44.64 
L 373.353531 44.64 
" clip-path="url(#p7b8957f4ca)" style="fill: none; stroke: #ff7f0e; stroke-width: 1.5; stroke-linecap: square"/>
   </g>
   <g id="patch_3">
    <path d="M 54 256.32 
L 54 34.56 
" style="fill: none; stroke: #000000; stroke-width: 0.8; stroke-linejoin: miter; stroke-linecap: square"/>
   </g>
   <g id="patch_4">
    <path d="M 388.8 256.32 
L 388.8 34.56 
" style="fill: none; stroke: #000000; stroke-width: 0.8; stroke-linejoin: miter; stroke-linecap: square"/>
   </g>
   <g id="patch_5">
    <path d="M 54 256.32 
L 388.8 256.32 
" style="fill: none; stroke: #000000; stroke-width: 0.8; stroke-linejoin: miter; stroke-linecap: square"/>
   </g>
   <g id="patch_6">
    <path d="M 54 34.56 
L 388.8 34.56 
" style="fill: none; stroke: #000000; stroke-width: 0.8; stroke-linejoin: miter; stroke-linecap: square"/>
   </g>
   <g id="legend_1">
    <g id="patch_7">
     <path d="M 61 71.91625 
L 183.3 71.91625 
Q 185.3 71.91625 185.3 69.91625 
L 185.3 41.56 
Q 185.3 39.56 183.3 39.56 
L 61 39.56 
Q 59 39.56 59 41.56 
L 59 69.91625 
Q 59 71.91625 61 71.91625 
z
" style="fill: #ffffff; opacity: 0.8; stroke: #cccccc; stroke-linejoin: miter"/>
    </g>
    <g id="line2d_31">
     <path d="M 63 47.658437 
L 73 47.658437 
L 83 47.658437 
" style="fill: none; stroke: #1f77b4; stroke-width: 1.5; stroke-linecap: square"/>
    </g>
    <g id="text_17">
     <!-- $v\sim U(-0.25, 0.25)$ -->
     <g transform="translate(91 51.158437) scale(0.1 -0.1)">
      <defs>
       <path id="DejaVuSans-223c" d="M 4684 2556 
L 4684 1997 
Q 4356 1753 4076 1645 
Q 3797 1538 3494 1538 
Q 3150 1538 2694 1722 
Q 2663 1734 2641 1744 
Q 2622 1750 2575 1769 
Q 2091 1959 1797 1959 
Q 1522 1959 1253 1840 
Q 984 1722 678 1459 
L 678 2019 
Q 1006 2263 1286 2370 
Q 1566 2478 1869 2478 
Q 2213 2478 2672 2294 
Q 2706 2278 2722 2272 
Q 2741 2266 2788 2247 
Q 3272 2056 3566 2056 
Q 3834 2056 4098 2173 
Q 4363 2291 4684 2556 
z
" transform="scale(0.015625)"/>
       <path id="DejaVuSans-Oblique-55" d="M 991 4666 
L 1625 4666 
L 1075 1831 
Q 1041 1641 1027 1517 
Q 1013 1394 1013 1300 
Q 1013 869 1253 645 
Q 1494 422 1959 422 
Q 2563 422 2898 753 
Q 3234 1084 3378 1831 
L 3928 4666 
L 4563 4666 
L 4000 1753 
Q 3816 809 3300 359 
Q 2784 -91 1888 -91 
Q 1188 -91 780 261 
Q 372 613 372 1216 
Q 372 1325 387 1461 
Q 403 1597 434 1753 
L 991 4666 
z
" transform="scale(0.015625)"/>
       <path id="DejaVuSans-2e" d="M 684 794 
L 1344 794 
L 1344 0 
L 684 0 
L 684 794 
z
" transform="scale(0.015625)"/>
       <path id="DejaVuSans-35" d="M 691 4666 
L 3169 4666 
L 3169 4134 
L 1269 4134 
L 1269 2991 
Q 1406 3038 1543 3061 
Q 1681 3084 1819 3084 
Q 2600 3084 3056 2656 
Q 3513 2228 3513 1497 
Q 3513 744 3044 326 
Q 2575 -91 1722 -91 
Q 1428 -91 1123 -41 
Q 819 9 494 109 
L 494 744 
Q 775 591 1075 516 
Q 1375 441 1709 441 
Q 2250 441 2565 725 
Q 2881 1009 2881 1497 
Q 2881 1984 2565 2268 
Q 2250 2553 1709 2553 
Q 1456 2553 1204 2497 
Q 953 2441 691 2322 
L 691 4666 
z
" transform="scale(0.015625)"/>
       <path id="DejaVuSans-2c" d="M 750 794 
L 1409 794 
L 1409 256 
L 897 -744 
L 494 -744 
L 750 256 
L 750 794 
z
" transform="scale(0.015625)"/>
      </defs>
      <use xlink:href="#DejaVuSans-Oblique-76" transform="translate(0 0.125)"/>
      <use xlink:href="#DejaVuSans-223c" transform="translate(78.662109 0.125)"/>
      <use xlink:href="#DejaVuSans-Oblique-55" transform="translate(181.933594 0.125)"/>
      <use xlink:href="#DejaVuSans-28" transform="translate(255.126953 0.125)"/>
      <use xlink:href="#DejaVuSans-2212" transform="translate(294.140625 0.125)"/>
      <use xlink:href="#DejaVuSans-30" transform="translate(377.929688 0.125)"/>
      <use xlink:href="#DejaVuSans-2e" transform="translate(441.552734 0.125)"/>
      <use xlink:href="#DejaVuSans-32" transform="translate(467.839844 0.125)"/>
      <use xlink:href="#DejaVuSans-35" transform="translate(531.462891 0.125)"/>
      <use xlink:href="#DejaVuSans-2c" transform="translate(595.085938 0.125)"/>
      <use xlink:href="#DejaVuSans-30" transform="translate(646.355469 0.125)"/>
      <use xlink:href="#DejaVuSans-2e" transform="translate(709.978516 0.125)"/>
      <use xlink:href="#DejaVuSans-32" transform="translate(736.265625 0.125)"/>
      <use xlink:href="#DejaVuSans-35" transform="translate(799.888672 0.125)"/>
      <use xlink:href="#DejaVuSans-29" transform="translate(863.511719 0.125)"/>
     </g>
    </g>
    <g id="line2d_32">
     <path d="M 63 62.336562 
L 73 62.336562 
L 83 62.336562 
" style="fill: none; stroke: #ff7f0e; stroke-width: 1.5; stroke-linecap: square"/>
    </g>
    <g id="text_18">
     <!-- $v=0$ -->
     <g transform="translate(91 65.836562) scale(0.1 -0.1)">
      <defs>
       <path id="DejaVuSans-3d" d="M 678 2906 
L 4684 2906 
L 4684 2381 
L 678 2381 
L 678 2906 
z
M 678 1631 
L 4684 1631 
L 4684 1100 
L 678 1100 
L 678 1631 
z
" transform="scale(0.015625)"/>
      </defs>
      <use xlink:href="#DejaVuSans-Oblique-76" transform="translate(0 0.78125)"/>
      <use xlink:href="#DejaVuSans-3d" transform="translate(78.662109 0.78125)"/>
      <use xlink:href="#DejaVuSans-30" transform="translate(181.933594 0.78125)"/>
     </g>
    </g>
   </g>
  </g>
 </g>
 <defs>
  <clipPath id="p7b8957f4ca">
   <rect x="54" y="34.56" width="334.8" height="221.76"/>
  </clipPath>
 </defs>
</svg>
