<?xml version="1.0" encoding="utf-8" standalone="no"?>
<!DOCTYPE svg PUBLIC "-//W3C//DTD SVG 1.1//EN"
  "http://www.w3.org/Graphics/SVG/1.1/DTD/svg11.dtd">
<svg xmlns:xlink="http://www.w3.org/1999/xlink" width="432pt" height="288pt" viewBox="0 0 432 288" xmlns="http://www.w3.org/2000/svg" version="1.1">
 <metadata>
  <rdf:RDF xmlns:dc="http://purl.org/dc/elements/1.1/" xmlns:cc="http://creativecommons.org/ns#" xmlns:rdf="http://www.w3.org/1999/02/22-rdf-syntax-ns#">
   <cc:Work>
    <dc:type rdf:resource="http://purl.org/dc/dcmitype/StillImage"/>
    <dc:date>2026-03-09T19:46:10.479076</dc:date>
    <dc:format>image/svg+xml</dc:format>
    <dc:creator>
     <cc:Agent>
      <dc:title>Matplotlib v3.10.6, https://matplotlib.org/</dc:title>
     </cc:Agent>
    </dc:creator>
   </cc:Work>
  </rdf:RDF>
 </metadata>
 <defs>
  <style type="text/css">*{stroke-linejoin: round; stroke-linecap: butt}</style>
 </defs>
 <g id="figure_1">
  <g id="patch_1">
   <path d="M 0 288 
L 432 288 
L 432 0 
L 0 0 
z
" style="fill: #ffffff"/>
  </g>
  <g id="axes_1">
   <g id="patch_2">
    <path d="M 54 256.32 
L 388.8 256.32 
L 388.8 34.56 
L 54 34.56 
z
" style="fill: #ffffff"/>
   </g>
   <g id="matplotlib.axis_1">
    <g id="xtick_1">
     <g id="line2d_1">
      <path d="M 69.218182 256.32 
L 69.218182 34.56 
" clip-path="url(#pfc9ea86640)" style="fill: none; stroke: #b0b0b0; stroke-width: 0.8; stroke-linecap: square"/>
     </g>
     <g id="line2d_2">
      <defs>
       <path id="m5516da161f" d="M 0 0 
L 0 3.5 
" style="stroke: #000000; stroke-width: 0.8"/>
      </defs>
      <g>
       <use xlink:href="#m5516da161f" x="69.218182" y="256.32" style="stroke: #000000; stroke-width: 0.8"/>
      </g>
     </g>
     <g id="text_1">
      <!-- −6 -->
      <g transform="translate(61.847088 270.918437) scale(0.1 -0.1)">
       <defs>
        <path id="DejaVuSans-2212" d="M 678 2272 
L 4684 2272 
L 4684 1741 
L 678 1741 
L 678 2272 
z
" transform="scale(0.015625)"/>
        <path id="DejaVuSans-36" d="M 2113 2584 
Q 1688 2584 1439 2293 
Q 1191 2003 1191 1497 
Q 1191 994 1439 701 
Q 1688 409 2113 409 
Q 2538 409 2786 701 
Q 3034 994 3034 1497 
Q 3034 2003 2786 2293 
Q 2538 2584 2113 2584 
z
M 3366 4563 
L 3366 3988 
Q 3128 4100 2886 4159 
Q 2644 4219 2406 4219 
Q 1781 4219 1451 3797 
Q 1122 3375 1075 2522 
Q 1259 2794 1537 2939 
Q 1816 3084 2150 3084 
Q 2853 3084 3261 2657 
Q 3669 2231 3669 1497 
Q 3669 778 3244 343 
Q 2819 -91 2113 -91 
Q 1303 -91 875 529 
Q 447 1150 447 2328 
Q 447 3434 972 4092 
Q 1497 4750 2381 4750 
Q 2619 4750 2861 4703 
Q 3103 4656 3366 4563 
z
" transform="scale(0.015625)"/>
       </defs>
       <use xlink:href="#DejaVuSans-2212"/>
       <use xlink:href="#DejaVuSans-36" transform="translate(83.789062 0)"/>
      </g>
     </g>
    </g>
    <g id="xtick_2">
     <g id="line2d_3">
      <path d="M 119.949682 256.32 
L 119.949682 34.56 
" clip-path="url(#pfc9ea86640)" style="fill: none; stroke: #b0b0b0; stroke-width: 0.8; stroke-linecap: square"/>
     </g>
     <g id="line2d_4">
      <g>
       <use xlink:href="#m5516da161f" x="119.949682" y="256.32" style="stroke: #000000; stroke-width: 0.8"/>
      </g>
     </g>
     <g id="text_2">
      <!-- −4 -->
      <g transform="translate(112.578588 270.918437) scale(0.1 -0.1)">
       <defs>
        <path id="DejaVuSans-34" d="M 2419 4116 
L 825 1625 
L 2419 1625 
L 2419 4116 
z
M 2253 4666 
L 3047 4666 
L 3047 1625 
L 3713 1625 
L 3713 1100 
L 3047 1100 
L 3047 0 
L 2419 0 
L 2419 1100 
L 313 1100 
L 313 1709 
L 2253 4666 
z
" transform="scale(0.015625)"/>
       </defs>
       <use xlink:href="#DejaVuSans-2212"/>
       <use xlink:href="#DejaVuSans-34" transform="translate(83.789062 0)"/>
      </g>
     </g>
    </g>
    <g id="xtick_3">
     <g id="line2d_5">
      <path d="M 170.681182 256.32 
L 170.681182 34.56 
" clip-path="url(#pfc9ea86640)" style="fill: none; stroke: #b0b0b0; stroke-width: 0.8; stroke-linecap: square"/>
     </g>
     <g id="line2d_6">
      <g>
       <use xlink:href="#m5516da161f" x="170.681182" y="256.32" style="stroke: #000000; stroke-width: 0.8"/>
      </g>
     </g>
     <g id="text_3">
      <!-- −2 -->
      <g transform="translate(163.310088 270.918437) scale(0.1 -0.1)">
       <defs>
        <path id="DejaVuSans-32" d="M 1228 531 
L 3431 531 
L 3431 0 
L 469 0 
L 469 531 
Q 828 903 1448 1529 
Q 2069 2156 2228 2338 
Q 2531 2678 2651 2914 
Q 2772 3150 2772 3378 
Q 2772 3750 2511 3984 
Q 2250 4219 1831 4219 
Q 1534 4219 1204 4116 
Q 875 4013 500 3803 
L 500 4441 
Q 881 4594 1212 4672 
Q 1544 4750 1819 4750 
Q 2544 4750 2975 4387 
Q 3406 4025 3406 3419 
Q 3406 3131 3298 2873 
Q 3191 2616 2906 2266 
Q 2828 2175 2409 1742 
Q 1991 1309 1228 531 
z
" transform="scale(0.015625)"/>
       </defs>
       <use xlink:href="#DejaVuSans-2212"/>
       <use xlink:href="#DejaVuSans-32" transform="translate(83.789062 0)"/>
      </g>
     </g>
    </g>
    <g id="xtick_4">
     <g id="line2d_7">
      <path d="M 221.412682 256.32 
L 221.412682 34.56 
" clip-path="url(#pfc9ea86640)" style="fill: none; stroke: #b0b0b0; stroke-width: 0.8; stroke-linecap: square"/>
     </g>
     <g id="line2d_8">
      <g>
       <use xlink:href="#m5516da161f" x="221.412682" y="256.32" style="stroke: #000000; stroke-width: 0.8"/>
      </g>
     </g>
     <g id="text_4">
      <!-- 0 -->
      <g transform="translate(218.231432 270.918437) scale(0.1 -0.1)">
       <defs>
        <path id="DejaVuSans-30" d="M 2034 4250 
Q 1547 4250 1301 3770 
Q 1056 3291 1056 2328 
Q 1056 1369 1301 889 
Q 1547 409 2034 409 
Q 2525 409 2770 889 
Q 3016 1369 3016 2328 
Q 3016 3291 2770 3770 
Q 2525 4250 2034 4250 
z
M 2034 4750 
Q 2819 4750 3233 4129 
Q 3647 3509 3647 2328 
Q 3647 1150 3233 529 
Q 2819 -91 2034 -91 
Q 1250 -91 836 529 
Q 422 1150 422 2328 
Q 422 3509 836 4129 
Q 1250 4750 2034 4750 
z
" transform="scale(0.015625)"/>
       </defs>
       <use xlink:href="#DejaVuSans-30"/>
      </g>
     </g>
    </g>
    <g id="xtick_5">
     <g id="line2d_9">
      <path d="M 272.144182 256.32 
L 272.144182 34.56 
" clip-path="url(#pfc9ea86640)" style="fill: none; stroke: #b0b0b0; stroke-width: 0.8; stroke-linecap: square"/>
     </g>
     <g id="line2d_10">
      <g>
       <use xlink:href="#m5516da161f" x="272.144182" y="256.32" style="stroke: #000000; stroke-width: 0.8"/>
      </g>
     </g>
     <g id="text_5">
      <!-- 2 -->
      <g transform="translate(268.962932 270.918437) scale(0.1 -0.1)">
       <use xlink:href="#DejaVuSans-32"/>
      </g>
     </g>
    </g>
    <g id="xtick_6">
     <g id="line2d_11">
      <path d="M 322.875682 256.32 
L 322.875682 34.56 
" clip-path="url(#pfc9ea86640)" style="fill: none; stroke: #b0b0b0; stroke-width: 0.8; stroke-linecap: square"/>
     </g>
     <g id="line2d_12">
      <g>
       <use xlink:href="#m5516da161f" x="322.875682" y="256.32" style="stroke: #000000; stroke-width: 0.8"/>
      </g>
     </g>
     <g id="text_6">
      <!-- 4 -->
      <g transform="translate(319.694432 270.918437) scale(0.1 -0.1)">
       <use xlink:href="#DejaVuSans-34"/>
      </g>
     </g>
    </g>
    <g id="xtick_7">
     <g id="line2d_13">
      <path d="M 373.607182 256.32 
L 373.607182 34.56 
" clip-path="url(#pfc9ea86640)" style="fill: none; stroke: #b0b0b0; stroke-width: 0.8; stroke-linecap: square"/>
     </g>
     <g id="line2d_14">
      <g>
       <use xlink:href="#m5516da161f" x="373.607182" y="256.32" style="stroke: #000000; stroke-width: 0.8"/>
      </g>
     </g>
     <g id="text_7">
      <!-- 6 -->
      <g transform="translate(370.425932 270.918437) scale(0.1 -0.1)">
       <use xlink:href="#DejaVuSans-36"/>
      </g>
     </g>
    </g>
    <g id="text_8">
     <!-- $x$ -->
     <g transform="translate(218.4 284.596563) scale(0.1 -0.1)">
      <defs>
       <path id="DejaVuSans-Oblique-78" d="M 3841 3500 
L 2234 1784 
L 3219 0 
L 2559 0 
L 1819 1388 
L 531 0 
L -166 0 
L 1556 1844 
L 641 3500 
L 1300 3500 
L 1972 2234 
L 3144 3500 
L 3841 3500 
z
" transform="scale(0.015625)"/>
      </defs>
      <use xlink:href="#DejaVuSans-Oblique-78" transform="translate(0 0.3125)"/>
     </g>
    </g>
   </g>
   <g id="matplotlib.axis_2">
    <g id="ytick_1">
     <g id="line2d_15">
      <path d="M 54 246.24 
L 388.8 246.24 
" clip-path="url(#pfc9ea86640)" style="fill: none; stroke: #b0b0b0; stroke-width: 0.8; stroke-linecap: square"/>
     </g>
     <g id="line2d_16">
      <defs>
       <path id="m39c1f51c98" d="M 0 0 
L -3.5 0 
" style="stroke: #000000; stroke-width: 0.8"/>
      </defs>
      <g>
       <use xlink:href="#m39c1f51c98" x="54" y="246.24" style="stroke: #000000; stroke-width: 0.8"/>
      </g>
     </g>
     <g id="text_9">
      <!-- −6 -->
      <g transform="translate(32.257812 250.039219) scale(0.1 -0.1)">
       <use xlink:href="#DejaVuSans-2212"/>
       <use xlink:href="#DejaVuSans-36" transform="translate(83.789062 0)"/>
      </g>
     </g>
    </g>
    <g id="ytick_2">
     <g id="line2d_17">
      <path d="M 54 212.64 
L 388.8 212.64 
" clip-path="url(#pfc9ea86640)" style="fill: none; stroke: #b0b0b0; stroke-width: 0.8; stroke-linecap: square"/>
     </g>
     <g id="line2d_18">
      <g>
       <use xlink:href="#m39c1f51c98" x="54" y="212.64" style="stroke: #000000; stroke-width: 0.8"/>
      </g>
     </g>
     <g id="text_10">
      <!-- −4 -->
      <g transform="translate(32.257812 216.439219) scale(0.1 -0.1)">
       <use xlink:href="#DejaVuSans-2212"/>
       <use xlink:href="#DejaVuSans-34" transform="translate(83.789062 0)"/>
      </g>
     </g>
    </g>
    <g id="ytick_3">
     <g id="line2d_19">
      <path d="M 54 179.04 
L 388.8 179.04 
" clip-path="url(#pfc9ea86640)" style="fill: none; stroke: #b0b0b0; stroke-width: 0.8; stroke-linecap: square"/>
     </g>
     <g id="line2d_20">
      <g>
       <use xlink:href="#m39c1f51c98" x="54" y="179.04" style="stroke: #000000; stroke-width: 0.8"/>
      </g>
     </g>
     <g id="text_11">
      <!-- −2 -->
      <g transform="translate(32.257812 182.839219) scale(0.1 -0.1)">
       <use xlink:href="#DejaVuSans-2212"/>
       <use xlink:href="#DejaVuSans-32" transform="translate(83.789062 0)"/>
      </g>
     </g>
    </g>
    <g id="ytick_4">
     <g id="line2d_21">
      <path d="M 54 145.44 
L 388.8 145.44 
" clip-path="url(#pfc9ea86640)" style="fill: none; stroke: #b0b0b0; stroke-width: 0.8; stroke-linecap: square"/>
     </g>
     <g id="line2d_22">
      <g>
       <use xlink:href="#m39c1f51c98" x="54" y="145.44" style="stroke: #000000; stroke-width: 0.8"/>
      </g>
     </g>
     <g id="text_12">
      <!-- 0 -->
      <g transform="translate(40.6375 149.239219) scale(0.1 -0.1)">
       <use xlink:href="#DejaVuSans-30"/>
      </g>
     </g>
    </g>
    <g id="ytick_5">
     <g id="line2d_23">
      <path d="M 54 111.84 
L 388.8 111.84 
" clip-path="url(#pfc9ea86640)" style="fill: none; stroke: #b0b0b0; stroke-width: 0.8; stroke-linecap: square"/>
     </g>
     <g id="line2d_24">
      <g>
       <use xlink:href="#m39c1f51c98" x="54" y="111.84" style="stroke: #000000; stroke-width: 0.8"/>
      </g>
     </g>
     <g id="text_13">
      <!-- 2 -->
      <g transform="translate(40.6375 115.639219) scale(0.1 -0.1)">
       <use xlink:href="#DejaVuSans-32"/>
      </g>
     </g>
    </g>
    <g id="ytick_6">
     <g id="line2d_25">
      <path d="M 54 78.24 
L 388.8 78.24 
" clip-path="url(#pfc9ea86640)" style="fill: none; stroke: #b0b0b0; stroke-width: 0.8; stroke-linecap: square"/>
     </g>
     <g id="line2d_26">
      <g>
       <use xlink:href="#m39c1f51c98" x="54" y="78.24" style="stroke: #000000; stroke-width: 0.8"/>
      </g>
     </g>
     <g id="text_14">
      <!-- 4 -->
      <g transform="translate(40.6375 82.039219) scale(0.1 -0.1)">
       <use xlink:href="#DejaVuSans-34"/>
      </g>
     </g>
    </g>
    <g id="ytick_7">
     <g id="line2d_27">
      <path d="M 54 44.64 
L 388.8 44.64 
" clip-path="url(#pfc9ea86640)" style="fill: none; stroke: #b0b0b0; stroke-width: 0.8; stroke-linecap: square"/>
     </g>
     <g id="line2d_28">
      <g>
       <use xlink:href="#m39c1f51c98" x="54" y="44.64" style="stroke: #000000; stroke-width: 0.8"/>
      </g>
     </g>
     <g id="text_15">
      <!-- 6 -->
      <g transform="translate(40.6375 48.439219) scale(0.1 -0.1)">
       <use xlink:href="#DejaVuSans-36"/>
      </g>
     </g>
    </g>
    <g id="text_16">
     <!-- Sample of ${\rm fp4}(x + v)$ -->
     <g transform="translate(26.157812 196.29) rotate(-90) scale(0.1 -0.1)">
      <defs>
       <path id="DejaVuSans-53" d="M 3425 4513 
L 3425 3897 
Q 3066 4069 2747 4153 
Q 2428 4238 2131 4238 
Q 1616 4238 1336 4038 
Q 1056 3838 1056 3469 
Q 1056 3159 1242 3001 
Q 1428 2844 1947 2747 
L 2328 2669 
Q 3034 2534 3370 2195 
Q 3706 1856 3706 1288 
Q 3706 609 3251 259 
Q 2797 -91 1919 -91 
Q 1588 -91 1214 -16 
Q 841 59 441 206 
L 441 856 
Q 825 641 1194 531 
Q 1563 422 1919 422 
Q 2459 422 2753 634 
Q 3047 847 3047 1241 
Q 3047 1584 2836 1778 
Q 2625 1972 2144 2069 
L 1759 2144 
Q 1053 2284 737 2584 
Q 422 2884 422 3419 
Q 422 4038 858 4394 
Q 1294 4750 2059 4750 
Q 2388 4750 2728 4690 
Q 3069 4631 3425 4513 
z
" transform="scale(0.015625)"/>
       <path id="DejaVuSans-61" d="M 2194 1759 
Q 1497 1759 1228 1600 
Q 959 1441 959 1056 
Q 959 750 1161 570 
Q 1363 391 1709 391 
Q 2188 391 2477 730 
Q 2766 1069 2766 1631 
L 2766 1759 
L 2194 1759 
z
M 3341 1997 
L 3341 0 
L 2766 0 
L 2766 531 
Q 2569 213 2275 61 
Q 1981 -91 1556 -91 
Q 1019 -91 701 211 
Q 384 513 384 1019 
Q 384 1609 779 1909 
Q 1175 2209 1959 2209 
L 2766 2209 
L 2766 2266 
Q 2766 2663 2505 2880 
Q 2244 3097 1772 3097 
Q 1472 3097 1187 3025 
Q 903 2953 641 2809 
L 641 3341 
Q 956 3463 1253 3523 
Q 1550 3584 1831 3584 
Q 2591 3584 2966 3190 
Q 3341 2797 3341 1997 
z
" transform="scale(0.015625)"/>
       <path id="DejaVuSans-6d" d="M 3328 2828 
Q 3544 3216 3844 3400 
Q 4144 3584 4550 3584 
Q 5097 3584 5394 3201 
Q 5691 2819 5691 2113 
L 5691 0 
L 5113 0 
L 5113 2094 
Q 5113 2597 4934 2840 
Q 4756 3084 4391 3084 
Q 3944 3084 3684 2787 
Q 3425 2491 3425 1978 
L 3425 0 
L 2847 0 
L 2847 2094 
Q 2847 2600 2669 2842 
Q 2491 3084 2119 3084 
Q 1678 3084 1418 2786 
Q 1159 2488 1159 1978 
L 1159 0 
L 581 0 
L 581 3500 
L 1159 3500 
L 1159 2956 
Q 1356 3278 1631 3431 
Q 1906 3584 2284 3584 
Q 2666 3584 2933 3390 
Q 3200 3197 3328 2828 
z
" transform="scale(0.015625)"/>
       <path id="DejaVuSans-70" d="M 1159 525 
L 1159 -1331 
L 581 -1331 
L 581 3500 
L 1159 3500 
L 1159 2969 
Q 1341 3281 1617 3432 
Q 1894 3584 2278 3584 
Q 2916 3584 3314 3078 
Q 3713 2572 3713 1747 
Q 3713 922 3314 415 
Q 2916 -91 2278 -91 
Q 1894 -91 1617 61 
Q 1341 213 1159 525 
z
M 3116 1747 
Q 3116 2381 2855 2742 
Q 2594 3103 2138 3103 
Q 1681 3103 1420 2742 
Q 1159 2381 1159 1747 
Q 1159 1113 1420 752 
Q 1681 391 2138 391 
Q 2594 391 2855 752 
Q 3116 1113 3116 1747 
z
" transform="scale(0.015625)"/>
       <path id="DejaVuSans-6c" d="M 603 4863 
L 1178 4863 
L 1178 0 
L 603 0 
L 603 4863 
z
" transform="scale(0.015625)"/>
       <path id="DejaVuSans-65" d="M 3597 1894 
L 3597 1613 
L 953 1613 
Q 991 1019 1311 708 
Q 1631 397 2203 397 
Q 2534 397 2845 478 
Q 3156 559 3463 722 
L 3463 178 
Q 3153 47 2828 -22 
Q 2503 -91 2169 -91 
Q 1331 -91 842 396 
Q 353 884 353 1716 
Q 353 2575 817 3079 
Q 1281 3584 2069 3584 
Q 2775 3584 3186 3129 
Q 3597 2675 3597 1894 
z
M 3022 2063 
Q 3016 2534 2758 2815 
Q 2500 3097 2075 3097 
Q 1594 3097 1305 2825 
Q 1016 2553 972 2059 
L 3022 2063 
z
" transform="scale(0.015625)"/>
       <path id="DejaVuSans-20" transform="scale(0.015625)"/>
       <path id="DejaVuSans-6f" d="M 1959 3097 
Q 1497 3097 1228 2736 
Q 959 2375 959 1747 
Q 959 1119 1226 758 
Q 1494 397 1959 397 
Q 2419 397 2687 759 
Q 2956 1122 2956 1747 
Q 2956 2369 2687 2733 
Q 2419 3097 1959 3097 
z
M 1959 3584 
Q 2709 3584 3137 3096 
Q 3566 2609 3566 1747 
Q 3566 888 3137 398 
Q 2709 -91 1959 -91 
Q 1206 -91 779 398 
Q 353 888 353 1747 
Q 353 2609 779 3096 
Q 1206 3584 1959 3584 
z
" transform="scale(0.015625)"/>
       <path id="DejaVuSans-66" d="M 2375 4863 
L 2375 4384 
L 1825 4384 
Q 1516 4384 1395 4259 
Q 1275 4134 1275 3809 
L 1275 3500 
L 2222 3500 
L 2222 3053 
L 1275 3053 
L 1275 0 
L 697 0 
L 697 3053 
L 147 3053 
L 147 3500 
L 697 3500 
L 697 3744 
Q 697 4328 969 4595 
Q 1241 4863 1831 4863 
L 2375 4863 
z
" transform="scale(0.015625)"/>
       <path id="DejaVuSans-28" d="M 1984 4856 
Q 1566 4138 1362 3434 
Q 1159 2731 1159 2009 
Q 1159 1288 1364 580 
Q 1569 -128 1984 -844 
L 1484 -844 
Q 1016 -109 783 600 
Q 550 1309 550 2009 
Q 550 2706 781 3412 
Q 1013 4119 1484 4856 
L 1984 4856 
z
" transform="scale(0.015625)"/>
       <path id="DejaVuSans-2b" d="M 2944 4013 
L 2944 2272 
L 4684 2272 
L 4684 1741 
L 2944 1741 
L 2944 0 
L 2419 0 
L 2419 1741 
L 678 1741 
L 678 2272 
L 2419 2272 
L 2419 4013 
L 2944 4013 
z
" transform="scale(0.015625)"/>
       <path id="DejaVuSans-Oblique-76" d="M 459 3500 
L 1069 3500 
L 1581 525 
L 3256 3500 
L 3866 3500 
L 1875 0 
L 1100 0 
L 459 3500 
z
" transform="scale(0.015625)"/>
       <path id="DejaVuSans-29" d="M 513 4856 
L 1013 4856 
Q 1481 4119 1714 3412 
Q 1947 2706 1947 2009 
Q 1947 1309 1714 600 
Q 1481 -109 1013 -844 
L 513 -844 
Q 928 -128 1133 580 
Q 1338 1288 1338 2009 
Q 1338 2731 1133 3434 
Q 928 4138 513 4856 
z
" transform="scale(0.015625)"/>
      </defs>
      <use xlink:href="#DejaVuSans-53" transform="translate(0 0.015625)"/>
      <use xlink:href="#DejaVuSans-61" transform="translate(63.476562 0.015625)"/>
      <use xlink:href="#DejaVuSans-6d" transform="translate(124.755859 0.015625)"/>
      <use xlink:href="#DejaVuSans-70" transform="translate(222.167969 0.015625)"/>
      <use xlink:href="#DejaVuSans-6c" transform="translate(285.644531 0.015625)"/>
      <use xlink:href="#DejaVuSans-65" transform="translate(313.427734 0.015625)"/>
      <use xlink:href="#DejaVuSans-20" transform="translate(374.951172 0.015625)"/>
      <use xlink:href="#DejaVuSans-6f" transform="translate(406.738281 0.015625)"/>
      <use xlink:href="#DejaVuSans-66" transform="translate(467.919922 0.015625)"/>
      <use xlink:href="#DejaVuSans-20" transform="translate(503.125 0.015625)"/>
      <use xlink:href="#DejaVuSans-66" transform="translate(534.912109 0.015625)"/>
      <use xlink:href="#DejaVuSans-70" transform="translate(570.117188 0.015625)"/>
      <use xlink:href="#DejaVuSans-34" transform="translate(633.59375 0.015625)"/>
      <use xlink:href="#DejaVuSans-28" transform="translate(697.216797 0.015625)"/>
      <use xlink:href="#DejaVuSans-Oblique-78" transform="translate(736.230469 0.015625)"/>
      <use xlink:href="#DejaVuSans-2b" transform="translate(814.892578 0.015625)"/>
      <use xlink:href="#DejaVuSans-Oblique-76" transform="translate(918.164062 0.015625)"/>
      <use xlink:href="#DejaVuSans-29" transform="translate(977.34375 0.015625)"/>
     </g>
    </g>
   </g>
   <g id="line2d_29">
    <path d="M 69.218182 246.24 
L 83.397636 246.24 
L 83.423 212.64 
L 83.499092 246.24 
L 84.08251 246.24 
L 84.107874 212.64 
L 84.183978 246.24 
L 84.285434 246.24 
L 84.310798 212.64 
L 84.386902 246.24 
L 84.640553 246.24 
L 84.665917 212.64 
L 84.742021 246.24 
L 85.249335 246.24 
L 85.274699 212.64 
L 85.350803 246.24 
L 85.452258 246.24 
L 85.477622 212.64 
L 85.553726 246.24 
L 85.57909 246.24 
L 85.629818 212.64 
L 85.680546 246.24 
L 86.035677 246.24 
L 86.061041 212.64 
L 86.137132 246.24 
L 86.2386 246.24 
L 86.365432 212.64 
L 86.390796 212.64 
L 86.466887 246.24 
L 86.492251 212.64 
L 86.517615 212.64 
L 86.644447 246.24 
L 86.771291 246.24 
L 86.796655 212.64 
L 86.872746 246.24 
L 86.948838 246.24 
L 86.974214 212.64 
L 87.050306 246.24 
L 87.126398 246.24 
L 87.253229 212.64 
L 87.354685 246.24 
L 87.380061 212.64 
L 87.456153 246.24 
L 87.78592 246.24 
L 87.912739 212.64 
L 88.014207 246.24 
L 88.141027 212.64 
L 88.166391 212.64 
L 88.293222 246.24 
L 88.369314 212.64 
L 88.39469 246.24 
L 88.445418 246.24 
L 88.546885 212.64 
L 88.673717 246.24 
L 88.851277 246.24 
L 88.978096 212.64 
L 89.104928 246.24 
L 89.130292 246.24 
L 89.155656 212.64 
L 89.231759 246.24 
L 89.307851 246.24 
L 89.434683 212.64 
L 89.536151 246.24 
L 89.662982 212.64 
L 89.688346 212.64 
L 89.789802 246.24 
L 89.815178 212.64 
L 89.89127 246.24 
L 89.967361 246.24 
L 90.043465 212.64 
L 90.068829 246.24 
L 90.144921 246.24 
L 90.246388 212.64 
L 90.32248 246.24 
L 90.347844 212.64 
L 90.398572 212.64 
L 90.474676 246.24 
L 90.50004 212.64 
L 90.55078 212.64 
L 90.652247 246.24 
L 90.753703 212.64 
L 90.880535 246.24 
L 90.905899 246.24 
L 90.931262 212.64 
L 91.007354 246.24 
L 91.058094 246.24 
L 91.184914 212.64 
L 91.311745 246.24 
L 91.337121 246.24 
L 91.463953 212.64 
L 91.489317 212.64 
L 91.565409 246.24 
L 91.590773 212.64 
L 91.641512 212.64 
L 91.768332 246.24 
L 91.8698 246.24 
L 91.971255 212.64 
L 92.098087 246.24 
L 92.199543 246.24 
L 92.250283 212.64 
L 92.30101 246.24 
L 92.326374 246.24 
L 92.453218 212.64 
L 92.580038 246.24 
L 92.656142 212.64 
L 92.681505 246.24 
L 92.706869 246.24 
L 92.782961 212.64 
L 92.808325 246.24 
L 92.833689 246.24 
L 92.909793 212.64 
L 92.935157 246.24 
L 92.960521 246.24 
L 93.087352 212.64 
L 93.214172 246.24 
L 93.264912 212.64 
L 93.31564 246.24 
L 93.391743 246.24 
L 93.467847 212.64 
L 93.493211 246.24 
L 93.569303 246.24 
L 93.670771 212.64 
L 93.772226 246.24 
L 93.873694 212.64 
L 93.949786 246.24 
L 93.97515 212.64 
L 94.051241 212.64 
L 94.101981 246.24 
L 94.152709 212.64 
L 94.178085 212.64 
L 94.304917 246.24 
L 94.431736 212.64 
L 94.4571 212.64 
L 94.50784 246.24 
L 94.558568 212.64 
L 94.583932 212.64 
L 94.6854 246.24 
L 94.812219 212.64 
L 94.913687 246.24 
L 95.040506 212.64 
L 95.091246 212.64 
L 95.167338 246.24 
L 95.192714 212.64 
L 95.218078 212.64 
L 95.34491 246.24 
L 95.421001 212.64 
L 95.446365 246.24 
L 95.547833 246.24 
L 95.649289 212.64 
L 95.77612 246.24 
L 95.877576 212.64 
L 96.00442 246.24 
L 96.131251 212.64 
L 96.258071 246.24 
L 96.334175 246.24 
L 96.43563 212.64 
L 96.460994 246.24 
L 96.537098 212.64 
L 96.638554 212.64 
L 96.663918 246.24 
L 96.740022 212.64 
L 96.765385 212.64 
L 96.790749 246.24 
L 96.866841 212.64 
L 96.917581 212.64 
L 97.044413 246.24 
L 97.171244 212.64 
L 97.221972 212.64 
L 97.348804 246.24 
L 97.399532 246.24 
L 97.526363 212.64 
L 97.627819 246.24 
L 97.754651 212.64 
L 97.856106 212.64 
L 97.957574 246.24 
L 98.084406 212.64 
L 98.10977 246.24 
L 98.185873 212.64 
L 98.211237 212.64 
L 98.236601 246.24 
L 98.312693 212.64 
L 98.338069 212.64 
L 98.464888 246.24 
L 98.59172 212.64 
L 98.617084 212.64 
L 98.693176 246.24 
L 98.71854 212.64 
L 98.743916 212.64 
L 98.845383 246.24 
L 98.870747 212.64 
L 98.946851 246.24 
L 98.997579 246.24 
L 99.099035 212.64 
L 99.175138 246.24 
L 99.200502 212.64 
L 99.25123 212.64 
L 99.327322 246.24 
L 99.352698 212.64 
L 99.42879 212.64 
L 99.454154 246.24 
L 99.530245 212.64 
L 99.555621 212.64 
L 99.606349 246.24 
L 99.657077 212.64 
L 99.885376 212.64 
L 99.96148 246.24 
L 99.986844 212.64 
L 100.012208 212.64 
L 100.139028 246.24 
L 100.240495 212.64 
L 100.316587 246.24 
L 100.341951 212.64 
L 100.468783 212.64 
L 100.595614 246.24 
L 100.69707 212.64 
L 100.722434 246.24 
L 100.798538 212.64 
L 100.849266 212.64 
L 100.925369 246.24 
L 100.950733 212.64 
L 101.102929 212.64 
L 101.128293 246.24 
L 101.204397 212.64 
L 101.22976 212.64 
L 101.331216 246.24 
L 101.458048 212.64 
L 101.508776 212.64 
L 101.53414 246.24 
L 101.610243 212.64 
L 101.711711 212.64 
L 101.787815 246.24 
L 101.813179 212.64 
L 101.939998 212.64 
L 102.041466 246.24 
L 102.168286 212.64 
L 102.295117 212.64 
L 102.396585 246.24 
L 102.523405 212.64 
L 102.954627 212.64 
L 103.056095 246.24 
L 103.182915 212.64 
L 103.33511 212.64 
L 103.411214 246.24 
L 103.436578 212.64 
L 103.664877 212.64 
L 103.740969 246.24 
L 103.766333 212.64 
L 103.791697 212.64 
L 103.817073 246.24 
L 103.893165 212.64 
L 104.248284 212.64 
L 104.324375 246.24 
L 104.349739 212.64 
L 104.654143 212.64 
L 104.780962 246.24 
L 104.907794 212.64 
L 104.958522 246.24 
L 105.009249 212.64 
L 105.770227 212.64 
L 105.820955 246.24 
L 105.871695 212.64 
L 106.074618 212.64 
L 106.125346 246.24 
L 106.176074 212.64 
L 127.407216 212.64 
L 127.508678 195.84 
L 127.635503 212.64 
L 127.686231 212.64 
L 127.787699 195.84 
L 127.914531 212.64 
L 128.26965 212.64 
L 128.396481 195.84 
L 128.421845 195.84 
L 128.523307 212.64 
L 128.599405 195.84 
L 128.624769 212.64 
L 128.650132 212.64 
L 128.675502 195.84 
L 128.7516 212.64 
L 128.92916 212.64 
L 128.954524 195.84 
L 129.030621 212.64 
L 129.182811 212.64 
L 129.284279 195.84 
L 129.38574 212.64 
L 129.512566 195.84 
L 129.639398 212.64 
L 129.690131 195.84 
L 129.740865 212.64 
L 129.791593 212.64 
L 129.816963 195.84 
L 129.893055 212.64 
L 129.994517 212.64 
L 130.070614 195.84 
L 130.095984 212.64 
L 130.121348 212.64 
L 130.146718 195.84 
L 130.222816 212.64 
L 130.425739 212.64 
L 130.451103 195.84 
L 130.527195 212.64 
L 130.628663 212.64 
L 130.730124 195.84 
L 130.856956 212.64 
L 130.983782 195.84 
L 131.110613 212.64 
L 131.161347 195.84 
L 131.212075 212.64 
L 131.338901 212.64 
L 131.465732 195.84 
L 131.491096 195.84 
L 131.617928 212.64 
L 131.744753 195.84 
L 131.770123 195.84 
L 131.871585 212.64 
L 131.998411 195.84 
L 132.125242 212.64 
L 132.20134 195.84 
L 132.226704 212.64 
L 132.328166 212.64 
L 132.3789 195.84 
L 132.429627 212.64 
L 132.505725 212.64 
L 132.632557 195.84 
L 132.759382 212.64 
L 132.83548 195.84 
L 132.86085 212.64 
L 132.886214 212.64 
L 132.987682 195.84 
L 133.06378 212.64 
L 133.089144 195.84 
L 133.114507 195.84 
L 133.215969 212.64 
L 133.317431 195.84 
L 133.444263 212.64 
L 133.469632 195.84 
L 133.545724 212.64 
L 133.596458 212.64 
L 133.723284 195.84 
L 133.748648 195.84 
L 133.824745 212.64 
L 133.850109 195.84 
L 133.875479 195.84 
L 134.002311 212.64 
L 134.103773 195.84 
L 134.230598 212.64 
L 134.33206 195.84 
L 134.382794 212.64 
L 134.433528 195.84 
L 134.560353 195.84 
L 134.611087 212.64 
L 134.661815 195.84 
L 134.687185 195.84 
L 134.814017 212.64 
L 134.940842 195.84 
L 134.99157 195.84 
L 135.118402 212.64 
L 135.245227 195.84 
L 135.295961 195.84 
L 135.321325 212.64 
L 135.397423 195.84 
L 135.422793 195.84 
L 135.448157 212.64 
L 135.524254 195.84 
L 135.574982 195.84 
L 135.65108 212.64 
L 135.676444 195.84 
L 135.701814 195.84 
L 135.777912 212.64 
L 135.803276 195.84 
L 135.879373 195.84 
L 135.904743 212.64 
L 135.980835 195.84 
L 136.031569 195.84 
L 136.056933 212.64 
L 136.133031 195.84 
L 136.158395 195.84 
L 136.285226 212.64 
L 136.412052 195.84 
L 136.564247 195.84 
L 136.665709 212.64 
L 136.792541 195.84 
L 136.817905 195.84 
L 136.919372 212.64 
L 137.046198 195.84 
L 137.173024 195.84 
L 137.274491 212.64 
L 137.401317 195.84 
L 137.528149 195.84 
L 137.553513 212.64 
L 137.62961 195.84 
L 138.44131 195.84 
L 138.46668 212.64 
L 138.542778 195.84 
L 152.417841 195.84 
L 152.443205 179.04 
L 152.519303 195.84 
L 152.899792 195.84 
L 152.925156 179.04 
L 153.001253 195.84 
L 153.051981 195.84 
L 153.077351 179.04 
L 153.153449 195.84 
L 153.204177 195.84 
L 153.331009 179.04 
L 153.43247 195.84 
L 153.457834 179.04 
L 153.533932 195.84 
L 153.6354 195.84 
L 153.762231 179.04 
L 153.889057 195.84 
L 154.29491 195.84 
L 154.320274 179.04 
L 154.396371 195.84 
L 154.421735 195.84 
L 154.447099 179.04 
L 154.523197 195.84 
L 154.599295 195.84 
L 154.624659 179.04 
L 154.700763 195.84 
L 154.979784 195.84 
L 155.005148 179.04 
L 155.081245 195.84 
L 155.131979 195.84 
L 155.258805 179.04 
L 155.385637 195.84 
L 155.411 195.84 
L 155.461734 179.04 
L 155.512468 195.84 
L 155.588566 195.84 
L 155.639294 179.04 
L 155.690022 195.84 
L 155.715392 195.84 
L 155.816853 179.04 
L 155.943679 195.84 
L 156.070511 179.04 
L 156.121244 179.04 
L 156.197342 195.84 
L 156.222706 179.04 
L 156.24807 179.04 
L 156.374896 195.84 
L 156.501727 179.04 
L 156.527097 179.04 
L 156.628559 195.84 
L 156.730021 179.04 
L 156.831482 195.84 
L 156.958314 179.04 
L 157.08514 195.84 
L 157.186601 179.04 
L 157.313427 195.84 
L 157.414895 179.04 
L 157.541726 195.84 
L 157.668552 195.84 
L 157.795377 179.04 
L 157.896845 195.84 
L 158.023677 179.04 
L 158.099769 195.84 
L 158.125133 179.04 
L 158.175866 179.04 
L 158.277328 195.84 
L 158.40416 179.04 
L 158.480258 195.84 
L 158.505621 179.04 
L 158.530985 179.04 
L 158.607083 195.84 
L 158.632453 179.04 
L 158.657817 179.04 
L 158.708551 195.84 
L 158.759285 179.04 
L 158.784649 179.04 
L 158.88611 195.84 
L 159.012936 179.04 
L 159.038306 179.04 
L 159.139762 195.84 
L 159.241229 179.04 
L 159.342691 195.84 
L 159.444159 179.04 
L 159.494887 195.84 
L 159.545614 179.04 
L 159.621712 179.04 
L 159.647082 195.84 
L 159.72318 179.04 
L 159.748544 179.04 
L 159.875375 195.84 
L 159.976837 179.04 
L 160.002201 195.84 
L 160.078299 179.04 
L 160.230494 179.04 
L 160.35732 195.84 
L 160.38269 195.84 
L 160.509516 179.04 
L 160.534879 195.84 
L 160.610977 179.04 
L 160.687075 179.04 
L 160.712439 195.84 
L 160.788543 179.04 
L 160.839271 179.04 
L 160.966096 195.84 
L 161.092928 179.04 
L 161.245123 179.04 
L 161.270493 195.84 
L 161.346585 179.04 
L 161.498781 179.04 
L 161.625612 195.84 
L 161.650976 195.84 
L 161.777802 179.04 
L 161.828536 195.84 
L 161.87927 179.04 
L 162.082193 179.04 
L 162.107557 195.84 
L 162.183655 179.04 
L 162.310486 179.04 
L 162.33585 195.84 
L 162.411948 179.04 
L 162.690975 179.04 
L 162.817801 195.84 
L 162.944626 179.04 
L 163.147556 179.04 
L 163.274382 195.84 
L 163.401207 179.04 
L 163.730968 179.04 
L 163.756332 195.84 
L 163.83243 179.04 
L 174.130925 179.04 
L 174.156292 170.64 
L 174.232387 179.04 
L 174.536775 179.04 
L 174.612872 170.64 
L 174.638236 179.04 
L 174.967994 179.04 
L 174.993358 170.64 
L 175.069456 179.04 
L 175.170921 179.04 
L 175.272383 170.64 
L 175.399211 179.04 
L 175.652868 179.04 
L 175.678235 170.64 
L 175.754333 179.04 
L 175.855795 179.04 
L 175.957257 170.64 
L 176.084085 179.04 
L 176.109452 179.04 
L 176.160183 170.64 
L 176.210914 179.04 
L 176.236281 179.04 
L 176.287012 170.64 
L 176.337742 179.04 
L 176.388476 179.04 
L 176.464571 170.64 
L 176.489938 179.04 
L 176.616767 179.04 
L 176.692864 170.64 
L 176.718231 179.04 
L 176.768962 179.04 
L 176.84506 170.64 
L 176.870424 179.04 
L 176.971889 179.04 
L 177.098717 170.64 
L 177.124084 170.64 
L 177.250913 179.04 
L 177.276277 179.04 
L 177.403108 170.64 
L 177.428472 179.04 
L 177.50457 170.64 
L 177.529937 170.64 
L 177.656763 179.04 
L 177.783591 170.64 
L 177.808958 170.64 
L 177.935787 179.04 
L 177.961151 179.04 
L 178.062615 170.64 
L 178.189444 179.04 
L 178.316273 170.64 
L 178.39237 170.64 
L 178.468468 179.04 
L 178.493832 170.64 
L 178.874321 170.64 
L 178.925052 179.04 
L 178.975783 170.64 
L 179.026514 170.64 
L 179.051877 179.04 
L 179.127975 170.64 
L 179.635293 170.64 
L 179.660657 179.04 
L 179.736754 170.64 
L 179.812852 170.64 
L 179.838219 179.04 
L 179.914314 170.64 
L 187.143555 170.64 
L 187.21965 162.24 
L 187.245017 170.64 
L 187.422576 170.64 
L 187.447943 162.24 
L 187.524041 170.64 
L 187.904527 170.64 
L 187.955258 162.24 
L 188.005988 170.64 
L 188.056719 170.64 
L 188.183548 162.24 
L 188.310376 170.64 
L 188.335743 162.24 
L 188.411841 170.64 
L 188.462572 170.64 
L 188.589401 162.24 
L 188.716229 170.64 
L 188.792327 170.64 
L 188.919156 162.24 
L 189.045984 170.64 
L 189.071351 170.64 
L 189.19818 162.24 
L 189.223547 162.24 
L 189.350372 170.64 
L 189.527932 170.64 
L 189.578666 162.24 
L 189.629397 170.64 
L 189.680127 170.64 
L 189.781592 162.24 
L 189.908421 170.64 
L 189.959152 170.64 
L 190.060613 162.24 
L 190.08598 170.64 
L 190.162078 162.24 
L 190.187445 162.24 
L 190.212809 170.64 
L 190.288907 162.24 
L 190.314274 162.24 
L 190.441102 170.64 
L 190.567931 162.24 
L 190.669393 162.24 
L 190.74549 170.64 
L 190.770857 162.24 
L 190.821588 162.24 
L 190.948417 170.64 
L 191.075242 162.24 
L 191.100609 162.24 
L 191.227438 170.64 
L 191.252805 170.64 
L 191.379634 162.24 
L 191.405 170.64 
L 191.481095 162.24 
L 191.785486 162.24 
L 191.861584 170.64 
L 191.886948 162.24 
L 192.774748 162.24 
L 192.800115 170.64 
L 192.876213 162.24 
L 199.623502 162.24 
L 199.674234 153.84 
L 199.724965 162.24 
L 200.003989 162.24 
L 200.029355 153.84 
L 200.105453 162.24 
L 200.18155 162.24 
L 200.283014 153.84 
L 200.409841 162.24 
L 200.511304 162.24 
L 200.638133 153.84 
L 200.764961 162.24 
L 200.815694 162.24 
L 200.841059 153.84 
L 200.917155 162.24 
L 200.942521 162.24 
L 201.043984 153.84 
L 201.170812 162.24 
L 201.196179 162.24 
L 201.272276 153.84 
L 201.297643 162.24 
L 201.373739 162.24 
L 201.449837 153.84 
L 201.475202 162.24 
L 201.5513 162.24 
L 201.678129 153.84 
L 201.703495 153.84 
L 201.830323 162.24 
L 201.855688 162.24 
L 201.931786 153.84 
L 201.957151 162.24 
L 201.982517 162.24 
L 202.007884 153.84 
L 202.08398 162.24 
L 202.109347 162.24 
L 202.185443 153.84 
L 202.21081 162.24 
L 202.261541 162.24 
L 202.388369 153.84 
L 202.464467 153.84 
L 202.591294 162.24 
L 202.667392 162.24 
L 202.794221 153.84 
L 202.819588 153.84 
L 202.921051 162.24 
L 203.04788 153.84 
L 203.09861 153.84 
L 203.200072 162.24 
L 203.250804 153.84 
L 203.301535 162.24 
L 203.326902 162.24 
L 203.453731 153.84 
L 203.479096 153.84 
L 203.529829 162.24 
L 203.580559 153.84 
L 203.605925 153.84 
L 203.732755 162.24 
L 203.808851 153.84 
L 203.834218 162.24 
L 203.859584 162.24 
L 203.986411 153.84 
L 204.163972 153.84 
L 204.2908 162.24 
L 204.316166 162.24 
L 204.442996 153.84 
L 204.569825 153.84 
L 204.620555 162.24 
L 204.671288 153.84 
L 204.82348 153.84 
L 204.848847 162.24 
L 204.924944 153.84 
L 205.432258 153.84 
L 205.508356 162.24 
L 205.533721 153.84 
L 212.154183 153.84 
L 212.179549 145.44 
L 212.255646 153.84 
L 212.281012 153.84 
L 212.306377 145.44 
L 212.382475 153.84 
L 212.53467 153.84 
L 212.560035 145.44 
L 212.636133 153.84 
L 213.016619 153.84 
L 213.092716 145.44 
L 213.118081 153.84 
L 213.676128 153.84 
L 213.802957 145.44 
L 213.828323 145.44 
L 213.955151 153.84 
L 213.980517 145.44 
L 214.056615 153.84 
L 214.08198 153.84 
L 214.208809 145.44 
L 214.259541 153.84 
L 214.310272 145.44 
L 214.335637 145.44 
L 214.411735 153.84 
L 214.437101 145.44 
L 214.513198 145.44 
L 214.614661 153.84 
L 214.665392 145.44 
L 214.716124 153.84 
L 214.741489 153.84 
L 214.868319 145.44 
L 214.91905 145.44 
L 215.045878 153.84 
L 215.071244 153.84 
L 215.198073 145.44 
L 215.324902 153.84 
L 215.451731 145.44 
L 215.477097 145.44 
L 215.603926 153.84 
L 215.730754 145.44 
L 215.781485 145.44 
L 215.882948 153.84 
L 215.93368 145.44 
L 215.984411 153.84 
L 216.035143 153.84 
L 216.161972 145.44 
L 216.263434 153.84 
L 216.390263 145.44 
L 216.517092 153.84 
L 216.643921 145.44 
L 216.669287 145.44 
L 216.694652 153.84 
L 216.77075 145.44 
L 216.796116 145.44 
L 216.922944 153.84 
L 217.049773 145.44 
L 217.12587 153.84 
L 217.151236 145.44 
L 217.30343 145.44 
L 217.404894 153.84 
L 217.531722 145.44 
L 217.557088 153.84 
L 217.633185 145.44 
L 217.658551 145.44 
L 217.734648 153.84 
L 217.760014 145.44 
L 218.013671 145.44 
L 218.039037 153.84 
L 218.115134 145.44 
L 225.192178 145.44 
L 225.217544 137.04 
L 225.293642 145.44 
L 225.319007 145.44 
L 225.344373 137.04 
L 225.42047 145.44 
L 225.572665 145.44 
L 225.623396 137.04 
L 225.674128 145.44 
L 225.927786 145.44 
L 226.054614 137.04 
L 226.105346 137.04 
L 226.232174 145.44 
L 226.511198 145.44 
L 226.612661 137.04 
L 226.714124 145.44 
L 226.840952 137.04 
L 226.942416 145.44 
L 227.069244 137.04 
L 227.09461 137.04 
L 227.221439 145.44 
L 227.246805 145.44 
L 227.322902 137.04 
L 227.348267 145.44 
L 227.576559 145.44 
L 227.652656 137.04 
L 227.678022 145.44 
L 227.703388 145.44 
L 227.830216 137.04 
L 227.855583 145.44 
L 227.93168 137.04 
L 228.007777 137.04 
L 228.033143 145.44 
L 228.10924 137.04 
L 228.134605 137.04 
L 228.185337 145.44 
L 228.236069 137.04 
L 228.2868 137.04 
L 228.362898 145.44 
L 228.388263 137.04 
L 228.41363 137.04 
L 228.489727 145.44 
L 228.515092 137.04 
L 228.565824 137.04 
L 228.667287 145.44 
L 228.794115 137.04 
L 228.920944 145.44 
L 229.047773 137.04 
L 229.199967 137.04 
L 229.326796 145.44 
L 229.453625 137.04 
L 229.681917 137.04 
L 229.707282 145.44 
L 229.78338 137.04 
L 229.808745 137.04 
L 229.834111 145.44 
L 229.910208 137.04 
L 230.037037 137.04 
L 230.062402 145.44 
L 230.1385 137.04 
L 230.163866 137.04 
L 230.189232 145.44 
L 230.265329 137.04 
L 230.341426 137.04 
L 230.366791 145.44 
L 230.442889 137.04 
L 230.772643 137.04 
L 230.79801 145.44 
L 230.874107 137.04 
L 237.570665 137.04 
L 237.596031 128.64 
L 237.672127 137.04 
L 237.951151 137.04 
L 237.976517 128.64 
L 238.052614 137.04 
L 238.179443 137.04 
L 238.204808 128.64 
L 238.280905 137.04 
L 238.407733 137.04 
L 238.4331 128.64 
L 238.509197 137.04 
L 238.534564 137.04 
L 238.559929 128.64 
L 238.636027 137.04 
L 238.661392 137.04 
L 238.686758 128.64 
L 238.762855 137.04 
L 238.788221 137.04 
L 238.813586 128.64 
L 238.889684 137.04 
L 239.04188 137.04 
L 239.143341 128.64 
L 239.194072 137.04 
L 239.244804 128.64 
L 239.295535 128.64 
L 239.422364 137.04 
L 239.523827 128.64 
L 239.62529 137.04 
L 239.75212 128.64 
L 239.802851 128.64 
L 239.904313 137.04 
L 240.031142 128.64 
L 240.132605 137.04 
L 240.259435 128.64 
L 240.2848 128.64 
L 240.411629 137.04 
L 240.462361 137.04 
L 240.563823 128.64 
L 240.690652 137.04 
L 240.716017 137.04 
L 240.81748 128.64 
L 240.944309 137.04 
L 241.071139 128.64 
L 241.147235 137.04 
L 241.172602 128.64 
L 241.223333 128.64 
L 241.274066 137.04 
L 241.324795 128.64 
L 241.35016 128.64 
L 241.451624 137.04 
L 241.553087 128.64 
L 241.679917 137.04 
L 241.730648 137.04 
L 241.857476 128.64 
L 241.95894 137.04 
L 242.060403 128.64 
L 242.187231 137.04 
L 242.237962 137.04 
L 242.339425 128.64 
L 242.364791 137.04 
L 242.440889 128.64 
L 242.593084 128.64 
L 242.66918 137.04 
L 242.694547 128.64 
L 243.024301 128.64 
L 243.125764 137.04 
L 243.252593 128.64 
L 250.456468 128.64 
L 250.481832 120.24 
L 250.55793 128.64 
L 250.634025 128.64 
L 250.659392 120.24 
L 250.735486 128.64 
L 250.78622 128.64 
L 250.887682 120.24 
L 250.96378 128.64 
L 250.989147 120.24 
L 251.014511 120.24 
L 251.141339 128.64 
L 251.166706 128.64 
L 251.268171 120.24 
L 251.395 128.64 
L 251.420363 128.64 
L 251.44573 120.24 
L 251.521828 128.64 
L 251.547192 128.64 
L 251.597926 120.24 
L 251.648657 128.64 
L 251.699388 128.64 
L 251.724755 120.24 
L 251.800852 128.64 
L 251.851583 128.64 
L 251.902314 120.24 
L 251.953045 128.64 
L 252.079874 128.64 
L 252.181335 120.24 
L 252.308164 128.64 
L 252.358895 128.64 
L 252.384262 120.24 
L 252.460359 128.64 
L 252.536457 128.64 
L 252.637919 120.24 
L 252.764748 128.64 
L 252.815481 128.64 
L 252.94231 120.24 
L 253.043772 128.64 
L 253.069139 120.24 
L 253.145236 128.64 
L 253.195967 128.64 
L 253.322796 120.24 
L 253.348163 128.64 
L 253.424261 120.24 
L 253.449625 120.24 
L 253.551089 128.64 
L 253.677915 120.24 
L 253.754013 128.64 
L 253.779377 120.24 
L 253.880841 120.24 
L 253.956939 128.64 
L 253.982303 120.24 
L 254.00767 120.24 
L 254.033037 128.64 
L 254.109135 120.24 
L 254.134499 120.24 
L 254.159865 128.64 
L 254.235963 120.24 
L 254.261327 120.24 
L 254.388156 128.64 
L 254.464254 120.24 
L 254.48962 128.64 
L 254.540351 128.64 
L 254.66718 120.24 
L 254.717914 120.24 
L 254.819376 128.64 
L 254.946204 120.24 
L 255.250592 120.24 
L 255.275956 128.64 
L 255.352054 120.24 
L 255.50425 120.24 
L 255.529616 128.64 
L 255.605711 120.24 
L 255.859372 120.24 
L 255.884735 128.64 
L 255.960833 120.24 
L 263.037879 120.24 
L 263.063242 111.84 
L 263.13934 120.24 
L 263.164707 120.24 
L 263.190071 111.84 
L 263.266169 120.24 
L 263.443731 120.24 
L 263.57056 111.84 
L 263.595924 111.84 
L 263.722753 120.24 
L 263.951046 120.24 
L 263.976413 111.84 
L 264.052508 120.24 
L 264.153969 120.24 
L 264.2047 111.84 
L 264.255434 120.24 
L 264.331529 120.24 
L 264.432993 111.84 
L 264.534455 120.24 
L 264.63592 111.84 
L 264.762749 120.24 
L 264.889577 111.84 
L 264.914944 111.84 
L 265.041773 120.24 
L 265.168601 111.84 
L 265.29543 120.24 
L 265.320797 120.24 
L 265.396895 111.84 
L 265.422259 120.24 
L 265.498353 120.24 
L 265.599818 111.84 
L 265.650549 120.24 
L 265.70128 111.84 
L 265.726647 111.84 
L 265.802744 120.24 
L 265.828108 111.84 
L 265.853475 111.84 
L 265.980304 120.24 
L 266.005671 111.84 
L 266.081769 120.24 
L 266.107133 120.24 
L 266.233961 111.84 
L 266.310059 120.24 
L 266.335426 111.84 
L 266.538352 111.84 
L 266.639814 120.24 
L 266.766643 111.84 
L 266.868107 111.84 
L 266.969569 120.24 
L 267.096398 111.84 
L 267.121762 111.84 
L 267.223226 120.24 
L 267.350055 111.84 
L 267.502251 111.84 
L 267.629079 120.24 
L 267.654443 120.24 
L 267.781272 111.84 
L 268.009565 111.84 
L 268.11103 120.24 
L 268.237858 111.84 
L 268.288589 120.24 
L 268.33932 111.84 
L 268.618341 111.84 
L 268.643708 120.24 
L 268.719806 111.84 
L 279.297325 111.84 
L 279.322689 95.04 
L 279.398787 111.84 
L 279.424151 111.84 
L 279.449521 95.04 
L 279.525618 111.84 
L 279.62708 111.84 
L 279.652444 95.04 
L 279.728542 111.84 
L 280.032927 111.84 
L 280.058297 95.04 
L 280.134395 111.84 
L 280.159759 111.84 
L 280.185129 95.04 
L 280.26122 111.84 
L 280.717807 111.84 
L 280.844633 95.04 
L 280.870003 95.04 
L 280.996834 111.84 
L 281.174388 111.84 
L 281.199758 95.04 
L 281.275849 111.84 
L 281.351947 111.84 
L 281.478779 95.04 
L 281.504143 95.04 
L 281.630974 111.84 
L 281.681702 111.84 
L 281.783164 95.04 
L 281.884632 111.84 
L 281.909996 95.04 
L 281.986093 111.84 
L 282.036827 111.84 
L 282.112919 95.04 
L 282.138289 111.84 
L 282.189017 111.84 
L 282.214387 95.04 
L 282.290484 111.84 
L 282.315848 111.84 
L 282.417316 95.04 
L 282.544142 111.84 
L 282.620239 111.84 
L 282.670967 95.04 
L 282.721695 111.84 
L 282.747065 111.84 
L 282.873891 95.04 
L 282.975358 111.84 
L 283.051456 95.04 
L 283.07682 111.84 
L 283.102184 111.84 
L 283.127548 95.04 
L 283.203646 111.84 
L 283.355847 111.84 
L 283.482673 95.04 
L 283.609499 111.84 
L 283.787064 111.84 
L 283.91389 95.04 
L 284.040721 111.84 
L 284.066085 111.84 
L 284.192911 95.04 
L 284.294373 111.84 
L 284.421204 95.04 
L 284.497302 111.84 
L 284.522666 95.04 
L 284.624128 95.04 
L 284.725595 111.84 
L 284.852427 95.04 
L 284.877791 95.04 
L 284.979253 111.84 
L 285.080714 95.04 
L 285.207546 111.84 
L 285.334372 95.04 
L 285.359735 95.04 
L 285.461203 111.84 
L 285.588035 95.04 
L 285.638763 95.04 
L 285.765588 111.84 
L 285.790958 111.84 
L 285.89242 95.04 
L 285.968512 111.84 
L 285.993882 95.04 
L 286.069979 95.04 
L 286.196811 111.84 
L 286.247539 111.84 
L 286.349001 95.04 
L 286.425098 111.84 
L 286.450462 95.04 
L 286.501196 95.04 
L 286.628028 111.84 
L 286.653392 111.84 
L 286.780217 95.04 
L 286.805587 95.04 
L 286.856315 111.84 
L 286.907049 95.04 
L 286.932413 95.04 
L 287.059245 111.84 
L 287.18607 95.04 
L 287.312902 111.84 
L 287.439727 95.04 
L 287.541189 111.84 
L 287.668021 95.04 
L 287.718755 95.04 
L 287.794846 111.84 
L 287.820216 95.04 
L 288.175335 95.04 
L 288.200699 111.84 
L 288.276797 95.04 
L 288.403629 95.04 
L 288.454362 111.84 
L 288.505096 95.04 
L 288.53046 95.04 
L 288.631922 111.84 
L 288.758748 95.04 
L 288.809475 95.04 
L 288.834845 111.84 
L 288.910943 95.04 
L 289.088503 95.04 
L 289.113873 111.84 
L 289.189964 95.04 
L 289.316796 95.04 
L 289.367524 111.84 
L 289.418258 95.04 
L 289.976306 95.04 
L 290.00167 111.84 
L 290.077768 95.04 
L 290.788006 95.04 
L 290.813376 111.84 
L 290.889473 95.04 
L 304.434782 95.04 
L 304.51088 78.24 
L 304.53625 95.04 
L 305.373313 95.04 
L 305.398677 78.24 
L 305.474781 95.04 
L 305.601606 95.04 
L 305.703068 78.24 
L 305.8299 95.04 
L 306.007459 95.04 
L 306.032823 78.24 
L 306.108921 95.04 
L 306.337214 95.04 
L 306.413312 78.24 
L 306.438676 95.04 
L 306.46404 95.04 
L 306.48941 78.24 
L 306.565508 95.04 
L 306.590872 95.04 
L 306.616235 78.24 
L 306.692333 95.04 
L 306.945991 95.04 
L 307.022088 78.24 
L 307.047452 95.04 
L 307.098186 95.04 
L 307.12355 78.24 
L 307.199648 95.04 
L 307.275746 95.04 
L 307.402577 78.24 
L 307.427941 78.24 
L 307.554767 95.04 
L 307.580137 95.04 
L 307.605501 78.24 
L 307.681598 95.04 
L 307.706968 95.04 
L 307.833794 78.24 
L 307.935256 95.04 
L 308.011353 78.24 
L 308.036717 95.04 
L 308.163543 95.04 
L 308.239641 78.24 
L 308.265011 95.04 
L 308.290375 95.04 
L 308.391842 78.24 
L 308.518668 95.04 
L 308.544032 78.24 
L 308.62013 95.04 
L 308.645494 95.04 
L 308.772325 78.24 
L 308.873787 95.04 
L 309.000619 78.24 
L 309.10208 95.04 
L 309.12745 78.24 
L 309.203548 95.04 
L 309.355737 95.04 
L 309.457199 78.24 
L 309.584025 95.04 
L 309.660123 95.04 
L 309.786954 78.24 
L 309.837688 78.24 
L 309.964514 95.04 
L 309.989878 95.04 
L 310.065975 78.24 
L 310.091345 95.04 
L 310.142079 95.04 
L 310.268905 78.24 
L 310.4211 78.24 
L 310.522562 95.04 
L 310.59866 78.24 
L 310.62403 95.04 
L 310.674758 95.04 
L 310.776219 78.24 
L 310.903051 95.04 
L 310.928415 95.04 
L 311.004513 78.24 
L 311.029883 95.04 
L 311.08061 95.04 
L 311.182072 78.24 
L 311.207436 95.04 
L 311.283534 78.24 
L 311.334262 78.24 
L 311.461093 95.04 
L 311.537191 95.04 
L 311.664023 78.24 
L 311.714751 78.24 
L 311.841582 95.04 
L 311.866946 95.04 
L 311.968414 78.24 
L 312.095239 95.04 
L 312.222065 78.24 
L 312.298163 78.24 
L 312.374267 95.04 
L 312.399631 78.24 
L 312.424995 78.24 
L 312.526456 95.04 
L 312.627918 78.24 
L 312.653288 95.04 
L 312.72938 78.24 
L 312.754744 78.24 
L 312.881575 95.04 
L 312.932309 78.24 
L 312.983043 95.04 
L 313.008407 95.04 
L 313.135232 78.24 
L 313.160596 95.04 
L 313.236694 78.24 
L 313.312792 78.24 
L 313.363526 95.04 
L 313.41426 78.24 
L 313.566449 78.24 
L 313.591819 95.04 
L 313.667917 78.24 
L 313.870846 78.24 
L 313.946938 95.04 
L 313.972302 78.24 
L 314.251323 78.24 
L 314.302057 95.04 
L 314.352791 78.24 
L 314.631812 78.24 
L 314.682546 95.04 
L 314.733274 78.24 
L 314.784008 78.24 
L 314.860105 95.04 
L 314.885475 78.24 
L 314.986931 78.24 
L 315.088399 95.04 
L 315.21523 78.24 
L 315.291328 78.24 
L 315.316692 95.04 
L 315.392784 78.24 
L 315.519616 78.24 
L 315.544979 95.04 
L 315.621077 78.24 
L 336.59855 78.24 
L 336.623914 44.64 
L 336.700018 78.24 
L 337.460983 78.24 
L 337.486359 44.64 
L 337.562451 78.24 
L 337.790751 78.24 
L 337.816115 44.64 
L 337.892206 78.24 
L 338.044402 78.24 
L 338.069766 44.64 
L 338.145857 78.24 
L 338.729276 78.24 
L 338.75464 44.64 
L 338.830744 78.24 
L 338.982927 78.24 
L 339.008303 44.64 
L 339.084395 78.24 
L 339.312682 78.24 
L 339.338046 44.64 
L 339.41415 78.24 
L 339.439514 78.24 
L 339.464878 44.64 
L 339.540981 78.24 
L 339.642449 78.24 
L 339.667813 44.64 
L 339.743905 78.24 
L 339.8961 78.24 
L 339.921464 44.64 
L 339.997556 78.24 
L 340.07366 78.24 
L 340.099024 44.64 
L 340.175116 78.24 
L 340.276583 78.24 
L 340.327323 44.64 
L 340.378051 78.24 
L 340.530247 78.24 
L 340.55561 44.64 
L 340.631714 78.24 
L 340.657078 78.24 
L 340.758534 44.64 
L 340.885366 78.24 
L 340.986821 78.24 
L 341.012185 44.64 
L 341.088289 78.24 
L 341.265848 78.24 
L 341.367316 44.64 
L 341.468784 78.24 
L 341.494148 44.64 
L 341.57024 78.24 
L 341.620967 78.24 
L 341.722435 44.64 
L 341.849267 78.24 
L 342.05219 78.24 
L 342.077554 44.64 
L 342.153658 78.24 
L 342.28049 78.24 
L 342.381945 44.64 
L 342.508777 78.24 
L 342.635596 78.24 
L 342.737064 44.64 
L 342.863896 78.24 
L 342.939988 78.24 
L 343.066819 44.64 
L 343.092183 44.64 
L 343.219015 78.24 
L 343.269755 78.24 
L 343.295119 44.64 
L 343.37121 78.24 
L 343.396574 78.24 
L 343.447302 44.64 
L 343.498042 78.24 
L 343.574134 78.24 
L 343.599498 44.64 
L 343.675601 78.24 
L 343.929253 78.24 
L 344.030708 44.64 
L 344.15754 78.24 
L 344.259008 78.24 
L 344.385839 44.64 
L 344.461931 78.24 
L 344.487307 44.64 
L 344.538035 44.64 
L 344.639491 78.24 
L 344.740958 44.64 
L 344.867778 78.24 
L 344.918518 78.24 
L 345.045349 44.64 
L 345.172181 78.24 
L 345.299013 44.64 
L 345.324377 44.64 
L 345.400468 78.24 
L 345.425832 44.64 
L 345.451196 44.64 
L 345.578028 78.24 
L 345.704859 44.64 
L 345.755587 44.64 
L 345.882407 78.24 
L 345.907783 78.24 
L 346.034615 44.64 
L 346.136082 78.24 
L 346.237538 44.64 
L 346.313642 78.24 
L 346.339006 44.64 
L 346.36437 44.64 
L 346.491189 78.24 
L 346.618021 44.64 
L 346.643385 44.64 
L 346.770216 78.24 
L 346.820944 78.24 
L 346.947776 44.64 
L 347.074607 78.24 
L 347.201439 44.64 
L 347.302895 78.24 
L 347.429726 44.64 
L 347.556558 78.24 
L 347.658014 78.24 
L 347.784845 44.64 
L 347.886313 44.64 
L 348.013145 78.24 
L 348.038509 78.24 
L 348.139976 44.64 
L 348.266796 78.24 
L 348.393628 44.64 
L 348.520447 44.64 
L 348.647279 78.24 
L 348.672643 78.24 
L 348.77411 44.64 
L 348.875578 78.24 
L 348.951682 44.64 
L 348.977046 78.24 
L 349.027774 78.24 
L 349.154605 44.64 
L 349.230697 44.64 
L 349.357529 78.24 
L 349.458984 44.64 
L 349.560452 78.24 
L 349.687284 44.64 
L 349.814116 78.24 
L 349.839479 78.24 
L 349.966311 44.64 
L 349.991675 44.64 
L 350.118495 78.24 
L 350.143858 78.24 
L 350.27069 44.64 
L 350.296054 44.64 
L 350.422886 78.24 
L 350.549705 44.64 
L 350.600445 44.64 
L 350.701913 78.24 
L 350.727277 44.64 
L 350.803381 78.24 
L 350.828745 78.24 
L 350.9302 44.64 
L 351.031668 78.24 
L 351.158488 44.64 
L 351.183864 44.64 
L 351.285319 78.24 
L 351.412151 44.64 
L 351.437515 44.64 
L 351.513606 78.24 
L 351.53897 44.64 
L 351.640438 44.64 
L 351.76727 78.24 
L 351.894101 44.64 
L 351.919465 44.64 
L 352.046297 78.24 
L 352.173117 44.64 
L 352.198493 44.64 
L 352.325312 78.24 
L 352.452144 44.64 
L 352.553612 44.64 
L 352.578975 78.24 
L 352.655079 44.64 
L 352.731171 44.64 
L 352.807275 78.24 
L 352.832639 44.64 
L 352.883367 44.64 
L 353.010198 78.24 
L 353.137018 44.64 
L 353.263849 44.64 
L 353.390669 78.24 
L 353.492137 44.64 
L 353.61898 78.24 
L 353.644344 78.24 
L 353.720436 44.64 
L 353.7458 78.24 
L 353.771164 78.24 
L 353.897996 44.64 
L 353.974087 44.64 
L 353.999451 78.24 
L 354.075555 44.64 
L 354.100919 44.64 
L 354.177011 78.24 
L 354.202375 44.64 
L 354.303842 44.64 
L 354.430674 78.24 
L 354.557506 44.64 
L 354.58287 44.64 
L 354.709701 78.24 
L 354.785793 44.64 
L 354.811157 78.24 
L 354.887261 78.24 
L 355.01408 44.64 
L 355.140912 78.24 
L 355.24238 78.24 
L 355.369211 44.64 
L 355.394575 78.24 
L 355.470679 44.64 
L 355.496043 44.64 
L 355.521407 78.24 
L 355.597499 44.64 
L 355.72433 44.64 
L 355.749694 78.24 
L 355.825786 44.64 
L 355.952618 44.64 
L 355.977981 78.24 
L 356.054085 44.64 
L 356.206269 44.64 
L 356.282373 78.24 
L 356.307737 44.64 
L 356.459944 44.64 
L 356.586764 78.24 
L 356.713595 44.64 
L 356.764323 44.64 
L 356.815051 78.24 
L 356.865791 44.64 
L 356.916519 44.64 
L 356.941883 78.24 
L 357.017974 44.64 
L 357.094078 44.64 
L 357.22091 78.24 
L 357.347742 44.64 
L 358.362371 44.64 
L 358.413098 78.24 
L 358.463826 44.64 
L 358.489202 44.64 
L 358.565294 78.24 
L 358.590658 44.64 
L 359.377 44.64 
L 359.478455 78.24 
L 359.605287 44.64 
L 359.757482 44.64 
L 359.782846 78.24 
L 359.858938 44.64 
L 373.581818 44.64 
L 373.581818 44.64 
" clip-path="url(#pfc9ea86640)" style="fill: none; stroke: #1f77b4; stroke-width: 1.5; stroke-linecap: square"/>
   </g>
   <g id="line2d_30">
    <path d="M 69.218182 246.24 
L 94.330281 246.24 
L 94.583932 212.64 
L 132.632557 212.64 
L 132.886214 195.84 
L 157.74465 195.84 
L 157.998307 179.04 
L 177.022619 179.04 
L 177.276277 170.64 
L 189.451837 170.64 
L 189.705494 162.24 
L 202.388369 162.24 
L 202.642027 153.84 
L 214.817587 153.84 
L 215.071244 145.44 
L 227.754119 145.44 
L 228.007777 137.04 
L 240.183337 137.04 
L 240.436994 128.64 
L 253.119869 128.64 
L 253.373527 120.24 
L 265.549084 120.24 
L 265.802744 111.84 
L 284.827057 111.84 
L 285.080714 95.04 
L 309.93915 95.04 
L 310.192807 78.24 
L 348.241432 78.24 
L 348.495095 44.64 
L 373.353531 44.64 
L 373.353531 44.64 
" clip-path="url(#pfc9ea86640)" style="fill: none; stroke: #ff7f0e; stroke-width: 1.5; stroke-linecap: square"/>
   </g>
   <g id="patch_3">
    <path d="M 54 256.32 
L 54 34.56 
" style="fill: none; stroke: #000000; stroke-width: 0.8; stroke-linejoin: miter; stroke-linecap: square"/>
   </g>
   <g id="patch_4">
    <path d="M 388.8 256.32 
L 388.8 34.56 
" style="fill: none; stroke: #000000; stroke-width: 0.8; stroke-linejoin: miter; stroke-linecap: square"/>
   </g>
   <g id="patch_5">
    <path d="M 54 256.32 
L 388.8 256.32 
" style="fill: none; stroke: #000000; stroke-width: 0.8; stroke-linejoin: miter; stroke-linecap: square"/>
   </g>
   <g id="patch_6">
    <path d="M 54 34.56 
L 388.8 34.56 
" style="fill: none; stroke: #000000; stroke-width: 0.8; stroke-linejoin: miter; stroke-linecap: square"/>
   </g>
   <g id="legend_1">
    <g id="patch_7">
     <path d="M 61 71.91625 
L 183.3 71.91625 
Q 185.3 71.91625 185.3 69.91625 
L 185.3 41.56 
Q 185.3 39.56 183.3 39.56 
L 61 39.56 
Q 59 39.56 59 41.56 
L 59 69.91625 
Q 59 71.91625 61 71.91625 
z
" style="fill: #ffffff; opacity: 0.8; stroke: #cccccc; stroke-linejoin: miter"/>
    </g>
    <g id="line2d_31">
     <path d="M 63 47.658437 
L 73 47.658437 
L 83 47.658437 
" style="fill: none; stroke: #1f77b4; stroke-width: 1.5; stroke-linecap: square"/>
    </g>
    <g id="text_17">
     <!-- $v\sim U(-0.25, 0.25)$ -->
     <g transform="translate(91 51.158437) scale(0.1 -0.1)">
      <defs>
       <path id="DejaVuSans-223c" d="M 4684 2556 
L 4684 1997 
Q 4356 1753 4076 1645 
Q 3797 1538 3494 1538 
Q 3150 1538 2694 1722 
Q 2663 1734 2641 1744 
Q 2622 1750 2575 1769 
Q 2091 1959 1797 1959 
Q 1522 1959 1253 1840 
Q 984 1722 678 1459 
L 678 2019 
Q 1006 2263 1286 2370 
Q 1566 2478 1869 2478 
Q 2213 2478 2672 2294 
Q 2706 2278 2722 2272 
Q 2741 2266 2788 2247 
Q 3272 2056 3566 2056 
Q 3834 2056 4098 2173 
Q 4363 2291 4684 2556 
z
" transform="scale(0.015625)"/>
       <path id="DejaVuSans-Oblique-55" d="M 991 4666 
L 1625 4666 
L 1075 1831 
Q 1041 1641 1027 1517 
Q 1013 1394 1013 1300 
Q 1013 869 1253 645 
Q 1494 422 1959 422 
Q 2563 422 2898 753 
Q 3234 1084 3378 1831 
L 3928 4666 
L 4563 4666 
L 4000 1753 
Q 3816 809 3300 359 
Q 2784 -91 1888 -91 
Q 1188 -91 780 261 
Q 372 613 372 1216 
Q 372 1325 387 1461 
Q 403 1597 434 1753 
L 991 4666 
z
" transform="scale(0.015625)"/>
       <path id="DejaVuSans-2e" d="M 684 794 
L 1344 794 
L 1344 0 
L 684 0 
L 684 794 
z
" transform="scale(0.015625)"/>
       <path id="DejaVuSans-35" d="M 691 4666 
L 3169 4666 
L 3169 4134 
L 1269 4134 
L 1269 2991 
Q 1406 3038 1543 3061 
Q 1681 3084 1819 3084 
Q 2600 3084 3056 2656 
Q 3513 2228 3513 1497 
Q 3513 744 3044 326 
Q 2575 -91 1722 -91 
Q 1428 -91 1123 -41 
Q 819 9 494 109 
L 494 744 
Q 775 591 1075 516 
Q 1375 441 1709 441 
Q 2250 441 2565 725 
Q 2881 1009 2881 1497 
Q 2881 1984 2565 2268 
Q 2250 2553 1709 2553 
Q 1456 2553 1204 2497 
Q 953 2441 691 2322 
L 691 4666 
z
" transform="scale(0.015625)"/>
       <path id="DejaVuSans-2c" d="M 750 794 
L 1409 794 
L 1409 256 
L 897 -744 
L 494 -744 
L 750 256 
L 750 794 
z
" transform="scale(0.015625)"/>
      </defs>
      <use xlink:href="#DejaVuSans-Oblique-76" transform="translate(0 0.125)"/>
      <use xlink:href="#DejaVuSans-223c" transform="translate(78.662109 0.125)"/>
      <use xlink:href="#DejaVuSans-Oblique-55" transform="translate(181.933594 0.125)"/>
      <use xlink:href="#DejaVuSans-28" transform="translate(255.126953 0.125)"/>
      <use xlink:href="#DejaVuSans-2212" transform="translate(294.140625 0.125)"/>
      <use xlink:href="#DejaVuSans-30" transform="translate(377.929688 0.125)"/>
      <use xlink:href="#DejaVuSans-2e" transform="translate(441.552734 0.125)"/>
      <use xlink:href="#DejaVuSans-32" transform="translate(467.839844 0.125)"/>
      <use xlink:href="#DejaVuSans-35" transform="translate(531.462891 0.125)"/>
      <use xlink:href="#DejaVuSans-2c" transform="translate(595.085938 0.125)"/>
      <use xlink:href="#DejaVuSans-30" transform="translate(646.355469 0.125)"/>
      <use xlink:href="#DejaVuSans-2e" transform="translate(709.978516 0.125)"/>
      <use xlink:href="#DejaVuSans-32" transform="translate(736.265625 0.125)"/>
      <use xlink:href="#DejaVuSans-35" transform="translate(799.888672 0.125)"/>
      <use xlink:href="#DejaVuSans-29" transform="translate(863.511719 0.125)"/>
     </g>
    </g>
    <g id="line2d_32">
     <path d="M 63 62.336562 
L 73 62.336562 
L 83 62.336562 
" style="fill: none; stroke: #ff7f0e; stroke-width: 1.5; stroke-linecap: square"/>
    </g>
    <g id="text_18">
     <!-- $v=0$ -->
     <g transform="translate(91 65.836562) scale(0.1 -0.1)">
      <defs>
       <path id="DejaVuSans-3d" d="M 678 2906 
L 4684 2906 
L 4684 2381 
L 678 2381 
L 678 2906 
z
M 678 1631 
L 4684 1631 
L 4684 1100 
L 678 1100 
L 678 1631 
z
" transform="scale(0.015625)"/>
      </defs>
      <use xlink:href="#DejaVuSans-Oblique-76" transform="translate(0 0.78125)"/>
      <use xlink:href="#DejaVuSans-3d" transform="translate(78.662109 0.78125)"/>
      <use xlink:href="#DejaVuSans-30" transform="translate(181.933594 0.78125)"/>
     </g>
    </g>
   </g>
  </g>
 </g>
 <defs>
  <clipPath id="pfc9ea86640">
   <rect x="54" y="34.56" width="334.8" height="221.76"/>
  </clipPath>
 </defs>
</svg>
